%TF.GenerationSoftware,KiCad,Pcbnew,9.0.0*%
%TF.CreationDate,2025-04-06T21:49:29+02:00*%
%TF.ProjectId,_autosave-Innocent_schematic_without_fuse,5f617574-6f73-4617-9665-2d496e6e6f63,rev?*%
%TF.SameCoordinates,Original*%
%TF.FileFunction,Soldermask,Top*%
%TF.FilePolarity,Negative*%
%FSLAX46Y46*%
G04 Gerber Fmt 4.6, Leading zero omitted, Abs format (unit mm)*
G04 Created by KiCad (PCBNEW 9.0.0) date 2025-04-06 21:49:29*
%MOMM*%
%LPD*%
G01*
G04 APERTURE LIST*
G04 Aperture macros list*
%AMRoundRect*
0 Rectangle with rounded corners*
0 $1 Rounding radius*
0 $2 $3 $4 $5 $6 $7 $8 $9 X,Y pos of 4 corners*
0 Add a 4 corners polygon primitive as box body*
4,1,4,$2,$3,$4,$5,$6,$7,$8,$9,$2,$3,0*
0 Add four circle primitives for the rounded corners*
1,1,$1+$1,$2,$3*
1,1,$1+$1,$4,$5*
1,1,$1+$1,$6,$7*
1,1,$1+$1,$8,$9*
0 Add four rect primitives between the rounded corners*
20,1,$1+$1,$2,$3,$4,$5,0*
20,1,$1+$1,$4,$5,$6,$7,0*
20,1,$1+$1,$6,$7,$8,$9,0*
20,1,$1+$1,$8,$9,$2,$3,0*%
G04 Aperture macros list end*
%ADD10RoundRect,0.250000X0.450000X-0.262500X0.450000X0.262500X-0.450000X0.262500X-0.450000X-0.262500X0*%
%ADD11RoundRect,0.250000X0.325000X0.650000X-0.325000X0.650000X-0.325000X-0.650000X0.325000X-0.650000X0*%
%ADD12RoundRect,0.250000X1.075000X-0.375000X1.075000X0.375000X-1.075000X0.375000X-1.075000X-0.375000X0*%
%ADD13RoundRect,0.225000X-0.250000X0.225000X-0.250000X-0.225000X0.250000X-0.225000X0.250000X0.225000X0*%
%ADD14RoundRect,0.102000X0.450000X0.400000X-0.450000X0.400000X-0.450000X-0.400000X0.450000X-0.400000X0*%
%ADD15RoundRect,0.250000X0.475000X-0.250000X0.475000X0.250000X-0.475000X0.250000X-0.475000X-0.250000X0*%
%ADD16C,3.500000*%
%ADD17RoundRect,0.250000X0.312500X0.625000X-0.312500X0.625000X-0.312500X-0.625000X0.312500X-0.625000X0*%
%ADD18R,0.812800X0.254000*%
%ADD19R,0.254000X0.812800*%
%ADD20R,0.700000X0.250000*%
%ADD21RoundRect,0.250000X-0.250000X-0.475000X0.250000X-0.475000X0.250000X0.475000X-0.250000X0.475000X0*%
%ADD22RoundRect,0.250000X0.262500X0.450000X-0.262500X0.450000X-0.262500X-0.450000X0.262500X-0.450000X0*%
%ADD23RoundRect,0.218750X0.381250X-0.218750X0.381250X0.218750X-0.381250X0.218750X-0.381250X-0.218750X0*%
%ADD24RoundRect,0.200000X-0.275000X0.200000X-0.275000X-0.200000X0.275000X-0.200000X0.275000X0.200000X0*%
%ADD25RoundRect,0.250000X-0.650000X0.325000X-0.650000X-0.325000X0.650000X-0.325000X0.650000X0.325000X0*%
%ADD26RoundRect,0.250000X-0.450000X0.262500X-0.450000X-0.262500X0.450000X-0.262500X0.450000X0.262500X0*%
%ADD27C,1.712000*%
%ADD28RoundRect,0.250000X0.650000X-0.325000X0.650000X0.325000X-0.650000X0.325000X-0.650000X-0.325000X0*%
%ADD29R,0.600000X0.250000*%
%ADD30RoundRect,0.250000X-0.262500X-0.450000X0.262500X-0.450000X0.262500X0.450000X-0.262500X0.450000X0*%
%ADD31RoundRect,0.250000X0.850000X-0.375000X0.850000X0.375000X-0.850000X0.375000X-0.850000X-0.375000X0*%
%ADD32RoundRect,0.243750X-0.456250X0.243750X-0.456250X-0.243750X0.456250X-0.243750X0.456250X0.243750X0*%
%ADD33R,3.000000X1.800000*%
%ADD34RoundRect,0.058000X-0.449000X-0.174000X0.449000X-0.174000X0.449000X0.174000X-0.449000X0.174000X0*%
%ADD35RoundRect,0.102000X-0.815000X-1.240000X0.815000X-1.240000X0.815000X1.240000X-0.815000X1.240000X0*%
%ADD36RoundRect,0.200000X0.275000X-0.200000X0.275000X0.200000X-0.275000X0.200000X-0.275000X-0.200000X0*%
%ADD37RoundRect,0.200000X-0.200000X-0.275000X0.200000X-0.275000X0.200000X0.275000X-0.200000X0.275000X0*%
%ADD38R,2.460000X2.310000*%
%ADD39RoundRect,0.100000X0.687500X0.100000X-0.687500X0.100000X-0.687500X-0.100000X0.687500X-0.100000X0*%
%ADD40RoundRect,0.150000X0.825000X0.150000X-0.825000X0.150000X-0.825000X-0.150000X0.825000X-0.150000X0*%
%ADD41RoundRect,0.250000X-0.325000X-0.650000X0.325000X-0.650000X0.325000X0.650000X-0.325000X0.650000X0*%
%ADD42C,1.905000*%
%ADD43RoundRect,0.150000X0.587500X0.150000X-0.587500X0.150000X-0.587500X-0.150000X0.587500X-0.150000X0*%
%ADD44RoundRect,0.100000X-0.687500X-0.100000X0.687500X-0.100000X0.687500X0.100000X-0.687500X0.100000X0*%
%ADD45R,2.000000X1.905000*%
%ADD46O,2.000000X1.905000*%
%ADD47RoundRect,0.102000X-0.450000X-0.400000X0.450000X-0.400000X0.450000X0.400000X-0.450000X0.400000X0*%
%ADD48RoundRect,0.250000X0.250000X0.475000X-0.250000X0.475000X-0.250000X-0.475000X0.250000X-0.475000X0*%
%ADD49RoundRect,0.102000X0.350000X0.575000X-0.350000X0.575000X-0.350000X-0.575000X0.350000X-0.575000X0*%
%ADD50RoundRect,0.102000X0.400000X0.575000X-0.400000X0.575000X-0.400000X-0.575000X0.400000X-0.575000X0*%
%ADD51RoundRect,0.102000X0.450000X0.575000X-0.450000X0.575000X-0.450000X-0.575000X0.450000X-0.575000X0*%
%ADD52O,1.204000X2.204000*%
%ADD53R,2.410000X3.300000*%
%ADD54RoundRect,0.150000X-0.687500X-0.150000X0.687500X-0.150000X0.687500X0.150000X-0.687500X0.150000X0*%
%ADD55R,2.100000X3.300000*%
%ADD56RoundRect,0.243750X0.456250X-0.243750X0.456250X0.243750X-0.456250X0.243750X-0.456250X-0.243750X0*%
%ADD57R,1.700000X1.700000*%
%ADD58O,1.700000X1.700000*%
G04 APERTURE END LIST*
D10*
%TO.C,R11*%
X182500000Y-63912500D03*
X182500000Y-62087500D03*
%TD*%
D11*
%TO.C,C2*%
X127975000Y-74000000D03*
X125025000Y-74000000D03*
%TD*%
D12*
%TO.C,L3*%
X157000000Y-65900000D03*
X157000000Y-63100000D03*
%TD*%
D13*
%TO.C,C5*%
X137000000Y-73225000D03*
X137000000Y-74775000D03*
%TD*%
D10*
%TO.C,R10*%
X154000000Y-71737500D03*
X154000000Y-69912500D03*
%TD*%
D14*
%TO.C,Q3*%
X172500000Y-83050000D03*
X172500000Y-84950000D03*
X174600000Y-84000000D03*
%TD*%
D15*
%TO.C,C1*%
X115500000Y-62450000D03*
X115500000Y-60550000D03*
%TD*%
D16*
%TO.C,H3*%
X146180000Y-71200000D03*
%TD*%
D17*
%TO.C,R27*%
X151462500Y-65500000D03*
X148537500Y-65500000D03*
%TD*%
D18*
%TO.C,U3*%
X149945900Y-75499999D03*
X149945900Y-76000000D03*
X149945900Y-76500000D03*
X149945900Y-77000001D03*
D19*
X150750000Y-77304100D03*
X151250000Y-77304100D03*
D18*
X152054100Y-77000001D03*
X152054100Y-76500000D03*
X152054100Y-76000000D03*
X152054100Y-75499999D03*
D19*
X151250000Y-75195900D03*
X150750000Y-75195900D03*
D20*
X151000000Y-76000000D03*
X151000000Y-76500000D03*
%TD*%
D15*
%TO.C,C7*%
X142000000Y-94000000D03*
X142000000Y-92100000D03*
%TD*%
D21*
%TO.C,C6*%
X151550000Y-61500000D03*
X153450000Y-61500000D03*
%TD*%
D22*
%TO.C,R21*%
X149825000Y-95500000D03*
X148000000Y-95500000D03*
%TD*%
D23*
%TO.C,L2*%
X152000000Y-82062500D03*
X152000000Y-79937500D03*
%TD*%
D24*
%TO.C,R28*%
X161000000Y-71675000D03*
X161000000Y-73325000D03*
%TD*%
D25*
%TO.C,C8*%
X172500000Y-76025000D03*
X172500000Y-78975000D03*
%TD*%
D15*
%TO.C,C13*%
X122000000Y-93450000D03*
X122000000Y-91550000D03*
%TD*%
D10*
%TO.C,R18*%
X126500000Y-88912500D03*
X126500000Y-87087500D03*
%TD*%
D22*
%TO.C,R16*%
X172912500Y-90000000D03*
X171087500Y-90000000D03*
%TD*%
D15*
%TO.C,C12*%
X169000000Y-71950000D03*
X169000000Y-70050000D03*
%TD*%
D26*
%TO.C,R7*%
X146500000Y-91587500D03*
X146500000Y-93412500D03*
%TD*%
D27*
%TO.C,P2*%
X119000000Y-107500000D03*
X121000000Y-107500000D03*
%TD*%
D28*
%TO.C,C10*%
X167000000Y-78475000D03*
X167000000Y-75525000D03*
%TD*%
D29*
%TO.C,IC1*%
X133000000Y-74000000D03*
X133000000Y-73500000D03*
X133000000Y-73000000D03*
X133000000Y-72500000D03*
X131600000Y-72500000D03*
X131600000Y-73000000D03*
X131600000Y-73500000D03*
X131600000Y-74000000D03*
%TD*%
D30*
%TO.C,R17*%
X167087500Y-84000000D03*
X168912500Y-84000000D03*
%TD*%
D31*
%TO.C,L1*%
X141500000Y-72650000D03*
X141500000Y-70500000D03*
%TD*%
D21*
%TO.C,C17*%
X155550000Y-89000000D03*
X157450000Y-89000000D03*
%TD*%
D22*
%TO.C,R13*%
X136912500Y-83000000D03*
X135087500Y-83000000D03*
%TD*%
D32*
%TO.C,LED1*%
X136500000Y-91562500D03*
X136500000Y-93437500D03*
%TD*%
D33*
%TO.C,SW1*%
X116000000Y-73300000D03*
X116000000Y-78000000D03*
X116000000Y-82700000D03*
%TD*%
D26*
%TO.C,R23*%
X158062500Y-100587500D03*
X158062500Y-102412500D03*
%TD*%
D34*
%TO.C,U4*%
X167555000Y-63000000D03*
X167555000Y-63500000D03*
X167555000Y-64000000D03*
X167555000Y-64500000D03*
X167555000Y-65000000D03*
X170445000Y-65000000D03*
X170445000Y-64500000D03*
X170445000Y-64000000D03*
X170445000Y-63500000D03*
X170445000Y-63000000D03*
D35*
X169000000Y-64000000D03*
%TD*%
D22*
%TO.C,R2*%
X124912500Y-62000000D03*
X123087500Y-62000000D03*
%TD*%
D36*
%TO.C,R9*%
X163500000Y-81325000D03*
X163500000Y-79675000D03*
%TD*%
D10*
%TO.C,R26*%
X182500000Y-70825000D03*
X182500000Y-69000000D03*
%TD*%
D37*
%TO.C,R5*%
X129675000Y-79000000D03*
X131325000Y-79000000D03*
%TD*%
D10*
%TO.C,R1*%
X140500000Y-62325000D03*
X140500000Y-60500000D03*
%TD*%
D38*
%TO.C,U7*%
X164750000Y-91500000D03*
D39*
X167612500Y-93775000D03*
X167612500Y-93125000D03*
X167612500Y-92475000D03*
X167612500Y-91825000D03*
X167612500Y-91175000D03*
X167612500Y-90525000D03*
X167612500Y-89875000D03*
X167612500Y-89225000D03*
X161887500Y-89225000D03*
X161887500Y-89875000D03*
X161887500Y-90525000D03*
X161887500Y-91175000D03*
X161887500Y-91825000D03*
X161887500Y-92475000D03*
X161887500Y-93125000D03*
X161887500Y-93775000D03*
%TD*%
D22*
%TO.C,R8*%
X142912500Y-66000000D03*
X141087500Y-66000000D03*
%TD*%
D26*
%TO.C,R22*%
X149000000Y-100675000D03*
X149000000Y-102500000D03*
%TD*%
D40*
%TO.C,U5*%
X128475000Y-101405000D03*
X128475000Y-100135000D03*
X128475000Y-98865000D03*
X128475000Y-97595000D03*
X123525000Y-97595000D03*
X123525000Y-98865000D03*
X123525000Y-100135000D03*
X123525000Y-101405000D03*
%TD*%
D41*
%TO.C,C4*%
X123025000Y-77500000D03*
X125975000Y-77500000D03*
%TD*%
D42*
%TO.C,TP1*%
X127000000Y-93000000D03*
%TD*%
D16*
%TO.C,H4*%
X146180000Y-81200000D03*
%TD*%
D22*
%TO.C,R15*%
X173000000Y-93000000D03*
X171175000Y-93000000D03*
%TD*%
D41*
%TO.C,C18*%
X155025000Y-93000000D03*
X157975000Y-93000000D03*
%TD*%
D43*
%TO.C,Q5*%
X155000000Y-102450000D03*
X155000000Y-100550000D03*
X153125000Y-101500000D03*
%TD*%
D38*
%TO.C,U6*%
X143250000Y-86500000D03*
D44*
X140387500Y-84225000D03*
X140387500Y-84875000D03*
X140387500Y-85525000D03*
X140387500Y-86175000D03*
X140387500Y-86825000D03*
X140387500Y-87475000D03*
X140387500Y-88125000D03*
X140387500Y-88775000D03*
X146112500Y-88775000D03*
X146112500Y-88125000D03*
X146112500Y-87475000D03*
X146112500Y-86825000D03*
X146112500Y-86175000D03*
X146112500Y-85525000D03*
X146112500Y-84875000D03*
X146112500Y-84225000D03*
%TD*%
D22*
%TO.C,R14*%
X136825000Y-87000000D03*
X135000000Y-87000000D03*
%TD*%
D45*
%TO.C,Q1*%
X116055000Y-93460000D03*
D46*
X116055000Y-96000000D03*
X116055000Y-98540000D03*
%TD*%
D47*
%TO.C,Q2*%
X123000000Y-86450000D03*
X123000000Y-84550000D03*
X120900000Y-85500000D03*
%TD*%
D30*
%TO.C,R19*%
X177087500Y-84000000D03*
X178912500Y-84000000D03*
%TD*%
D45*
%TO.C,Q4*%
X179000000Y-93000000D03*
D46*
X179000000Y-95540000D03*
X179000000Y-98080000D03*
%TD*%
D16*
%TO.C,H2*%
X146180000Y-61200000D03*
%TD*%
D30*
%TO.C,R4*%
X129675000Y-83000000D03*
X131500000Y-83000000D03*
%TD*%
D28*
%TO.C,C16*%
X156000000Y-78475000D03*
X156000000Y-75525000D03*
%TD*%
D24*
%TO.C,R25*%
X176000000Y-62175000D03*
X176000000Y-63825000D03*
%TD*%
D37*
%TO.C,R24*%
X125350000Y-81500000D03*
X127000000Y-81500000D03*
%TD*%
D30*
%TO.C,R6*%
X133675000Y-98500000D03*
X135500000Y-98500000D03*
%TD*%
D24*
%TO.C,R29*%
X159000000Y-79850000D03*
X159000000Y-81500000D03*
%TD*%
D48*
%TO.C,C14*%
X151950000Y-90000000D03*
X150050000Y-90000000D03*
%TD*%
D11*
%TO.C,C15*%
X152475000Y-85500000D03*
X149525000Y-85500000D03*
%TD*%
D26*
%TO.C,R12*%
X177000000Y-69500000D03*
X177000000Y-71325000D03*
%TD*%
D11*
%TO.C,C11*%
X173475000Y-101500000D03*
X170525000Y-101500000D03*
%TD*%
D28*
%TO.C,C3*%
X181000000Y-78975000D03*
X181000000Y-76025000D03*
%TD*%
D49*
%TO.C,J2*%
X133000000Y-67205000D03*
D50*
X130980000Y-67205000D03*
D51*
X129750000Y-67205000D03*
D49*
X132000000Y-67205000D03*
D50*
X134020000Y-67205000D03*
D51*
X135250000Y-67205000D03*
D52*
X136820000Y-67200000D03*
X128180000Y-67200000D03*
X136820000Y-63400000D03*
X128180000Y-63400000D03*
%TD*%
D40*
%TO.C,U2*%
X143275000Y-101205000D03*
X143275000Y-99935000D03*
X143275000Y-98665000D03*
X143275000Y-97395000D03*
X138325000Y-97395000D03*
X138325000Y-98665000D03*
X138325000Y-99935000D03*
X138325000Y-101205000D03*
D53*
X140800000Y-99300000D03*
%TD*%
D54*
%TO.C,U1*%
X114362500Y-65500000D03*
X114362500Y-66500000D03*
X114362500Y-67500000D03*
X114362500Y-68500000D03*
X114362500Y-69500000D03*
X119637500Y-69500000D03*
X119637500Y-68500000D03*
X119637500Y-67500000D03*
X119637500Y-66500000D03*
X119637500Y-65500000D03*
D55*
X117000000Y-67500000D03*
%TD*%
D28*
%TO.C,C9*%
X124000000Y-70475000D03*
X124000000Y-67525000D03*
%TD*%
D22*
%TO.C,R3*%
X137912500Y-79000000D03*
X136087500Y-79000000D03*
%TD*%
D41*
%TO.C,C19*%
X156025000Y-84500000D03*
X158975000Y-84500000D03*
%TD*%
D56*
%TO.C,LED2*%
X131000000Y-92937500D03*
X131000000Y-91062500D03*
%TD*%
D26*
%TO.C,R20*%
X116000000Y-87087500D03*
X116000000Y-88912500D03*
%TD*%
D57*
%TO.C,J1*%
X165230000Y-108665000D03*
D58*
X165230000Y-106125000D03*
X162690000Y-108665000D03*
X162690000Y-106125000D03*
X160150000Y-108665000D03*
X160150000Y-106125000D03*
X157610000Y-108665000D03*
X157610000Y-106125000D03*
X155070000Y-108665000D03*
X155070000Y-106125000D03*
X152530000Y-108665000D03*
X152530000Y-106125000D03*
X149990000Y-108665000D03*
X149990000Y-106125000D03*
X147450000Y-108665000D03*
X147450000Y-106125000D03*
X144910000Y-108665000D03*
X144910000Y-106125000D03*
X142370000Y-108665000D03*
X142370000Y-106125000D03*
X139830000Y-108665000D03*
X139830000Y-106125000D03*
X137290000Y-108665000D03*
X137290000Y-106125000D03*
X134750000Y-108665000D03*
X134750000Y-106125000D03*
X132210000Y-108665000D03*
X132210000Y-106125000D03*
X129670000Y-108665000D03*
X129670000Y-106125000D03*
X127130000Y-108665000D03*
X127130000Y-106125000D03*
%TD*%
M02*
