M48
; DRILL file {KiCad 9.0.0} date 2025-04-06T21:49:30+0200
; FORMAT={-:-/ absolute / inch / decimal}
; #@! TF.CreationDate,2025-04-06T21:49:30+02:00
; #@! TF.GenerationSoftware,Kicad,Pcbnew,9.0.0
; #@! TF.FileFunction,Plated,1,2,PTH
FMAT,2
INCH
; #@! TA.AperFunction,Plated,PTH,ViaDrill
T1C0.0025
; #@! TA.AperFunction,Plated,PTH,ComponentDrill
T2C0.0079
; #@! TA.AperFunction,Plated,PTH,ViaDrill
T3C0.0118
; #@! TA.AperFunction,Plated,PTH,ComponentDrill
T4C0.0197
; #@! TA.AperFunction,Plated,PTH,ComponentDrill
T5C0.0394
; #@! TA.AperFunction,Plated,PTH,ComponentDrill
T6C0.0433
; #@! TA.AperFunction,Plated,PTH,ComponentDrill
T7C0.0866
%
G90
G05
T1
X5.9449Y-3.0118
X5.9449Y-3.0118
T2
X5.5157Y-3.8622
X5.5157Y-3.9094
X5.5157Y-3.9567
X5.5709Y-3.8622
X5.5709Y-3.9094
X5.5709Y-3.9567
X5.6102Y-3.3465
X5.6102Y-3.4055
X5.6102Y-3.4646
X5.6693Y-3.3465
X5.6693Y-3.4055
X5.6693Y-3.4646
X6.4567Y-3.5433
X6.4567Y-3.6024
X6.4567Y-3.6614
X6.5157Y-3.5433
X6.5157Y-3.6024
X6.5157Y-3.6614
T3
X4.6248Y-4.3421
X4.701Y-3.9906
X4.804Y-3.8923
X4.9032Y-3.2385
X4.9032Y-3.5947
X4.9404Y-3.9301
X4.9869Y-2.4598
X5.1051Y-4.4114
X5.1164Y-2.873
X5.1164Y-2.873
X5.1574Y-3.5005
X5.1575Y-2.7357
X5.1718Y-3.1512
X5.1778Y-2.5748
X5.2016Y-2.6411
X5.2362Y-2.5748
X5.2362Y-2.6459
X5.2406Y-3.2699
X5.2559Y-4.0667
X5.2841Y-3.305
X5.2859Y-3.5608
X5.3163Y-2.8937
X5.3229Y-3.1876
X5.3239Y-3.3596
X5.3569Y-4.0818
X5.357Y-4.3579
X5.3657Y-3.8344
X5.3666Y-3.7289
X5.3874Y-3.9309
X5.3937Y-2.7357
X5.3937Y-2.8237
X5.4449Y-3.6708
X5.469Y-3.2947
X5.4716Y-2.7915
X5.4716Y-2.9179
X5.4928Y-3.551
X5.5315Y-4.0423
X5.5973Y-3.2521
X5.6296Y-4.0161
X5.6494Y-4.0414
X5.7051Y-4.0976
X5.9012Y-3.841
X5.9061Y-3.0565
X5.9297Y-3.1258
X5.9354Y-3.1568
X5.9486Y-3.7269
X5.9486Y-4.0702
X5.9851Y-2.6833
X5.9851Y-2.9193
X6.0127Y-3.7462
X6.0268Y-3.6293
X6.0329Y-4.1041
X6.0566Y-3.5894
X6.0853Y-4.0772
X6.0884Y-3.6017
X6.2723Y-3.5421
X6.2785Y-2.8858
X6.2992Y-3.1615
X6.3085Y-3.5184
X6.45Y-3.9106
X6.4878Y-3.8031
X6.5423Y-3.3431
X6.5712Y-3.4685
X6.578Y-2.4546
X6.6554Y-3.5896
X6.683Y-3.6152
X6.683Y-4.4114
X6.7915Y-2.7721
T5
X4.685Y-4.2323
X4.7638Y-4.2323
X5.0051Y-4.1781
X5.0051Y-4.2781
X5.1051Y-4.1781
X5.1051Y-4.2781
X5.2051Y-4.1781
X5.2051Y-4.2781
X5.3051Y-4.1781
X5.3051Y-4.2781
X5.4051Y-4.1781
X5.4051Y-4.2781
X5.5051Y-4.1781
X5.5051Y-4.2781
X5.6051Y-4.1781
X5.6051Y-4.2781
X5.7051Y-4.1781
X5.7051Y-4.2781
X5.8051Y-4.1781
X5.8051Y-4.2781
X5.9051Y-4.1781
X5.9051Y-4.2781
X6.0051Y-4.1781
X6.0051Y-4.2781
X6.1051Y-4.1781
X6.1051Y-4.2781
X6.2051Y-4.1781
X6.2051Y-4.2781
X6.3051Y-4.1781
X6.3051Y-4.2781
X6.4051Y-4.1781
X6.4051Y-4.2781
X6.5051Y-4.1781
X6.5051Y-4.2781
T6
X4.5691Y-3.6795
X4.5691Y-3.7795
X4.5691Y-3.8795
X7.0472Y-3.6614
X7.0472Y-3.7614
X7.0472Y-3.8614
T7
X5.7551Y-2.4094
X5.7551Y-2.8031
X5.7551Y-3.1969
T4
G00X5.0465Y-2.5098
M15
G01X5.0465Y-2.4823
M16
G05
G00X5.0465Y-2.6594
M15
G01X5.0465Y-2.6319
M16
G05
G00X5.3866Y-2.5098
M15
G01X5.3866Y-2.4823
M16
G05
G00X5.3866Y-2.6594
M15
G01X5.3866Y-2.6319
M16
G05
T5
G00X4.5433Y-2.8858
M15
G01X4.5906Y-2.8858
M16
G05
G00X4.5433Y-3.0709
M15
G01X4.5906Y-3.0709
M16
G05
G00X4.5433Y-3.2559
M15
G01X4.5906Y-3.2559
M16
G05
M30
