%TF.GenerationSoftware,KiCad,Pcbnew,9.0.0*%
%TF.CreationDate,2025-04-06T21:49:30+02:00*%
%TF.ProjectId,_autosave-Innocent_schematic_without_fuse,5f617574-6f73-4617-9665-2d496e6e6f63,rev?*%
%TF.SameCoordinates,Original*%
%TF.FileFunction,Legend,Bot*%
%TF.FilePolarity,Positive*%
%FSLAX46Y46*%
G04 Gerber Fmt 4.6, Leading zero omitted, Abs format (unit mm)*
G04 Created by KiCad (PCBNEW 9.0.0) date 2025-04-06 21:49:30*
%MOMM*%
%LPD*%
G01*
G04 APERTURE LIST*
%ADD10C,0.120000*%
%ADD11C,3.500000*%
%ADD12C,1.508000*%
%ADD13R,3.000000X1.800000*%
%ADD14R,2.000000X1.905000*%
%ADD15O,2.000000X1.905000*%
%ADD16O,1.000000X2.000000*%
%ADD17R,1.700000X1.700000*%
%ADD18O,1.700000X1.700000*%
G04 APERTURE END LIST*
D10*
%TO.C,J1*%
X125800000Y-109995000D02*
X125800000Y-104795000D01*
X163960000Y-107395000D02*
X166560000Y-107395000D01*
X163960000Y-109995000D02*
X125800000Y-109995000D01*
X163960000Y-109995000D02*
X163960000Y-107395000D01*
X165230000Y-109995000D02*
X166560000Y-109995000D01*
X166560000Y-104795000D02*
X125800000Y-104795000D01*
X166560000Y-107395000D02*
X166560000Y-104795000D01*
X166560000Y-109995000D02*
X166560000Y-108665000D01*
%TD*%
%LPC*%
D11*
%TO.C,H3*%
X146180000Y-71200000D03*
%TD*%
D12*
%TO.C,P2*%
X119000000Y-107500000D03*
X121000000Y-107500000D03*
%TD*%
D13*
%TO.C,SW1*%
X116000000Y-73300000D03*
X116000000Y-78000000D03*
X116000000Y-82700000D03*
%TD*%
D11*
%TO.C,H4*%
X146180000Y-81200000D03*
%TD*%
D14*
%TO.C,Q1*%
X116055000Y-93460000D03*
D15*
X116055000Y-96000000D03*
X116055000Y-98540000D03*
%TD*%
D14*
%TO.C,Q4*%
X179000000Y-93000000D03*
D15*
X179000000Y-95540000D03*
X179000000Y-98080000D03*
%TD*%
D11*
%TO.C,H2*%
X146180000Y-61200000D03*
%TD*%
D16*
%TO.C,J2*%
X136820000Y-67200000D03*
X128180000Y-67200000D03*
X136820000Y-63400000D03*
X128180000Y-63400000D03*
%TD*%
D17*
%TO.C,J1*%
X165230000Y-108665000D03*
D18*
X165230000Y-106125000D03*
X162690000Y-108665000D03*
X162690000Y-106125000D03*
X160150000Y-108665000D03*
X160150000Y-106125000D03*
X157610000Y-108665000D03*
X157610000Y-106125000D03*
X155070000Y-108665000D03*
X155070000Y-106125000D03*
X152530000Y-108665000D03*
X152530000Y-106125000D03*
X149990000Y-108665000D03*
X149990000Y-106125000D03*
X147450000Y-108665000D03*
X147450000Y-106125000D03*
X144910000Y-108665000D03*
X144910000Y-106125000D03*
X142370000Y-108665000D03*
X142370000Y-106125000D03*
X139830000Y-108665000D03*
X139830000Y-106125000D03*
X137290000Y-108665000D03*
X137290000Y-106125000D03*
X134750000Y-108665000D03*
X134750000Y-106125000D03*
X132210000Y-108665000D03*
X132210000Y-106125000D03*
X129670000Y-108665000D03*
X129670000Y-106125000D03*
X127130000Y-108665000D03*
X127130000Y-106125000D03*
%TD*%
%LPD*%
M02*
