%TF.GenerationSoftware,KiCad,Pcbnew,9.0.0*%
%TF.CreationDate,2025-04-06T21:49:29+02:00*%
%TF.ProjectId,_autosave-Innocent_schematic_without_fuse,5f617574-6f73-4617-9665-2d496e6e6f63,rev?*%
%TF.SameCoordinates,Original*%
%TF.FileFunction,Copper,L2,Bot*%
%TF.FilePolarity,Positive*%
%FSLAX46Y46*%
G04 Gerber Fmt 4.6, Leading zero omitted, Abs format (unit mm)*
G04 Created by KiCad (PCBNEW 9.0.0) date 2025-04-06 21:49:29*
%MOMM*%
%LPD*%
G01*
G04 APERTURE LIST*
%TA.AperFunction,ComponentPad*%
%ADD10C,3.500000*%
%TD*%
%TA.AperFunction,ComponentPad*%
%ADD11C,1.508000*%
%TD*%
%TA.AperFunction,ComponentPad*%
%ADD12R,3.000000X1.800000*%
%TD*%
%TA.AperFunction,HeatsinkPad*%
%ADD13C,0.500000*%
%TD*%
%TA.AperFunction,HeatsinkPad*%
%ADD14R,2.000000X3.500000*%
%TD*%
%TA.AperFunction,ComponentPad*%
%ADD15R,2.000000X1.905000*%
%TD*%
%TA.AperFunction,ComponentPad*%
%ADD16O,2.000000X1.905000*%
%TD*%
%TA.AperFunction,ComponentPad*%
%ADD17O,1.000000X2.000000*%
%TD*%
%TA.AperFunction,HeatsinkPad*%
%ADD18R,1.900000X2.900000*%
%TD*%
%TA.AperFunction,ComponentPad*%
%ADD19R,1.700000X1.700000*%
%TD*%
%TA.AperFunction,ComponentPad*%
%ADD20O,1.700000X1.700000*%
%TD*%
%TA.AperFunction,ViaPad*%
%ADD21C,0.600000*%
%TD*%
%TA.AperFunction,ViaPad*%
%ADD22C,0.125730*%
%TD*%
%TA.AperFunction,Conductor*%
%ADD23C,0.200000*%
%TD*%
%TA.AperFunction,Conductor*%
%ADD24C,0.062865*%
%TD*%
G04 APERTURE END LIST*
D10*
%TO.P,H3,1*%
%TO.N,N/C*%
X146180000Y-71200000D03*
%TD*%
D11*
%TO.P,P2,1,1*%
%TO.N,3.7V_in*%
X119000000Y-107500000D03*
%TO.P,P2,2,2*%
%TO.N,GND*%
X121000000Y-107500000D03*
%TD*%
D12*
%TO.P,SW1,1,C*%
%TO.N,unconnected-(SW1-C-Pad1)*%
X116000000Y-73300000D03*
%TO.P,SW1,2,B*%
%TO.N,3.7V_out*%
X116000000Y-78000000D03*
%TO.P,SW1,3,A*%
%TO.N,3.7V_in*%
X116000000Y-82700000D03*
%TD*%
D13*
%TO.P,U7,17,GND*%
%TO.N,GND*%
X165500000Y-93000000D03*
X165500000Y-91500000D03*
X165500000Y-90000000D03*
D14*
X164750000Y-91500000D03*
D13*
X164000000Y-93000000D03*
X164000000Y-91500000D03*
X164000000Y-90000000D03*
%TD*%
D10*
%TO.P,H4,1*%
%TO.N,N/C*%
X146180000Y-81200000D03*
%TD*%
D13*
%TO.P,U6,17,GND*%
%TO.N,GND*%
X142500000Y-85000000D03*
X142500000Y-86500000D03*
X142500000Y-88000000D03*
D14*
X143250000Y-86500000D03*
D13*
X144000000Y-85000000D03*
X144000000Y-86500000D03*
X144000000Y-88000000D03*
%TD*%
D15*
%TO.P,Q1,1,B*%
%TO.N,Net-(Q1-B)*%
X116055000Y-93460000D03*
D16*
%TO.P,Q1,2,C*%
%TO.N,/EXT_LOAD1_OUT*%
X116055000Y-96000000D03*
%TO.P,Q1,3,E*%
%TO.N,5V Out*%
X116055000Y-98540000D03*
%TD*%
D15*
%TO.P,Q4,1,B*%
%TO.N,Net-(Q4-B)*%
X179000000Y-93000000D03*
D16*
%TO.P,Q4,2,C*%
%TO.N,/EXT_LOAD2_OUT*%
X179000000Y-95540000D03*
%TO.P,Q4,3,E*%
%TO.N,5V Out*%
X179000000Y-98080000D03*
%TD*%
D10*
%TO.P,H2,1*%
%TO.N,N/C*%
X146180000Y-61200000D03*
%TD*%
D17*
%TO.P,J2,S1,SHIELD*%
%TO.N,GND*%
X136820000Y-67200000D03*
%TO.P,J2,S2*%
%TO.N,N/C*%
X128180000Y-67200000D03*
%TO.P,J2,S3*%
X136820000Y-63400000D03*
%TO.P,J2,S4*%
X128180000Y-63400000D03*
%TD*%
D13*
%TO.P,U2,9,EPAD*%
%TO.N,GND*%
X141500000Y-100500000D03*
X141500000Y-99300000D03*
X141500000Y-98100000D03*
D18*
X140800000Y-99300000D03*
D13*
X140100000Y-100500000D03*
X140100000Y-99300000D03*
X140100000Y-98100000D03*
%TD*%
D19*
%TO.P,J1,1,Pin_1*%
%TO.N,/MOTOR2_B_OUT*%
X165230000Y-108665000D03*
D20*
%TO.P,J1,2,Pin_2*%
%TO.N,/MOTOR2_A_OUT*%
X165230000Y-106125000D03*
%TO.P,J1,3,Pin_3*%
%TO.N,/MOTOR4_A_OUT*%
X162690000Y-108665000D03*
%TO.P,J1,4,Pin_4*%
%TO.N,/MOTOR2_CTRL1*%
X162690000Y-106125000D03*
%TO.P,J1,5,Pin_5*%
%TO.N,/MOTOR4_B_OUT*%
X160150000Y-108665000D03*
%TO.P,J1,6,Pin_6*%
%TO.N,/MOTOR2_CTRL2*%
X160150000Y-106125000D03*
%TO.P,J1,7,Pin_7*%
%TO.N,/CTRL_EXT_LOAD2*%
X157610000Y-108665000D03*
%TO.P,J1,8,Pin_8*%
%TO.N,/MOTOR4_CTRL1*%
X157610000Y-106125000D03*
%TO.P,J1,9,Pin_9*%
%TO.N,/USART2_RX*%
X155070000Y-108665000D03*
%TO.P,J1,10,Pin_10*%
%TO.N,/MOTOR4_CTRL2*%
X155070000Y-106125000D03*
%TO.P,J1,11,Pin_11*%
%TO.N,/EXT_LOAD2_OUT*%
X152530000Y-108665000D03*
%TO.P,J1,12,Pin_12*%
%TO.N,/USART2_TX*%
X152530000Y-106125000D03*
%TO.P,J1,13,Pin_13*%
%TO.N,/FAST_CHARGE_CTRL*%
X149990000Y-108665000D03*
%TO.P,J1,14,Pin_14*%
%TO.N,3.7V_out*%
X149990000Y-106125000D03*
%TO.P,J1,15,Pin_15*%
%TO.N,/RESV*%
X147450000Y-108665000D03*
%TO.P,J1,16,Pin_16*%
%TO.N,/I2C1_SCL*%
X147450000Y-106125000D03*
%TO.P,J1,17,Pin_17*%
%TO.N,/I2C1_SDA*%
X144910000Y-108665000D03*
%TO.P,J1,18,Pin_18*%
%TO.N,3V3 Out*%
X144910000Y-106125000D03*
%TO.P,J1,19,Pin_19*%
%TO.N,GND*%
X142370000Y-108665000D03*
%TO.P,J1,20,Pin_20*%
%TO.N,5V Out*%
X142370000Y-106125000D03*
%TO.P,J1,21,Pin_21*%
%TO.N,/EXT_LOAD1_OUT*%
X139830000Y-108665000D03*
%TO.P,J1,22,Pin_22*%
%TO.N,9V*%
X139830000Y-106125000D03*
%TO.P,J1,23,Pin_23*%
%TO.N,GND*%
X137290000Y-108665000D03*
%TO.P,J1,24,Pin_24*%
%TO.N,/MOTOR3_CTRL1*%
X137290000Y-106125000D03*
%TO.P,J1,25,Pin_25*%
%TO.N,/CTRL_EXT_LOAD1*%
X134750000Y-108665000D03*
%TO.P,J1,26,Pin_26*%
%TO.N,/MOTOR3_CTRL2*%
X134750000Y-106125000D03*
%TO.P,J1,27,Pin_27*%
%TO.N,/MOTOR3_A_OUT*%
X132210000Y-108665000D03*
%TO.P,J1,28,Pin_28*%
%TO.N,/MOTOR1_CTRL1*%
X132210000Y-106125000D03*
%TO.P,J1,29,Pin_29*%
%TO.N,/MOTOR3_B_OUT*%
X129670000Y-108665000D03*
%TO.P,J1,30,Pin_30*%
%TO.N,/MOTOR1_CTRL2*%
X129670000Y-106125000D03*
%TO.P,J1,31,Pin_31*%
%TO.N,/MOTOR1_B_OUT*%
X127130000Y-108665000D03*
%TO.P,J1,32,Pin_32*%
%TO.N,/MOTOR1_A_OUT*%
X127130000Y-106125000D03*
%TD*%
D21*
%TO.N,/CC1*%
X133000000Y-67205000D03*
X133000000Y-65400000D03*
%TO.N,/CC2*%
X132121015Y-67083985D03*
X131516292Y-65400000D03*
%TO.N,VBUS2*%
X131000000Y-69487500D03*
X129957800Y-72975000D03*
%TO.N,GND*%
X137000000Y-69487500D03*
X137000000Y-71721200D03*
%TO.N,5V Out*%
X150015500Y-77635900D03*
D22*
%TO.N,Net-(L2-Pad1)*%
X151000000Y-76500000D03*
D21*
X150615500Y-79395311D03*
D22*
X151000000Y-76500000D03*
D21*
%TO.N,3.7V_out*%
X150758100Y-80182500D03*
X119405700Y-101360000D03*
X152021700Y-68155000D03*
X152021700Y-74150700D03*
%TO.N,GND*%
X163830300Y-99328000D03*
X122022800Y-98865000D03*
%TO.N,VBUS2*%
X129957800Y-72975000D03*
%TO.N,5V*%
X124542400Y-91305200D03*
X124542400Y-82257100D03*
%TO.N,9V*%
X135034200Y-73500000D03*
X126667800Y-62479300D03*
%TO.N,Net-(U2-~{CHRG})*%
X136840600Y-99846000D03*
X138300800Y-93238000D03*
%TO.N,3V3 Out*%
X138912600Y-83685000D03*
X140500400Y-102674800D03*
X167082100Y-62346200D03*
X164789500Y-96598000D03*
X172503900Y-70412500D03*
X149889800Y-97560500D03*
X144910000Y-104079900D03*
%TO.N,/CTRL_EXT_LOAD1*%
X130997000Y-88912500D03*
%TO.N,/CTRL_EXT_LOAD2*%
X166173200Y-84914300D03*
%TO.N,Net-(R28-Pad2)*%
X159999000Y-80301300D03*
X159473900Y-73300300D03*
%TO.N,/EXT_LOAD1_OUT*%
X117469200Y-110289600D03*
%TO.N,IC2*%
X125486200Y-99824700D03*
X131364100Y-80040800D03*
%TO.N,/I2C1_SCL*%
X142992500Y-102009300D03*
%TO.N,/I2C1_SDA*%
X143495200Y-102652600D03*
%TO.N,/MOTOR2_A_OUT*%
X154566700Y-103559900D03*
X154645500Y-91482600D03*
%TO.N,/MOTOR1_CTRL2*%
X135202200Y-80965300D03*
%TO.N,/MOTOR2_B_OUT*%
X135228300Y-85334900D03*
X136067600Y-110689800D03*
%TO.N,/MOTOR1_CTRL1*%
X139517800Y-90196500D03*
X142170700Y-82602400D03*
X134261800Y-90445400D03*
%TO.N,/MOTOR2_CTRL1*%
X153235800Y-104243400D03*
X153081000Y-92184800D03*
%TO.N,/MOTOR2_CTRL2*%
X153837500Y-91169700D03*
%TO.N,/MOTOR1_B_OUT*%
X134216300Y-83947400D03*
%TO.N,/MOTOR1_A_OUT*%
X133112500Y-83055600D03*
%TO.N,/MOTOR3_CTRL1*%
X152721500Y-95153800D03*
%TO.N,/MOTOR3_B_OUT*%
X169747700Y-91825000D03*
X129670000Y-112050000D03*
X169747700Y-112050000D03*
%TO.N,/MOTOR4_CTRL1*%
X160236500Y-89366500D03*
%TO.N,/MOTOR4_CTRL2*%
X159316000Y-89968200D03*
%TO.N,/MOTOR4_B_OUT*%
X169047000Y-91175000D03*
%TO.N,/MOTOR3_CTRL2*%
X151094200Y-103384000D03*
X136066000Y-103678200D03*
X151094200Y-94662600D03*
%TO.N,/MOTOR4_A_OUT*%
X166908000Y-88100000D03*
%TO.N,/MOTOR3_A_OUT*%
X133499200Y-103294000D03*
%TO.N,Net-(IC1-BST)*%
X138978500Y-74115000D03*
X138978500Y-70904300D03*
%TO.N,3.7V_in*%
X136310800Y-94713200D03*
X136288800Y-97395000D03*
%TD*%
D23*
%TO.N,/CC1*%
X133000000Y-65400000D02*
X133000000Y-67205000D01*
%TO.N,/CC2*%
X132083985Y-67083985D02*
X132121015Y-67083985D01*
X131516292Y-66516292D02*
X132083985Y-67083985D01*
X131516292Y-65400000D02*
X131516292Y-66516292D01*
%TO.N,VBUS2*%
X131000000Y-71932800D02*
X129957800Y-72975000D01*
X131000000Y-69487500D02*
X131000000Y-71932800D01*
%TO.N,GND*%
X137000000Y-69487500D02*
X137000000Y-71721200D01*
%TO.N,3.7V_in*%
X116000000Y-83901700D02*
X118784900Y-86686600D01*
X136288800Y-94735200D02*
X136288800Y-97395000D01*
X118784900Y-86686600D02*
X118784900Y-107284900D01*
X118784900Y-107284900D02*
X119000000Y-107500000D01*
X116000000Y-82700000D02*
X116000000Y-83901700D01*
X136310800Y-94713200D02*
X136288800Y-94735200D01*
%TO.N,Net-(IC1-BST)*%
X138978500Y-74115000D02*
X138978500Y-70904300D01*
%TO.N,/MOTOR3_A_OUT*%
X133499200Y-106512000D02*
X133499200Y-103294000D01*
X132210000Y-108665000D02*
X132210000Y-107513300D01*
X132497900Y-107513300D02*
X133499200Y-106512000D01*
X132210000Y-107513300D02*
X132497900Y-107513300D01*
%TO.N,/MOTOR4_A_OUT*%
X166908000Y-88100000D02*
X166908000Y-99279900D01*
X162690000Y-108665000D02*
X162690000Y-107513300D01*
X166908000Y-99279900D02*
X163960000Y-102227900D01*
X163960000Y-102227900D02*
X163960000Y-106511800D01*
X163960000Y-106511800D02*
X162958500Y-107513300D01*
X162958500Y-107513300D02*
X162690000Y-107513300D01*
%TO.N,/MOTOR3_CTRL2*%
X151094200Y-103384000D02*
X151094200Y-94662600D01*
X134750000Y-106125000D02*
X134750000Y-104973300D01*
X134770900Y-104973300D02*
X136066000Y-103678200D01*
X134750000Y-104973300D02*
X134770900Y-104973300D01*
%TO.N,/MOTOR4_B_OUT*%
X166205000Y-109816700D02*
X169047000Y-106974700D01*
X169047000Y-106974700D02*
X169047000Y-91175000D01*
X161301700Y-108665000D02*
X161301700Y-108953000D01*
X162165400Y-109816700D02*
X166205000Y-109816700D01*
X161301700Y-108953000D02*
X162165400Y-109816700D01*
X160150000Y-108665000D02*
X161301700Y-108665000D01*
%TO.N,/MOTOR4_CTRL2*%
X155070000Y-104973300D02*
X159316000Y-100727300D01*
X159316000Y-100727300D02*
X159316000Y-89968200D01*
X155070000Y-106125000D02*
X155070000Y-104973300D01*
%TO.N,/MOTOR4_CTRL1*%
X160236500Y-102346800D02*
X157610000Y-104973300D01*
X157610000Y-106125000D02*
X157610000Y-104973300D01*
X160236500Y-89366500D02*
X160236500Y-102346800D01*
%TO.N,/MOTOR3_B_OUT*%
X169747700Y-112050000D02*
X169747700Y-91825000D01*
X129670000Y-108665000D02*
X129670000Y-112050000D01*
%TO.N,/MOTOR3_CTRL1*%
X141189800Y-109183700D02*
X141876700Y-109870600D01*
X151295000Y-104720100D02*
X152721500Y-103293600D01*
X152721500Y-103293600D02*
X152721500Y-95153800D01*
X151295000Y-106475400D02*
X151295000Y-104720100D01*
X148601700Y-109175600D02*
X148601700Y-108389200D01*
X149595900Y-107395000D02*
X150375400Y-107395000D01*
X150375400Y-107395000D02*
X151295000Y-106475400D01*
X147906700Y-109870600D02*
X148601700Y-109175600D01*
X139305400Y-107276700D02*
X140094700Y-107276700D01*
X138441700Y-106413000D02*
X139305400Y-107276700D01*
X140094700Y-107276700D02*
X141189800Y-108371800D01*
X141189800Y-108371800D02*
X141189800Y-109183700D01*
X138441700Y-106125000D02*
X138441700Y-106413000D01*
X141876700Y-109870600D02*
X147906700Y-109870600D01*
X137290000Y-106125000D02*
X138441700Y-106125000D01*
X148601700Y-108389200D02*
X149595900Y-107395000D01*
%TO.N,/MOTOR1_A_OUT*%
X127944400Y-104158900D02*
X127944400Y-88223700D01*
X127130000Y-106125000D02*
X127130000Y-104973300D01*
X127944400Y-88223700D02*
X133112500Y-83055600D01*
X127130000Y-104973300D02*
X127944400Y-104158900D01*
%TO.N,/MOTOR1_B_OUT*%
X125978300Y-105080100D02*
X127503400Y-103555000D01*
X132809000Y-82450400D02*
X133401500Y-82450400D01*
X127503400Y-103555000D02*
X127503400Y-87756000D01*
X126889500Y-107513300D02*
X125978300Y-106602100D01*
X125978300Y-106602100D02*
X125978300Y-105080100D01*
X127130000Y-108665000D02*
X127130000Y-107513300D01*
X127503400Y-87756000D02*
X132809000Y-82450400D01*
X134216300Y-83265200D02*
X134216300Y-83947400D01*
X133401500Y-82450400D02*
X134216300Y-83265200D01*
X127130000Y-107513300D02*
X126889500Y-107513300D01*
%TO.N,/MOTOR2_CTRL2*%
X160150000Y-106125000D02*
X160150000Y-107276700D01*
X158998300Y-108977100D02*
X158114600Y-109860800D01*
X154651600Y-107395000D02*
X153837500Y-106580900D01*
X158114600Y-109860800D02*
X157151200Y-109860800D01*
X156340000Y-109049600D02*
X156340000Y-108246700D01*
X159862000Y-107276700D02*
X158998300Y-108140400D01*
X153837500Y-106580900D02*
X153837500Y-91169700D01*
X160150000Y-107276700D02*
X159862000Y-107276700D01*
X158998300Y-108140400D02*
X158998300Y-108977100D01*
X157151200Y-109860800D02*
X156340000Y-109049600D01*
X156340000Y-108246700D02*
X155488300Y-107395000D01*
X155488300Y-107395000D02*
X154651600Y-107395000D01*
%TO.N,/MOTOR2_CTRL1*%
X153323200Y-92427000D02*
X153081000Y-92184800D01*
X153235800Y-104243400D02*
X153323200Y-104156000D01*
X153323200Y-104156000D02*
X153323200Y-92427000D01*
%TO.N,/MOTOR1_CTRL1*%
X132210000Y-92497200D02*
X134261800Y-90445400D01*
X132210000Y-106125000D02*
X132210000Y-92497200D01*
X142170700Y-82602400D02*
X139517800Y-85255300D01*
X139517800Y-85255300D02*
X139517800Y-90196500D01*
%TO.N,/MOTOR2_B_OUT*%
X135228300Y-85334900D02*
X135228300Y-101938900D01*
X135228300Y-101938900D02*
X136667800Y-103378400D01*
X136667800Y-104974800D02*
X136067600Y-105575000D01*
X136667800Y-103378400D02*
X136667800Y-104974800D01*
X136067600Y-105575000D02*
X136067600Y-110689800D01*
%TO.N,/MOTOR1_CTRL2*%
X129670000Y-106125000D02*
X129670000Y-89366900D01*
X135202200Y-83834700D02*
X135202200Y-80965300D01*
X129670000Y-89366900D02*
X135202200Y-83834700D01*
%TO.N,/MOTOR2_A_OUT*%
X154566700Y-103559900D02*
X154566700Y-91561400D01*
X154566700Y-91561400D02*
X154645500Y-91482600D01*
%TO.N,/I2C1_SDA*%
X144622100Y-107513300D02*
X143561400Y-106452600D01*
X144910000Y-107513300D02*
X144622100Y-107513300D01*
X143561400Y-106452600D02*
X143561400Y-102718800D01*
X143561400Y-102718800D02*
X143495200Y-102652600D01*
X144910000Y-108665000D02*
X144910000Y-107513300D01*
%TO.N,/I2C1_SCL*%
X147450000Y-104973300D02*
X144486000Y-102009300D01*
X147450000Y-106125000D02*
X147450000Y-104973300D01*
X144486000Y-102009300D02*
X142992500Y-102009300D01*
%TO.N,IC2*%
X131364100Y-80040800D02*
X125486200Y-85918700D01*
X125486200Y-85918700D02*
X125486200Y-99824700D01*
%TO.N,/EXT_LOAD1_OUT*%
X116055000Y-97254200D02*
X116603700Y-97254200D01*
X116055000Y-96000000D02*
X116055000Y-97254200D01*
X116603700Y-97254200D02*
X117469200Y-98119700D01*
X117469200Y-98119700D02*
X117469200Y-110289600D01*
%TO.N,Net-(R28-Pad2)*%
X159473900Y-79776200D02*
X159999000Y-80301300D01*
X159473900Y-73300300D02*
X159473900Y-79776200D01*
%TO.N,/CTRL_EXT_LOAD2*%
X157610000Y-108665000D02*
X157610000Y-107513300D01*
X158761700Y-106649600D02*
X158761700Y-105247500D01*
X166173200Y-97836000D02*
X166173200Y-84914300D01*
X157898000Y-107513300D02*
X158761700Y-106649600D01*
X157610000Y-107513300D02*
X157898000Y-107513300D01*
X158761700Y-105247500D02*
X166173200Y-97836000D01*
%TO.N,/CTRL_EXT_LOAD1*%
X131732900Y-109883000D02*
X130997000Y-109147100D01*
X133598300Y-108952900D02*
X132668200Y-109883000D01*
X133598300Y-108665000D02*
X133598300Y-108952900D01*
X130997000Y-109147100D02*
X130997000Y-88912500D01*
X134750000Y-108665000D02*
X133598300Y-108665000D01*
X132668200Y-109883000D02*
X131732900Y-109883000D01*
%TO.N,3V3 Out*%
X163436900Y-65991400D02*
X163436900Y-95245400D01*
X146061700Y-106412900D02*
X146061700Y-106125000D01*
X147928200Y-107335100D02*
X146983900Y-107335100D01*
X167082100Y-62346200D02*
X163436900Y-65991400D01*
X163436900Y-95245400D02*
X164789500Y-96598000D01*
X138912600Y-83685000D02*
X138912600Y-101087000D01*
X138912600Y-101087000D02*
X140500400Y-102674800D01*
X144910000Y-106125000D02*
X144910000Y-104079900D01*
X172503900Y-70412500D02*
X172503900Y-67768000D01*
X149889800Y-97560500D02*
X148720000Y-98730300D01*
X148720000Y-106543300D02*
X147928200Y-107335100D01*
X146983900Y-107335100D02*
X146061700Y-106412900D01*
X144910000Y-106125000D02*
X146061700Y-106125000D01*
X148720000Y-98730300D02*
X148720000Y-106543300D01*
X172503900Y-67768000D02*
X167082100Y-62346200D01*
%TO.N,Net-(U2-~{CHRG})*%
X138300800Y-93238000D02*
X138300800Y-98385800D01*
X138300800Y-98385800D02*
X136840600Y-99846000D01*
%TO.N,9V*%
X135687100Y-100830400D02*
X139830000Y-104973300D01*
X135830000Y-74295800D02*
X135830000Y-94343200D01*
X135830000Y-94343200D02*
X135687100Y-94486100D01*
X135034200Y-73500000D02*
X135830000Y-74295800D01*
X135034200Y-70845700D02*
X126667800Y-62479300D01*
X135687100Y-94486100D02*
X135687100Y-100830400D01*
X135034200Y-73500000D02*
X135034200Y-70845700D01*
X139830000Y-106125000D02*
X139830000Y-104973300D01*
%TO.N,5V*%
X124542400Y-91305200D02*
X124542400Y-82257100D01*
%TO.N,GND*%
X140800000Y-99300000D02*
X141500000Y-99300000D01*
X141500000Y-98100000D02*
X142500000Y-97100000D01*
X142082100Y-107513300D02*
X141189600Y-106620800D01*
X164000000Y-91500000D02*
X164000000Y-93000000D01*
X142500000Y-88000000D02*
X142500000Y-86500000D01*
X144000000Y-88000000D02*
X144000000Y-86500000D01*
X141189600Y-100810400D02*
X141500000Y-100500000D01*
X122022800Y-106477200D02*
X122022800Y-98865000D01*
X165500000Y-93000000D02*
X165500000Y-97658300D01*
X141189600Y-106620800D02*
X141189600Y-100810400D01*
X164000000Y-90000000D02*
X164000000Y-91500000D01*
X164750000Y-91500000D02*
X164000000Y-91500000D01*
X142370000Y-108665000D02*
X142370000Y-107513300D01*
X141500000Y-98100000D02*
X141500000Y-99300000D01*
X142370000Y-107513300D02*
X142082100Y-107513300D01*
X140100000Y-100500000D02*
X140100000Y-99300000D01*
X144000000Y-86500000D02*
X144000000Y-85000000D01*
X121000000Y-107500000D02*
X122022800Y-106477200D01*
X165500000Y-97658300D02*
X163830300Y-99328000D01*
X142500000Y-97100000D02*
X142500000Y-88000000D01*
X143250000Y-86500000D02*
X144000000Y-86500000D01*
X140100000Y-98100000D02*
X140100000Y-99300000D01*
X141500000Y-99300000D02*
X141500000Y-100500000D01*
%TO.N,3.7V_out*%
X149990000Y-106125000D02*
X149990000Y-104973300D01*
X116000000Y-78000000D02*
X116000000Y-79201700D01*
X150758100Y-80182500D02*
X152021700Y-78918900D01*
X152021700Y-74150700D02*
X152021700Y-68155000D01*
X150758100Y-80182500D02*
X150491600Y-80449000D01*
X119405700Y-82607400D02*
X119405700Y-101360000D01*
X150491600Y-104471700D02*
X149990000Y-104973300D01*
X150491600Y-80449000D02*
X150491600Y-104471700D01*
X152021700Y-78918900D02*
X152021700Y-74150700D01*
X116000000Y-79201700D02*
X119405700Y-82607400D01*
D24*
%TO.N,Net-(L2-Pad1)*%
X151000000Y-79010811D02*
X150615500Y-79395311D01*
X151000000Y-76500000D02*
X151000000Y-79010811D01*
D23*
%TO.N,5V Out*%
X150015500Y-92227500D02*
X150015500Y-77635900D01*
X142370000Y-106125000D02*
X142370000Y-104973300D01*
X142370000Y-99873000D02*
X150015500Y-92227500D01*
X142370000Y-104973300D02*
X142370000Y-99873000D01*
%TD*%
%TA.AperFunction,Conductor*%
%TO.N,GND*%
G36*
X184592539Y-58520185D02*
G01*
X184638294Y-58572989D01*
X184649500Y-58624500D01*
X184649500Y-103211324D01*
X184629815Y-103278363D01*
X184613181Y-103299005D01*
X174979005Y-112933181D01*
X174917682Y-112966666D01*
X174891324Y-112969500D01*
X170221207Y-112969500D01*
X170154168Y-112949815D01*
X170108413Y-112897011D01*
X170098469Y-112827853D01*
X170127494Y-112764297D01*
X170152316Y-112742398D01*
X170196448Y-112712909D01*
X170257989Y-112671789D01*
X170369489Y-112560289D01*
X170457094Y-112429179D01*
X170517437Y-112283497D01*
X170548200Y-112128842D01*
X170548200Y-111971158D01*
X170548200Y-111971155D01*
X170548199Y-111971153D01*
X170517438Y-111816510D01*
X170517437Y-111816503D01*
X170517435Y-111816498D01*
X170457097Y-111670827D01*
X170457090Y-111670814D01*
X170369098Y-111539125D01*
X170348220Y-111472447D01*
X170348200Y-111470234D01*
X170348200Y-92404765D01*
X170367885Y-92337726D01*
X170369098Y-92335874D01*
X170457090Y-92204185D01*
X170457090Y-92204184D01*
X170457094Y-92204179D01*
X170517437Y-92058497D01*
X170527680Y-92007000D01*
X170529145Y-91999635D01*
X177499500Y-91999635D01*
X177499500Y-94000370D01*
X177499501Y-94000376D01*
X177505908Y-94059983D01*
X177556202Y-94194828D01*
X177556206Y-94194835D01*
X177642452Y-94310044D01*
X177642455Y-94310047D01*
X177757664Y-94396293D01*
X177757669Y-94396296D01*
X177785539Y-94406690D01*
X177841473Y-94448561D01*
X177865891Y-94514024D01*
X177851040Y-94582298D01*
X177842525Y-94595759D01*
X177709783Y-94778461D01*
X177605950Y-94982244D01*
X177535278Y-95199750D01*
X177535278Y-95199753D01*
X177525699Y-95260235D01*
X177499500Y-95425646D01*
X177499500Y-95654354D01*
X177501042Y-95664089D01*
X177535278Y-95880246D01*
X177535278Y-95880249D01*
X177605950Y-96097755D01*
X177709783Y-96301538D01*
X177844214Y-96486566D01*
X178005934Y-96648286D01*
X178041303Y-96673983D01*
X178090438Y-96709682D01*
X178133103Y-96765013D01*
X178139082Y-96834626D01*
X178106476Y-96896421D01*
X178090438Y-96910318D01*
X178005932Y-96971715D01*
X177844216Y-97133431D01*
X177844216Y-97133432D01*
X177844214Y-97133434D01*
X177809427Y-97181314D01*
X177709783Y-97318461D01*
X177605950Y-97522244D01*
X177535278Y-97739750D01*
X177535278Y-97739753D01*
X177509060Y-97905288D01*
X177499500Y-97965646D01*
X177499500Y-98194354D01*
X177500394Y-98200000D01*
X177535278Y-98420246D01*
X177535278Y-98420249D01*
X177605950Y-98637755D01*
X177696446Y-98815362D01*
X177709783Y-98841538D01*
X177844214Y-99026566D01*
X178005934Y-99188286D01*
X178190962Y-99322717D01*
X178356210Y-99406915D01*
X178394744Y-99426549D01*
X178612251Y-99497221D01*
X178612252Y-99497221D01*
X178612255Y-99497222D01*
X178838146Y-99533000D01*
X178838147Y-99533000D01*
X179161853Y-99533000D01*
X179161854Y-99533000D01*
X179387745Y-99497222D01*
X179387748Y-99497221D01*
X179387749Y-99497221D01*
X179605255Y-99426549D01*
X179605255Y-99426548D01*
X179605258Y-99426548D01*
X179809038Y-99322717D01*
X179994066Y-99188286D01*
X180155786Y-99026566D01*
X180290217Y-98841538D01*
X180394048Y-98637758D01*
X180410660Y-98586631D01*
X180464721Y-98420249D01*
X180464721Y-98420248D01*
X180464722Y-98420245D01*
X180500500Y-98194354D01*
X180500500Y-97965646D01*
X180464722Y-97739755D01*
X180464721Y-97739751D01*
X180464721Y-97739750D01*
X180394049Y-97522244D01*
X180364190Y-97463642D01*
X180290217Y-97318462D01*
X180155786Y-97133434D01*
X179994066Y-96971714D01*
X179909559Y-96910316D01*
X179866896Y-96854988D01*
X179860917Y-96785375D01*
X179893523Y-96723580D01*
X179909556Y-96709685D01*
X179994066Y-96648286D01*
X180155786Y-96486566D01*
X180290217Y-96301538D01*
X180394048Y-96097758D01*
X180411687Y-96043472D01*
X180464721Y-95880249D01*
X180464721Y-95880248D01*
X180464722Y-95880245D01*
X180500500Y-95654354D01*
X180500500Y-95425646D01*
X180464722Y-95199755D01*
X180464721Y-95199751D01*
X180464721Y-95199750D01*
X180394049Y-94982244D01*
X180363302Y-94921899D01*
X180290217Y-94778462D01*
X180157472Y-94595755D01*
X180133994Y-94529953D01*
X180149819Y-94461899D01*
X180199925Y-94413204D01*
X180214455Y-94406692D01*
X180242331Y-94396296D01*
X180357546Y-94310046D01*
X180443796Y-94194831D01*
X180494091Y-94059983D01*
X180500500Y-94000373D01*
X180500499Y-91999628D01*
X180494091Y-91940017D01*
X180489337Y-91927272D01*
X180443797Y-91805171D01*
X180443793Y-91805164D01*
X180357547Y-91689955D01*
X180357544Y-91689952D01*
X180242335Y-91603706D01*
X180242328Y-91603702D01*
X180107482Y-91553408D01*
X180107483Y-91553408D01*
X180047883Y-91547001D01*
X180047881Y-91547000D01*
X180047873Y-91547000D01*
X180047864Y-91547000D01*
X177952129Y-91547000D01*
X177952123Y-91547001D01*
X177892516Y-91553408D01*
X177757671Y-91603702D01*
X177757664Y-91603706D01*
X177642455Y-91689952D01*
X177642452Y-91689955D01*
X177556206Y-91805164D01*
X177556202Y-91805171D01*
X177505908Y-91940017D01*
X177499501Y-91999616D01*
X177499501Y-91999623D01*
X177499500Y-91999635D01*
X170529145Y-91999635D01*
X170534620Y-91972115D01*
X170534620Y-91972114D01*
X170548200Y-91903844D01*
X170548200Y-91746155D01*
X170548199Y-91746153D01*
X170536092Y-91685289D01*
X170517437Y-91591503D01*
X170504986Y-91561444D01*
X170457097Y-91445827D01*
X170457090Y-91445814D01*
X170369489Y-91314711D01*
X170369486Y-91314707D01*
X170257992Y-91203213D01*
X170257988Y-91203210D01*
X170126885Y-91115609D01*
X170126872Y-91115602D01*
X169981201Y-91055264D01*
X169981189Y-91055261D01*
X169914784Y-91042052D01*
X169852873Y-91009667D01*
X169818299Y-90948951D01*
X169817356Y-90944617D01*
X169816737Y-90941504D01*
X169816736Y-90941501D01*
X169814544Y-90936210D01*
X169801651Y-90905082D01*
X169756397Y-90795827D01*
X169756390Y-90795814D01*
X169668789Y-90664711D01*
X169668786Y-90664707D01*
X169557292Y-90553213D01*
X169557288Y-90553210D01*
X169426185Y-90465609D01*
X169426172Y-90465602D01*
X169280501Y-90405264D01*
X169280489Y-90405261D01*
X169125845Y-90374500D01*
X169125842Y-90374500D01*
X168968158Y-90374500D01*
X168968155Y-90374500D01*
X168813510Y-90405261D01*
X168813498Y-90405264D01*
X168667827Y-90465602D01*
X168667814Y-90465609D01*
X168536711Y-90553210D01*
X168536707Y-90553213D01*
X168425213Y-90664707D01*
X168425210Y-90664711D01*
X168337609Y-90795814D01*
X168337602Y-90795827D01*
X168277264Y-90941498D01*
X168277261Y-90941510D01*
X168246500Y-91096153D01*
X168246500Y-91253846D01*
X168277261Y-91408489D01*
X168277264Y-91408501D01*
X168337602Y-91554172D01*
X168337609Y-91554185D01*
X168425602Y-91685874D01*
X168446480Y-91752551D01*
X168446500Y-91754765D01*
X168446500Y-106674602D01*
X168426815Y-106741641D01*
X168410181Y-106762283D01*
X166792180Y-108380284D01*
X166730857Y-108413769D01*
X166661165Y-108408785D01*
X166605232Y-108366913D01*
X166580815Y-108301449D01*
X166580499Y-108292603D01*
X166580499Y-107767129D01*
X166580498Y-107767123D01*
X166580457Y-107766745D01*
X166574091Y-107707517D01*
X166572709Y-107703813D01*
X166523797Y-107572671D01*
X166523793Y-107572664D01*
X166437547Y-107457455D01*
X166437544Y-107457452D01*
X166322335Y-107371206D01*
X166322328Y-107371202D01*
X166190917Y-107322189D01*
X166134983Y-107280318D01*
X166110566Y-107214853D01*
X166125418Y-107146580D01*
X166146563Y-107118332D01*
X166260104Y-107004792D01*
X166266302Y-106996262D01*
X166385048Y-106832820D01*
X166385047Y-106832820D01*
X166385051Y-106832816D01*
X166481557Y-106643412D01*
X166547246Y-106441243D01*
X166580500Y-106231287D01*
X166580500Y-106018713D01*
X166547246Y-105808757D01*
X166481557Y-105606588D01*
X166385051Y-105417184D01*
X166385049Y-105417181D01*
X166385048Y-105417179D01*
X166260109Y-105245213D01*
X166109786Y-105094890D01*
X165937820Y-104969951D01*
X165748414Y-104873444D01*
X165748413Y-104873443D01*
X165748412Y-104873443D01*
X165546243Y-104807754D01*
X165546241Y-104807753D01*
X165546240Y-104807753D01*
X165384957Y-104782208D01*
X165336287Y-104774500D01*
X165123713Y-104774500D01*
X165084202Y-104780757D01*
X164913759Y-104807753D01*
X164722818Y-104869794D01*
X164652977Y-104871789D01*
X164593144Y-104835709D01*
X164562316Y-104773008D01*
X164560500Y-104751863D01*
X164560500Y-102527997D01*
X164580185Y-102460958D01*
X164596819Y-102440316D01*
X165950159Y-101086976D01*
X167388520Y-99648616D01*
X167467577Y-99511684D01*
X167508501Y-99358957D01*
X167508501Y-99200842D01*
X167508501Y-99193247D01*
X167508500Y-99193229D01*
X167508500Y-88679765D01*
X167528185Y-88612726D01*
X167529398Y-88610874D01*
X167617390Y-88479185D01*
X167617390Y-88479184D01*
X167617394Y-88479179D01*
X167620188Y-88472435D01*
X167635231Y-88436116D01*
X167677737Y-88333497D01*
X167708500Y-88178842D01*
X167708500Y-88021158D01*
X167708500Y-88021155D01*
X167708499Y-88021153D01*
X167677738Y-87866510D01*
X167677737Y-87866503D01*
X167664712Y-87835057D01*
X167617397Y-87720827D01*
X167617390Y-87720814D01*
X167529789Y-87589711D01*
X167529786Y-87589707D01*
X167418292Y-87478213D01*
X167418288Y-87478210D01*
X167287185Y-87390609D01*
X167287172Y-87390602D01*
X167141501Y-87330264D01*
X167141489Y-87330261D01*
X166986845Y-87299500D01*
X166986842Y-87299500D01*
X166897700Y-87299500D01*
X166830661Y-87279815D01*
X166784906Y-87227011D01*
X166773700Y-87175500D01*
X166773700Y-85494065D01*
X166793385Y-85427026D01*
X166794598Y-85425174D01*
X166802890Y-85412765D01*
X166882594Y-85293479D01*
X166942937Y-85147797D01*
X166973700Y-84993142D01*
X166973700Y-84835458D01*
X166973700Y-84835455D01*
X166973699Y-84835453D01*
X166962915Y-84781240D01*
X166942937Y-84680803D01*
X166904637Y-84588338D01*
X166882597Y-84535127D01*
X166882590Y-84535114D01*
X166794989Y-84404011D01*
X166794986Y-84404007D01*
X166683492Y-84292513D01*
X166683488Y-84292510D01*
X166552385Y-84204909D01*
X166552372Y-84204902D01*
X166406701Y-84144564D01*
X166406689Y-84144561D01*
X166252045Y-84113800D01*
X166252042Y-84113800D01*
X166094358Y-84113800D01*
X166094355Y-84113800D01*
X165939710Y-84144561D01*
X165939698Y-84144564D01*
X165794027Y-84204902D01*
X165794014Y-84204909D01*
X165662911Y-84292510D01*
X165662907Y-84292513D01*
X165551413Y-84404007D01*
X165551410Y-84404011D01*
X165463809Y-84535114D01*
X165463802Y-84535127D01*
X165403464Y-84680798D01*
X165403461Y-84680810D01*
X165372700Y-84835453D01*
X165372700Y-84993146D01*
X165403461Y-85147789D01*
X165403464Y-85147801D01*
X165463802Y-85293472D01*
X165463809Y-85293485D01*
X165551802Y-85425174D01*
X165572680Y-85491851D01*
X165572700Y-85494065D01*
X165572700Y-89126000D01*
X165553015Y-89193039D01*
X165500211Y-89238794D01*
X165448700Y-89250000D01*
X165426128Y-89250000D01*
X165281240Y-89278820D01*
X165281228Y-89278823D01*
X165175974Y-89322420D01*
X165175974Y-89322421D01*
X165536381Y-89682827D01*
X165551084Y-89709754D01*
X165567677Y-89735573D01*
X165568568Y-89741773D01*
X165569866Y-89744150D01*
X165572700Y-89770508D01*
X165572700Y-89875938D01*
X165560138Y-89918717D01*
X165556645Y-89915224D01*
X165519891Y-89900000D01*
X165480109Y-89900000D01*
X165443355Y-89915224D01*
X165415224Y-89943355D01*
X165400000Y-89980109D01*
X165400000Y-90019891D01*
X165415224Y-90056645D01*
X165443355Y-90084776D01*
X165480109Y-90100000D01*
X165519891Y-90100000D01*
X165556645Y-90084776D01*
X165561658Y-90079762D01*
X165567677Y-90089127D01*
X165568568Y-90095327D01*
X165569866Y-90097704D01*
X165572700Y-90124062D01*
X165572700Y-90229491D01*
X165553015Y-90296530D01*
X165536381Y-90317172D01*
X165175974Y-90677577D01*
X165185568Y-90725808D01*
X165185568Y-90774190D01*
X165175974Y-90822421D01*
X165536381Y-91182827D01*
X165551084Y-91209754D01*
X165567677Y-91235573D01*
X165568568Y-91241773D01*
X165569866Y-91244150D01*
X165572700Y-91270508D01*
X165572700Y-91375938D01*
X165560138Y-91418717D01*
X165556645Y-91415224D01*
X165519891Y-91400000D01*
X165480109Y-91400000D01*
X165443355Y-91415224D01*
X165415224Y-91443355D01*
X165400000Y-91480109D01*
X165400000Y-91519891D01*
X165415224Y-91556645D01*
X165443355Y-91584776D01*
X165480109Y-91600000D01*
X165519891Y-91600000D01*
X165556645Y-91584776D01*
X165561658Y-91579762D01*
X165567677Y-91589127D01*
X165568568Y-91595327D01*
X165569866Y-91597704D01*
X165572700Y-91624062D01*
X165572700Y-91729491D01*
X165553015Y-91796530D01*
X165536381Y-91817172D01*
X165175974Y-92177577D01*
X165185568Y-92225808D01*
X165185568Y-92274190D01*
X165175974Y-92322421D01*
X165536381Y-92682827D01*
X165551084Y-92709754D01*
X165567677Y-92735573D01*
X165568568Y-92741773D01*
X165569866Y-92744150D01*
X165572700Y-92770508D01*
X165572700Y-92875938D01*
X165560138Y-92918717D01*
X165556645Y-92915224D01*
X165519891Y-92900000D01*
X165480109Y-92900000D01*
X165443355Y-92915224D01*
X165415224Y-92943355D01*
X165400000Y-92980109D01*
X165400000Y-93019891D01*
X165415224Y-93056645D01*
X165443355Y-93084776D01*
X165480109Y-93100000D01*
X165519891Y-93100000D01*
X165556645Y-93084776D01*
X165561658Y-93079762D01*
X165567677Y-93089127D01*
X165568568Y-93095327D01*
X165569866Y-93097704D01*
X165572700Y-93124062D01*
X165572700Y-93229491D01*
X165553015Y-93296530D01*
X165536381Y-93317172D01*
X165175975Y-93677577D01*
X165281236Y-93721178D01*
X165281240Y-93721179D01*
X165426126Y-93749999D01*
X165426129Y-93750000D01*
X165448700Y-93750000D01*
X165515739Y-93769685D01*
X165561494Y-93822489D01*
X165572700Y-93874000D01*
X165572700Y-95949759D01*
X165553015Y-96016798D01*
X165500211Y-96062553D01*
X165431053Y-96072497D01*
X165367497Y-96043472D01*
X165361019Y-96037440D01*
X165299792Y-95976213D01*
X165299788Y-95976210D01*
X165168685Y-95888609D01*
X165168672Y-95888602D01*
X165023001Y-95828264D01*
X165022991Y-95828261D01*
X164867649Y-95797361D01*
X164805738Y-95764976D01*
X164804160Y-95763425D01*
X164073719Y-95032984D01*
X164040234Y-94971661D01*
X164037400Y-94945303D01*
X164037400Y-93859018D01*
X164057085Y-93791979D01*
X164109889Y-93746224D01*
X164137209Y-93737401D01*
X164218760Y-93721179D01*
X164218775Y-93721175D01*
X164324024Y-93677578D01*
X164324024Y-93677577D01*
X164073719Y-93427272D01*
X164040234Y-93365949D01*
X164037400Y-93339591D01*
X164037400Y-93092747D01*
X164056645Y-93084776D01*
X164084776Y-93056645D01*
X164100000Y-93019891D01*
X164100000Y-92999999D01*
X164353554Y-92999999D01*
X164353554Y-93000001D01*
X164677576Y-93324023D01*
X164725807Y-93314430D01*
X164774191Y-93314430D01*
X164822422Y-93324024D01*
X165146446Y-93000000D01*
X165146446Y-92999999D01*
X164822421Y-92675974D01*
X164774190Y-92685568D01*
X164725808Y-92685568D01*
X164677577Y-92675974D01*
X164353554Y-92999999D01*
X164100000Y-92999999D01*
X164100000Y-92980109D01*
X164084776Y-92943355D01*
X164056645Y-92915224D01*
X164037400Y-92907252D01*
X164037400Y-92660407D01*
X164057085Y-92593368D01*
X164073719Y-92572726D01*
X164324023Y-92322421D01*
X164314430Y-92274191D01*
X164314430Y-92225807D01*
X164324023Y-92177576D01*
X164073719Y-91927272D01*
X164040234Y-91865949D01*
X164037400Y-91839591D01*
X164037400Y-91592747D01*
X164056645Y-91584776D01*
X164084776Y-91556645D01*
X164100000Y-91519891D01*
X164100000Y-91499999D01*
X164353554Y-91499999D01*
X164353554Y-91500001D01*
X164677576Y-91824023D01*
X164725807Y-91814430D01*
X164774191Y-91814430D01*
X164822422Y-91824024D01*
X165146446Y-91500000D01*
X165146446Y-91499999D01*
X164822421Y-91175974D01*
X164774190Y-91185568D01*
X164725808Y-91185568D01*
X164677577Y-91175974D01*
X164353554Y-91499999D01*
X164100000Y-91499999D01*
X164100000Y-91480109D01*
X164084776Y-91443355D01*
X164056645Y-91415224D01*
X164037400Y-91407252D01*
X164037400Y-91160407D01*
X164057085Y-91093368D01*
X164073719Y-91072726D01*
X164324023Y-90822421D01*
X164314430Y-90774191D01*
X164314430Y-90725807D01*
X164324023Y-90677576D01*
X164073719Y-90427272D01*
X164040234Y-90365949D01*
X164037400Y-90339591D01*
X164037400Y-90092747D01*
X164056645Y-90084776D01*
X164084776Y-90056645D01*
X164100000Y-90019891D01*
X164100000Y-89999999D01*
X164353554Y-89999999D01*
X164353554Y-90000001D01*
X164677576Y-90324023D01*
X164725807Y-90314430D01*
X164774191Y-90314430D01*
X164822422Y-90324024D01*
X165146446Y-90000000D01*
X165146446Y-89999999D01*
X164822421Y-89675974D01*
X164774190Y-89685568D01*
X164725808Y-89685568D01*
X164677577Y-89675974D01*
X164353554Y-89999999D01*
X164100000Y-89999999D01*
X164100000Y-89980109D01*
X164084776Y-89943355D01*
X164056645Y-89915224D01*
X164037400Y-89907252D01*
X164037400Y-89660407D01*
X164057085Y-89593368D01*
X164073719Y-89572726D01*
X164324023Y-89322421D01*
X164218767Y-89278822D01*
X164218761Y-89278820D01*
X164137208Y-89262598D01*
X164075297Y-89230213D01*
X164040723Y-89169497D01*
X164037400Y-89140981D01*
X164037400Y-66291497D01*
X164057085Y-66224458D01*
X164073719Y-66203816D01*
X166994419Y-63283116D01*
X167055742Y-63249631D01*
X167125434Y-63254615D01*
X167169781Y-63283116D01*
X171867081Y-67980416D01*
X171900566Y-68041739D01*
X171903400Y-68068097D01*
X171903400Y-69832734D01*
X171883715Y-69899773D01*
X171882502Y-69901625D01*
X171794509Y-70033314D01*
X171794502Y-70033327D01*
X171734164Y-70178998D01*
X171734161Y-70179010D01*
X171703400Y-70333653D01*
X171703400Y-70491346D01*
X171734161Y-70645989D01*
X171734164Y-70646001D01*
X171794502Y-70791672D01*
X171794509Y-70791685D01*
X171882110Y-70922788D01*
X171882113Y-70922792D01*
X171993607Y-71034286D01*
X171993611Y-71034289D01*
X172124714Y-71121890D01*
X172124727Y-71121897D01*
X172182428Y-71145797D01*
X172270403Y-71182237D01*
X172425053Y-71212999D01*
X172425056Y-71213000D01*
X172425058Y-71213000D01*
X172582744Y-71213000D01*
X172582745Y-71212999D01*
X172737397Y-71182237D01*
X172883079Y-71121894D01*
X173014189Y-71034289D01*
X173125689Y-70922789D01*
X173213294Y-70791679D01*
X173273637Y-70645997D01*
X173304400Y-70491342D01*
X173304400Y-70333658D01*
X173304400Y-70333655D01*
X173304399Y-70333653D01*
X173273637Y-70179003D01*
X173255230Y-70134564D01*
X173213297Y-70033327D01*
X173213290Y-70033314D01*
X173125298Y-69901625D01*
X173104420Y-69834947D01*
X173104400Y-69832734D01*
X173104400Y-67688945D01*
X173104400Y-67688943D01*
X173085838Y-67619669D01*
X173063477Y-67536215D01*
X173015260Y-67452701D01*
X172984420Y-67399284D01*
X172872616Y-67287480D01*
X172868285Y-67283149D01*
X172868274Y-67283139D01*
X167916674Y-62331539D01*
X167883189Y-62270216D01*
X167882738Y-62268049D01*
X167853858Y-62122863D01*
X167851837Y-62112703D01*
X167846628Y-62100127D01*
X167791497Y-61967027D01*
X167791490Y-61967014D01*
X167703889Y-61835911D01*
X167703886Y-61835907D01*
X167592392Y-61724413D01*
X167592388Y-61724410D01*
X167461285Y-61636809D01*
X167461272Y-61636802D01*
X167315601Y-61576464D01*
X167315589Y-61576461D01*
X167160945Y-61545700D01*
X167160942Y-61545700D01*
X167003258Y-61545700D01*
X167003255Y-61545700D01*
X166848610Y-61576461D01*
X166848598Y-61576464D01*
X166702927Y-61636802D01*
X166702914Y-61636809D01*
X166571811Y-61724410D01*
X166571807Y-61724413D01*
X166460313Y-61835907D01*
X166460310Y-61835911D01*
X166372709Y-61967014D01*
X166372702Y-61967027D01*
X166312364Y-62112698D01*
X166312361Y-62112708D01*
X166281461Y-62268050D01*
X166249076Y-62329961D01*
X166247525Y-62331539D01*
X162956381Y-65622682D01*
X162956375Y-65622690D01*
X162912031Y-65699498D01*
X162912031Y-65699499D01*
X162877323Y-65759614D01*
X162877323Y-65759615D01*
X162836399Y-65912343D01*
X162836399Y-65912345D01*
X162836399Y-66080446D01*
X162836400Y-66080459D01*
X162836400Y-95158730D01*
X162836399Y-95158748D01*
X162836399Y-95324454D01*
X162836398Y-95324454D01*
X162867959Y-95442242D01*
X162877323Y-95477185D01*
X162880644Y-95482937D01*
X162956377Y-95614112D01*
X162956381Y-95614117D01*
X163075249Y-95732985D01*
X163075255Y-95732990D01*
X163954925Y-96612660D01*
X163988410Y-96673983D01*
X163988861Y-96676149D01*
X164019761Y-96831491D01*
X164019764Y-96831501D01*
X164080102Y-96977172D01*
X164080109Y-96977185D01*
X164167710Y-97108288D01*
X164167713Y-97108292D01*
X164279207Y-97219786D01*
X164279211Y-97219789D01*
X164410314Y-97307390D01*
X164410327Y-97307397D01*
X164532853Y-97358148D01*
X164556003Y-97367737D01*
X164710653Y-97398499D01*
X164710656Y-97398500D01*
X164710658Y-97398500D01*
X164868344Y-97398500D01*
X164868345Y-97398499D01*
X165022997Y-97367737D01*
X165168679Y-97307394D01*
X165299789Y-97219789D01*
X165299792Y-97219786D01*
X165361019Y-97158560D01*
X165422342Y-97125075D01*
X165492034Y-97130059D01*
X165547967Y-97171931D01*
X165572384Y-97237395D01*
X165572700Y-97246241D01*
X165572700Y-97535903D01*
X165553015Y-97602942D01*
X165536381Y-97623584D01*
X161048681Y-102111284D01*
X160987358Y-102144769D01*
X160917666Y-102139785D01*
X160861733Y-102097913D01*
X160837316Y-102032449D01*
X160837000Y-102023603D01*
X160837000Y-89946265D01*
X160856685Y-89879226D01*
X160857898Y-89877374D01*
X160945890Y-89745685D01*
X160945890Y-89745684D01*
X160945894Y-89745679D01*
X160950438Y-89734710D01*
X160959567Y-89712666D01*
X161006237Y-89599997D01*
X161037000Y-89445342D01*
X161037000Y-89287658D01*
X161037000Y-89287655D01*
X161036999Y-89287653D01*
X161032015Y-89262598D01*
X161006237Y-89133003D01*
X160975325Y-89058374D01*
X160945897Y-88987327D01*
X160945890Y-88987314D01*
X160858289Y-88856211D01*
X160858286Y-88856207D01*
X160746792Y-88744713D01*
X160746788Y-88744710D01*
X160615685Y-88657109D01*
X160615672Y-88657102D01*
X160470001Y-88596764D01*
X160469989Y-88596761D01*
X160315345Y-88566000D01*
X160315342Y-88566000D01*
X160157658Y-88566000D01*
X160157655Y-88566000D01*
X160003010Y-88596761D01*
X160002998Y-88596764D01*
X159857327Y-88657102D01*
X159857314Y-88657109D01*
X159726211Y-88744710D01*
X159726207Y-88744713D01*
X159614713Y-88856207D01*
X159614710Y-88856211D01*
X159527109Y-88987314D01*
X159527102Y-88987327D01*
X159484098Y-89091152D01*
X159440258Y-89145556D01*
X159373964Y-89167621D01*
X159369537Y-89167700D01*
X159237155Y-89167700D01*
X159082510Y-89198461D01*
X159082498Y-89198464D01*
X158936827Y-89258802D01*
X158936814Y-89258809D01*
X158805711Y-89346410D01*
X158805707Y-89346413D01*
X158694213Y-89457907D01*
X158694210Y-89457911D01*
X158606609Y-89589014D01*
X158606602Y-89589027D01*
X158546264Y-89734698D01*
X158546261Y-89734710D01*
X158515500Y-89889353D01*
X158515500Y-90047046D01*
X158546261Y-90201689D01*
X158546264Y-90201701D01*
X158606602Y-90347372D01*
X158606609Y-90347385D01*
X158694602Y-90479074D01*
X158715480Y-90545751D01*
X158715500Y-90547965D01*
X158715500Y-100427202D01*
X158695815Y-100494241D01*
X158679181Y-100514883D01*
X155578881Y-103615183D01*
X155517558Y-103648668D01*
X155447866Y-103643684D01*
X155391933Y-103601812D01*
X155367516Y-103536348D01*
X155367200Y-103527502D01*
X155367200Y-103481055D01*
X155367199Y-103481053D01*
X155362636Y-103458113D01*
X155336437Y-103326403D01*
X155328096Y-103306265D01*
X155276097Y-103180727D01*
X155276090Y-103180714D01*
X155188098Y-103049025D01*
X155167220Y-102982347D01*
X155167200Y-102980134D01*
X155167200Y-92144340D01*
X155186885Y-92077301D01*
X155203514Y-92056663D01*
X155267289Y-91992889D01*
X155354894Y-91861779D01*
X155415237Y-91716097D01*
X155446000Y-91561442D01*
X155446000Y-91403758D01*
X155446000Y-91403755D01*
X155445999Y-91403753D01*
X155445252Y-91400000D01*
X155415237Y-91249103D01*
X155415235Y-91249098D01*
X155354897Y-91103427D01*
X155354890Y-91103414D01*
X155267289Y-90972311D01*
X155267286Y-90972307D01*
X155155792Y-90860813D01*
X155155788Y-90860810D01*
X155024685Y-90773209D01*
X155024672Y-90773202D01*
X154879001Y-90712864D01*
X154878989Y-90712861D01*
X154724345Y-90682100D01*
X154724342Y-90682100D01*
X154566658Y-90682100D01*
X154566656Y-90682100D01*
X154561029Y-90683219D01*
X154491438Y-90676989D01*
X154449161Y-90649282D01*
X154347792Y-90547913D01*
X154347788Y-90547910D01*
X154216685Y-90460309D01*
X154216672Y-90460302D01*
X154071001Y-90399964D01*
X154070989Y-90399961D01*
X153916345Y-90369200D01*
X153916342Y-90369200D01*
X153758658Y-90369200D01*
X153758655Y-90369200D01*
X153604010Y-90399961D01*
X153603998Y-90399964D01*
X153458327Y-90460302D01*
X153458314Y-90460309D01*
X153327211Y-90547910D01*
X153327207Y-90547913D01*
X153215713Y-90659407D01*
X153215710Y-90659411D01*
X153128109Y-90790514D01*
X153128102Y-90790527D01*
X153067764Y-90936198D01*
X153067761Y-90936210D01*
X153037000Y-91090853D01*
X153037000Y-91248544D01*
X153037459Y-91250852D01*
X153037348Y-91252084D01*
X153037597Y-91254607D01*
X153037118Y-91254654D01*
X153031230Y-91320443D01*
X152988366Y-91375619D01*
X152940033Y-91396657D01*
X152847508Y-91415061D01*
X152847498Y-91415064D01*
X152701827Y-91475402D01*
X152701814Y-91475409D01*
X152570711Y-91563010D01*
X152570707Y-91563013D01*
X152459213Y-91674507D01*
X152459210Y-91674511D01*
X152371609Y-91805614D01*
X152371602Y-91805627D01*
X152311264Y-91951298D01*
X152311261Y-91951310D01*
X152280500Y-92105953D01*
X152280500Y-92263646D01*
X152311261Y-92418289D01*
X152311264Y-92418301D01*
X152371602Y-92563972D01*
X152371609Y-92563985D01*
X152459210Y-92695088D01*
X152459213Y-92695092D01*
X152570707Y-92806586D01*
X152570715Y-92806592D01*
X152667590Y-92871322D01*
X152712396Y-92924934D01*
X152722700Y-92974424D01*
X152722700Y-94235614D01*
X152703015Y-94302653D01*
X152650211Y-94348408D01*
X152622892Y-94357231D01*
X152488008Y-94384061D01*
X152487998Y-94384064D01*
X152342327Y-94444402D01*
X152342314Y-94444409D01*
X152211211Y-94532010D01*
X152102667Y-94640554D01*
X152041344Y-94674038D01*
X151971652Y-94669054D01*
X151915719Y-94627182D01*
X151893369Y-94577064D01*
X151863938Y-94429108D01*
X151863937Y-94429107D01*
X151863937Y-94429103D01*
X151863935Y-94429098D01*
X151803597Y-94283427D01*
X151803590Y-94283414D01*
X151715989Y-94152311D01*
X151715986Y-94152307D01*
X151604492Y-94040813D01*
X151604488Y-94040810D01*
X151473385Y-93953209D01*
X151473372Y-93953202D01*
X151327701Y-93892864D01*
X151327691Y-93892861D01*
X151191908Y-93865852D01*
X151129997Y-93833467D01*
X151095423Y-93772751D01*
X151092100Y-93744235D01*
X151092100Y-80988361D01*
X151111785Y-80921322D01*
X151147209Y-80885259D01*
X151268389Y-80804289D01*
X151379886Y-80692792D01*
X151379889Y-80692789D01*
X151467494Y-80561679D01*
X151471881Y-80551089D01*
X151503377Y-80475048D01*
X151527837Y-80415997D01*
X151547735Y-80315962D01*
X151558738Y-80260650D01*
X151591123Y-80198739D01*
X151592620Y-80197214D01*
X152380206Y-79409627D01*
X152380211Y-79409624D01*
X152390414Y-79399420D01*
X152390416Y-79399420D01*
X152502220Y-79287616D01*
X152566835Y-79175699D01*
X152581277Y-79150685D01*
X152622200Y-78997958D01*
X152622200Y-78839843D01*
X152622200Y-74730465D01*
X152641885Y-74663426D01*
X152643098Y-74661574D01*
X152731090Y-74529885D01*
X152731090Y-74529884D01*
X152731094Y-74529879D01*
X152791437Y-74384197D01*
X152822200Y-74229542D01*
X152822200Y-74071858D01*
X152822200Y-74071855D01*
X152822199Y-74071853D01*
X152804032Y-73980521D01*
X152791437Y-73917203D01*
X152775137Y-73877851D01*
X152731097Y-73771527D01*
X152731090Y-73771514D01*
X152643098Y-73639825D01*
X152622220Y-73573147D01*
X152622200Y-73570934D01*
X152622200Y-73221453D01*
X158673400Y-73221453D01*
X158673400Y-73379146D01*
X158704161Y-73533789D01*
X158704164Y-73533801D01*
X158764502Y-73679472D01*
X158764509Y-73679485D01*
X158852502Y-73811174D01*
X158873380Y-73877851D01*
X158873400Y-73880065D01*
X158873400Y-79689530D01*
X158873399Y-79689548D01*
X158873399Y-79855254D01*
X158873398Y-79855254D01*
X158873399Y-79855257D01*
X158897983Y-79947006D01*
X158914323Y-80007984D01*
X158914324Y-80007987D01*
X158919587Y-80017102D01*
X158919588Y-80017104D01*
X158993377Y-80144912D01*
X158993381Y-80144917D01*
X159164426Y-80315962D01*
X159197911Y-80377285D01*
X159198362Y-80379451D01*
X159229261Y-80534791D01*
X159229264Y-80534801D01*
X159289602Y-80680472D01*
X159289609Y-80680485D01*
X159377210Y-80811588D01*
X159377213Y-80811592D01*
X159488707Y-80923086D01*
X159488711Y-80923089D01*
X159619814Y-81010690D01*
X159619827Y-81010697D01*
X159720750Y-81052500D01*
X159765503Y-81071037D01*
X159920153Y-81101799D01*
X159920156Y-81101800D01*
X159920158Y-81101800D01*
X160077844Y-81101800D01*
X160077845Y-81101799D01*
X160232497Y-81071037D01*
X160378179Y-81010694D01*
X160509289Y-80923089D01*
X160620789Y-80811589D01*
X160708394Y-80680479D01*
X160715806Y-80662586D01*
X160722067Y-80647466D01*
X160768737Y-80534797D01*
X160799500Y-80380142D01*
X160799500Y-80222458D01*
X160799500Y-80222455D01*
X160799499Y-80222453D01*
X160788031Y-80164800D01*
X160768737Y-80067803D01*
X160758032Y-80041958D01*
X160708397Y-79922127D01*
X160708390Y-79922114D01*
X160620789Y-79791011D01*
X160620786Y-79791007D01*
X160509292Y-79679513D01*
X160509288Y-79679510D01*
X160378185Y-79591909D01*
X160378172Y-79591902D01*
X160232501Y-79531564D01*
X160232491Y-79531561D01*
X160174208Y-79519968D01*
X160112297Y-79487583D01*
X160077723Y-79426867D01*
X160074400Y-79398351D01*
X160074400Y-73880065D01*
X160094085Y-73813026D01*
X160095298Y-73811174D01*
X160183290Y-73679485D01*
X160183290Y-73679484D01*
X160183294Y-73679479D01*
X160243637Y-73533797D01*
X160274400Y-73379142D01*
X160274400Y-73221458D01*
X160274400Y-73221455D01*
X160274399Y-73221453D01*
X160254382Y-73120821D01*
X160243637Y-73066803D01*
X160238270Y-73053846D01*
X160183297Y-72921127D01*
X160183290Y-72921114D01*
X160095689Y-72790011D01*
X160095686Y-72790007D01*
X159984192Y-72678513D01*
X159984188Y-72678510D01*
X159853085Y-72590909D01*
X159853072Y-72590902D01*
X159707401Y-72530564D01*
X159707389Y-72530561D01*
X159552745Y-72499800D01*
X159552742Y-72499800D01*
X159395058Y-72499800D01*
X159395055Y-72499800D01*
X159240410Y-72530561D01*
X159240398Y-72530564D01*
X159094727Y-72590902D01*
X159094714Y-72590909D01*
X158963611Y-72678510D01*
X158963607Y-72678513D01*
X158852113Y-72790007D01*
X158852110Y-72790011D01*
X158764509Y-72921114D01*
X158764502Y-72921127D01*
X158704164Y-73066798D01*
X158704161Y-73066810D01*
X158673400Y-73221453D01*
X152622200Y-73221453D01*
X152622200Y-68734765D01*
X152641885Y-68667726D01*
X152643098Y-68665874D01*
X152645653Y-68662051D01*
X152731094Y-68534179D01*
X152791437Y-68388497D01*
X152822200Y-68233842D01*
X152822200Y-68076158D01*
X152822200Y-68076155D01*
X152822199Y-68076153D01*
X152820597Y-68068097D01*
X152791437Y-67921503D01*
X152788491Y-67914390D01*
X152731097Y-67775827D01*
X152731090Y-67775814D01*
X152643489Y-67644711D01*
X152643486Y-67644707D01*
X152531992Y-67533213D01*
X152531988Y-67533210D01*
X152400885Y-67445609D01*
X152400872Y-67445602D01*
X152255201Y-67385264D01*
X152255189Y-67385261D01*
X152100545Y-67354500D01*
X152100542Y-67354500D01*
X151942858Y-67354500D01*
X151942855Y-67354500D01*
X151788210Y-67385261D01*
X151788198Y-67385264D01*
X151642527Y-67445602D01*
X151642514Y-67445609D01*
X151511411Y-67533210D01*
X151511407Y-67533213D01*
X151399913Y-67644707D01*
X151399910Y-67644711D01*
X151312309Y-67775814D01*
X151312302Y-67775827D01*
X151251964Y-67921498D01*
X151251961Y-67921510D01*
X151221200Y-68076153D01*
X151221200Y-68233846D01*
X151251961Y-68388489D01*
X151251964Y-68388501D01*
X151312302Y-68534172D01*
X151312309Y-68534185D01*
X151391295Y-68652395D01*
X151397747Y-68662051D01*
X151400302Y-68665874D01*
X151421180Y-68732551D01*
X151421200Y-68734765D01*
X151421200Y-73570934D01*
X151401515Y-73637973D01*
X151400302Y-73639825D01*
X151312309Y-73771514D01*
X151312302Y-73771527D01*
X151251964Y-73917198D01*
X151251961Y-73917210D01*
X151221200Y-74071853D01*
X151221200Y-74229546D01*
X151251961Y-74384189D01*
X151251964Y-74384201D01*
X151312302Y-74529872D01*
X151312309Y-74529885D01*
X151400302Y-74661574D01*
X151421180Y-74728251D01*
X151421200Y-74730465D01*
X151421200Y-75877888D01*
X151401515Y-75944927D01*
X151348711Y-75990682D01*
X151279553Y-76000626D01*
X151235201Y-75985276D01*
X151217451Y-75975028D01*
X151217452Y-75975028D01*
X151181630Y-75965429D01*
X151074168Y-75936635D01*
X150925832Y-75936635D01*
X150839862Y-75959670D01*
X150782547Y-75975028D01*
X150782546Y-75975029D01*
X150654089Y-76049193D01*
X150654084Y-76049197D01*
X150549197Y-76154084D01*
X150549193Y-76154089D01*
X150475029Y-76282546D01*
X150475028Y-76282547D01*
X150455831Y-76354190D01*
X150436635Y-76425832D01*
X150436635Y-76574168D01*
X150463843Y-76675707D01*
X150468068Y-76707801D01*
X150468068Y-76771325D01*
X150448383Y-76838364D01*
X150395579Y-76884119D01*
X150326421Y-76894063D01*
X150296617Y-76885887D01*
X150248997Y-76866163D01*
X150248989Y-76866161D01*
X150094345Y-76835400D01*
X150094342Y-76835400D01*
X149936658Y-76835400D01*
X149936655Y-76835400D01*
X149782010Y-76866161D01*
X149781998Y-76866164D01*
X149636327Y-76926502D01*
X149636314Y-76926509D01*
X149505211Y-77014110D01*
X149505207Y-77014113D01*
X149393713Y-77125607D01*
X149393710Y-77125611D01*
X149306109Y-77256714D01*
X149306102Y-77256727D01*
X149245764Y-77402398D01*
X149245761Y-77402410D01*
X149215000Y-77557053D01*
X149215000Y-77714746D01*
X149245761Y-77869389D01*
X149245764Y-77869401D01*
X149306102Y-78015072D01*
X149306109Y-78015085D01*
X149394102Y-78146774D01*
X149414980Y-78213451D01*
X149415000Y-78215665D01*
X149415000Y-91927401D01*
X149395315Y-91994440D01*
X149378681Y-92015082D01*
X142379157Y-99014605D01*
X142317834Y-99048090D01*
X142248142Y-99043106D01*
X142192209Y-99001234D01*
X142177856Y-98976029D01*
X142177577Y-98975974D01*
X141853554Y-99299999D01*
X141853554Y-99300001D01*
X141885977Y-99332424D01*
X141919462Y-99393747D01*
X141914478Y-99463439D01*
X141904217Y-99484578D01*
X141896487Y-99497276D01*
X141889480Y-99504284D01*
X141839704Y-99590500D01*
X141839002Y-99591715D01*
X141838980Y-99591752D01*
X141810423Y-99641214D01*
X141810423Y-99641215D01*
X141797803Y-99688314D01*
X141761438Y-99747974D01*
X141698591Y-99778503D01*
X141629215Y-99770208D01*
X141590347Y-99743901D01*
X141500000Y-99653554D01*
X141253554Y-99900000D01*
X141500000Y-100146446D01*
X141557819Y-100088627D01*
X141619142Y-100055142D01*
X141688834Y-100060126D01*
X141744767Y-100101998D01*
X141769184Y-100167462D01*
X141769500Y-100176308D01*
X141769500Y-100532692D01*
X141760855Y-100562132D01*
X141754332Y-100592119D01*
X141750577Y-100597134D01*
X141749815Y-100599731D01*
X141733181Y-100620373D01*
X141676777Y-100676777D01*
X141175975Y-101177577D01*
X141281236Y-101221178D01*
X141281240Y-101221179D01*
X141426126Y-101249999D01*
X141426129Y-101250000D01*
X141573871Y-101250000D01*
X141621308Y-101240564D01*
X141690900Y-101246791D01*
X141746077Y-101289654D01*
X141769322Y-101355543D01*
X141769500Y-101362181D01*
X141769500Y-104839281D01*
X141749815Y-104906320D01*
X141701795Y-104949765D01*
X141662185Y-104969947D01*
X141662184Y-104969948D01*
X141490213Y-105094890D01*
X141339890Y-105245213D01*
X141214949Y-105417182D01*
X141210484Y-105425946D01*
X141162509Y-105476742D01*
X141094688Y-105493536D01*
X141028553Y-105470998D01*
X140989516Y-105425946D01*
X140985050Y-105417182D01*
X140860109Y-105245213D01*
X140709786Y-105094890D01*
X140537819Y-104969951D01*
X140537818Y-104969950D01*
X140537816Y-104969949D01*
X140486214Y-104943656D01*
X140435419Y-104895682D01*
X140422735Y-104865265D01*
X140422572Y-104864657D01*
X140389577Y-104741516D01*
X140389573Y-104741509D01*
X140310524Y-104604590D01*
X140310521Y-104604586D01*
X140310520Y-104604584D01*
X140198716Y-104492780D01*
X140198715Y-104492779D01*
X140194385Y-104488449D01*
X140194374Y-104488439D01*
X136539844Y-100833909D01*
X136506359Y-100772586D01*
X136511343Y-100702894D01*
X136553215Y-100646961D01*
X136618679Y-100622544D01*
X136651714Y-100624610D01*
X136691379Y-100632500D01*
X136761755Y-100646500D01*
X136761758Y-100646500D01*
X136919444Y-100646500D01*
X136919445Y-100646499D01*
X137074097Y-100615737D01*
X137219779Y-100555394D01*
X137350889Y-100467789D01*
X137462389Y-100356289D01*
X137549994Y-100225179D01*
X137610337Y-100079497D01*
X137634659Y-99957222D01*
X137641238Y-99924150D01*
X137673623Y-99862239D01*
X137675118Y-99860716D01*
X138100419Y-99435416D01*
X138161742Y-99401931D01*
X138231434Y-99406915D01*
X138287367Y-99448787D01*
X138311784Y-99514251D01*
X138312100Y-99523097D01*
X138312100Y-101000330D01*
X138312099Y-101000348D01*
X138312099Y-101166054D01*
X138312098Y-101166054D01*
X138353023Y-101318785D01*
X138374245Y-101355543D01*
X138376126Y-101358800D01*
X138428620Y-101449723D01*
X138432079Y-101455714D01*
X138432081Y-101455717D01*
X138550949Y-101574585D01*
X138550955Y-101574590D01*
X139665825Y-102689460D01*
X139699310Y-102750783D01*
X139699761Y-102752949D01*
X139730661Y-102908291D01*
X139730664Y-102908301D01*
X139791002Y-103053972D01*
X139791009Y-103053985D01*
X139878610Y-103185088D01*
X139878613Y-103185092D01*
X139990107Y-103296586D01*
X139990111Y-103296589D01*
X140121214Y-103384190D01*
X140121227Y-103384197D01*
X140249815Y-103437459D01*
X140266903Y-103444537D01*
X140399282Y-103470869D01*
X140421553Y-103475299D01*
X140421556Y-103475300D01*
X140421558Y-103475300D01*
X140579244Y-103475300D01*
X140579245Y-103475299D01*
X140733897Y-103444537D01*
X140879579Y-103384194D01*
X141010689Y-103296589D01*
X141122189Y-103185089D01*
X141209794Y-103053979D01*
X141218990Y-103031779D01*
X141267432Y-102914827D01*
X141270137Y-102908297D01*
X141300900Y-102753642D01*
X141300900Y-102595958D01*
X141300900Y-102595955D01*
X141300899Y-102595953D01*
X141270137Y-102441303D01*
X141221120Y-102322964D01*
X141209797Y-102295627D01*
X141209790Y-102295614D01*
X141122189Y-102164511D01*
X141122186Y-102164507D01*
X141010692Y-102053013D01*
X141010688Y-102053010D01*
X140879585Y-101965409D01*
X140879572Y-101965402D01*
X140733901Y-101905064D01*
X140733891Y-101905061D01*
X140578549Y-101874161D01*
X140516638Y-101841776D01*
X140515060Y-101840225D01*
X140130192Y-101455357D01*
X140096707Y-101394034D01*
X140101691Y-101324342D01*
X140143563Y-101268409D01*
X140193682Y-101246059D01*
X140318760Y-101221179D01*
X140318775Y-101221175D01*
X140424024Y-101177578D01*
X140424024Y-101177577D01*
X139923223Y-100676777D01*
X139726555Y-100480109D01*
X140000000Y-100480109D01*
X140000000Y-100519891D01*
X140015224Y-100556645D01*
X140043355Y-100584776D01*
X140080109Y-100600000D01*
X140119891Y-100600000D01*
X140156645Y-100584776D01*
X140184776Y-100556645D01*
X140200000Y-100519891D01*
X140200000Y-100499999D01*
X140453554Y-100499999D01*
X140453554Y-100500001D01*
X140777929Y-100824376D01*
X140822069Y-100824376D01*
X141146446Y-100500000D01*
X141126555Y-100480109D01*
X141400000Y-100480109D01*
X141400000Y-100519891D01*
X141415224Y-100556645D01*
X141443355Y-100584776D01*
X141480109Y-100600000D01*
X141519891Y-100600000D01*
X141556645Y-100584776D01*
X141584776Y-100556645D01*
X141600000Y-100519891D01*
X141600000Y-100480109D01*
X141584776Y-100443355D01*
X141556645Y-100415224D01*
X141519891Y-100400000D01*
X141480109Y-100400000D01*
X141443355Y-100415224D01*
X141415224Y-100443355D01*
X141400000Y-100480109D01*
X141126555Y-100480109D01*
X140822068Y-100175622D01*
X140777930Y-100175622D01*
X140453554Y-100499999D01*
X140200000Y-100499999D01*
X140200000Y-100480109D01*
X140184776Y-100443355D01*
X140156645Y-100415224D01*
X140119891Y-100400000D01*
X140080109Y-100400000D01*
X140043355Y-100415224D01*
X140015224Y-100443355D01*
X140000000Y-100480109D01*
X139726555Y-100480109D01*
X139549419Y-100302973D01*
X139515934Y-100241650D01*
X139513100Y-100215292D01*
X139513100Y-99900000D01*
X139853554Y-99900000D01*
X140100000Y-100146446D01*
X140346446Y-99900000D01*
X140100000Y-99653554D01*
X139853554Y-99900000D01*
X139513100Y-99900000D01*
X139513100Y-99584708D01*
X139532785Y-99517669D01*
X139549419Y-99497027D01*
X139746446Y-99300000D01*
X139726555Y-99280109D01*
X140000000Y-99280109D01*
X140000000Y-99319891D01*
X140015224Y-99356645D01*
X140043355Y-99384776D01*
X140080109Y-99400000D01*
X140119891Y-99400000D01*
X140156645Y-99384776D01*
X140184776Y-99356645D01*
X140200000Y-99319891D01*
X140200000Y-99299999D01*
X140453554Y-99299999D01*
X140453554Y-99300001D01*
X140777929Y-99624376D01*
X140822069Y-99624376D01*
X141146446Y-99300000D01*
X141126555Y-99280109D01*
X141400000Y-99280109D01*
X141400000Y-99319891D01*
X141415224Y-99356645D01*
X141443355Y-99384776D01*
X141480109Y-99400000D01*
X141519891Y-99400000D01*
X141556645Y-99384776D01*
X141584776Y-99356645D01*
X141600000Y-99319891D01*
X141600000Y-99280109D01*
X141584776Y-99243355D01*
X141556645Y-99215224D01*
X141519891Y-99200000D01*
X141480109Y-99200000D01*
X141443355Y-99215224D01*
X141415224Y-99243355D01*
X141400000Y-99280109D01*
X141126555Y-99280109D01*
X140822068Y-98975622D01*
X140777930Y-98975622D01*
X140453554Y-99299999D01*
X140200000Y-99299999D01*
X140200000Y-99280109D01*
X140184776Y-99243355D01*
X140156645Y-99215224D01*
X140119891Y-99200000D01*
X140080109Y-99200000D01*
X140043355Y-99215224D01*
X140015224Y-99243355D01*
X140000000Y-99280109D01*
X139726555Y-99280109D01*
X139549419Y-99102973D01*
X139515934Y-99041650D01*
X139513100Y-99015292D01*
X139513100Y-98700000D01*
X139853554Y-98700000D01*
X140100000Y-98946446D01*
X140346446Y-98700000D01*
X141253554Y-98700000D01*
X141500000Y-98946446D01*
X141746446Y-98700000D01*
X141500000Y-98453554D01*
X141253554Y-98700000D01*
X140346446Y-98700000D01*
X140100000Y-98453554D01*
X139853554Y-98700000D01*
X139513100Y-98700000D01*
X139513100Y-98384708D01*
X139532785Y-98317669D01*
X139549419Y-98297027D01*
X139766337Y-98080109D01*
X140000000Y-98080109D01*
X140000000Y-98119891D01*
X140015224Y-98156645D01*
X140043355Y-98184776D01*
X140080109Y-98200000D01*
X140119891Y-98200000D01*
X140156645Y-98184776D01*
X140184776Y-98156645D01*
X140200000Y-98119891D01*
X140200000Y-98099999D01*
X140453554Y-98099999D01*
X140453554Y-98100001D01*
X140777929Y-98424376D01*
X140822069Y-98424376D01*
X141146446Y-98100000D01*
X141126555Y-98080109D01*
X141400000Y-98080109D01*
X141400000Y-98119891D01*
X141415224Y-98156645D01*
X141443355Y-98184776D01*
X141480109Y-98200000D01*
X141519891Y-98200000D01*
X141556645Y-98184776D01*
X141584776Y-98156645D01*
X141600000Y-98119891D01*
X141600000Y-98099999D01*
X141853554Y-98099999D01*
X141853554Y-98100001D01*
X142177577Y-98424024D01*
X142177578Y-98424024D01*
X142221175Y-98318775D01*
X142221179Y-98318760D01*
X142249999Y-98173873D01*
X142250000Y-98173871D01*
X142250000Y-98026128D01*
X142249999Y-98026126D01*
X142221179Y-97881240D01*
X142221178Y-97881236D01*
X142177577Y-97775975D01*
X141853554Y-98099999D01*
X141600000Y-98099999D01*
X141600000Y-98080109D01*
X141584776Y-98043355D01*
X141556645Y-98015224D01*
X141519891Y-98000000D01*
X141480109Y-98000000D01*
X141443355Y-98015224D01*
X141415224Y-98043355D01*
X141400000Y-98080109D01*
X141126555Y-98080109D01*
X140822068Y-97775622D01*
X140777930Y-97775622D01*
X140453554Y-98099999D01*
X140200000Y-98099999D01*
X140200000Y-98080109D01*
X140184776Y-98043355D01*
X140156645Y-98015224D01*
X140119891Y-98000000D01*
X140080109Y-98000000D01*
X140043355Y-98015224D01*
X140015224Y-98043355D01*
X140000000Y-98080109D01*
X139766337Y-98080109D01*
X139885489Y-97960957D01*
X140424024Y-97422421D01*
X140424022Y-97422420D01*
X141175974Y-97422420D01*
X141175974Y-97422421D01*
X141500000Y-97746446D01*
X141500001Y-97746446D01*
X141824024Y-97422421D01*
X141718767Y-97378822D01*
X141718759Y-97378820D01*
X141573872Y-97350000D01*
X141426128Y-97350000D01*
X141281240Y-97378820D01*
X141281228Y-97378823D01*
X141175974Y-97422420D01*
X140424022Y-97422420D01*
X140318767Y-97378822D01*
X140318759Y-97378820D01*
X140173872Y-97350000D01*
X140026128Y-97350000D01*
X139881240Y-97378820D01*
X139881232Y-97378822D01*
X139744745Y-97435357D01*
X139744732Y-97435364D01*
X139705989Y-97461251D01*
X139639311Y-97482128D01*
X139571932Y-97463642D01*
X139525242Y-97411663D01*
X139513100Y-97358148D01*
X139513100Y-91115381D01*
X139532785Y-91048342D01*
X139585589Y-91002587D01*
X139612906Y-90993764D01*
X139751297Y-90966237D01*
X139896979Y-90905894D01*
X140028089Y-90818289D01*
X140139589Y-90706789D01*
X140227194Y-90575679D01*
X140236501Y-90553211D01*
X140274981Y-90460309D01*
X140287537Y-90429997D01*
X140318300Y-90275342D01*
X140318300Y-90117658D01*
X140318300Y-90117655D01*
X140318299Y-90117653D01*
X140304254Y-90047046D01*
X140287537Y-89963003D01*
X140275982Y-89935107D01*
X140227197Y-89817327D01*
X140227190Y-89817314D01*
X140139198Y-89685625D01*
X140118320Y-89618947D01*
X140118300Y-89616734D01*
X140118300Y-88677577D01*
X142175975Y-88677577D01*
X142281236Y-88721178D01*
X142281240Y-88721179D01*
X142426126Y-88749999D01*
X142426129Y-88750000D01*
X142573871Y-88750000D01*
X142573873Y-88749999D01*
X142718760Y-88721179D01*
X142718775Y-88721175D01*
X142824024Y-88677578D01*
X142824024Y-88677577D01*
X143675975Y-88677577D01*
X143781236Y-88721178D01*
X143781240Y-88721179D01*
X143926126Y-88749999D01*
X143926129Y-88750000D01*
X144073871Y-88750000D01*
X144073873Y-88749999D01*
X144218760Y-88721179D01*
X144218775Y-88721175D01*
X144324024Y-88677578D01*
X144324024Y-88677577D01*
X144000001Y-88353554D01*
X144000000Y-88353554D01*
X143675975Y-88677577D01*
X142824024Y-88677577D01*
X142500001Y-88353554D01*
X142500000Y-88353554D01*
X142175975Y-88677577D01*
X140118300Y-88677577D01*
X140118300Y-87926126D01*
X141750000Y-87926126D01*
X141750000Y-88073873D01*
X141778820Y-88218759D01*
X141778822Y-88218767D01*
X141822421Y-88324024D01*
X142146446Y-88000000D01*
X142146446Y-87999999D01*
X142126556Y-87980109D01*
X142400000Y-87980109D01*
X142400000Y-88019891D01*
X142415224Y-88056645D01*
X142443355Y-88084776D01*
X142480109Y-88100000D01*
X142519891Y-88100000D01*
X142556645Y-88084776D01*
X142584776Y-88056645D01*
X142600000Y-88019891D01*
X142600000Y-87999999D01*
X142853554Y-87999999D01*
X142853554Y-88000001D01*
X143177576Y-88324023D01*
X143225807Y-88314430D01*
X143274191Y-88314430D01*
X143322422Y-88324024D01*
X143646446Y-88000000D01*
X143646446Y-87999999D01*
X143626556Y-87980109D01*
X143900000Y-87980109D01*
X143900000Y-88019891D01*
X143915224Y-88056645D01*
X143943355Y-88084776D01*
X143980109Y-88100000D01*
X144019891Y-88100000D01*
X144056645Y-88084776D01*
X144084776Y-88056645D01*
X144100000Y-88019891D01*
X144100000Y-87999999D01*
X144353554Y-87999999D01*
X144353554Y-88000001D01*
X144677577Y-88324024D01*
X144677578Y-88324024D01*
X144721175Y-88218775D01*
X144721179Y-88218760D01*
X144749999Y-88073873D01*
X144750000Y-88073871D01*
X144750000Y-87926128D01*
X144749999Y-87926126D01*
X144721179Y-87781240D01*
X144721178Y-87781236D01*
X144677577Y-87675975D01*
X144353554Y-87999999D01*
X144100000Y-87999999D01*
X144100000Y-87980109D01*
X144084776Y-87943355D01*
X144056645Y-87915224D01*
X144019891Y-87900000D01*
X143980109Y-87900000D01*
X143943355Y-87915224D01*
X143915224Y-87943355D01*
X143900000Y-87980109D01*
X143626556Y-87980109D01*
X143322421Y-87675974D01*
X143274190Y-87685568D01*
X143225808Y-87685568D01*
X143177577Y-87675974D01*
X142853554Y-87999999D01*
X142600000Y-87999999D01*
X142600000Y-87980109D01*
X142584776Y-87943355D01*
X142556645Y-87915224D01*
X142519891Y-87900000D01*
X142480109Y-87900000D01*
X142443355Y-87915224D01*
X142415224Y-87943355D01*
X142400000Y-87980109D01*
X142126556Y-87980109D01*
X141822421Y-87675974D01*
X141822420Y-87675974D01*
X141778823Y-87781228D01*
X141778820Y-87781240D01*
X141750000Y-87926126D01*
X140118300Y-87926126D01*
X140118300Y-87177577D01*
X142175974Y-87177577D01*
X142185568Y-87225808D01*
X142185568Y-87274190D01*
X142175974Y-87322421D01*
X142500000Y-87646446D01*
X142500001Y-87646446D01*
X142824024Y-87322422D01*
X142814430Y-87274191D01*
X142814430Y-87265853D01*
X142812540Y-87261050D01*
X142814430Y-87225807D01*
X142824023Y-87177577D01*
X143675974Y-87177577D01*
X143685568Y-87225808D01*
X143685568Y-87274190D01*
X143675974Y-87322421D01*
X144000000Y-87646446D01*
X144000001Y-87646446D01*
X144324024Y-87322422D01*
X144314430Y-87274191D01*
X144314430Y-87225807D01*
X144324023Y-87177576D01*
X144000001Y-86853554D01*
X144000000Y-86853554D01*
X143675974Y-87177577D01*
X142824023Y-87177577D01*
X142824023Y-87177576D01*
X142500001Y-86853554D01*
X142500000Y-86853554D01*
X142175974Y-87177577D01*
X140118300Y-87177577D01*
X140118300Y-86426126D01*
X141750000Y-86426126D01*
X141750000Y-86573873D01*
X141778820Y-86718759D01*
X141778822Y-86718767D01*
X141822421Y-86824024D01*
X142146446Y-86500000D01*
X142146446Y-86499999D01*
X142126556Y-86480109D01*
X142400000Y-86480109D01*
X142400000Y-86519891D01*
X142415224Y-86556645D01*
X142443355Y-86584776D01*
X142480109Y-86600000D01*
X142519891Y-86600000D01*
X142556645Y-86584776D01*
X142584776Y-86556645D01*
X142600000Y-86519891D01*
X142600000Y-86499999D01*
X142853554Y-86499999D01*
X142853554Y-86500001D01*
X143177576Y-86824023D01*
X143225807Y-86814430D01*
X143274191Y-86814430D01*
X143322422Y-86824024D01*
X143646446Y-86500000D01*
X143646446Y-86499999D01*
X143626556Y-86480109D01*
X143900000Y-86480109D01*
X143900000Y-86519891D01*
X143915224Y-86556645D01*
X143943355Y-86584776D01*
X143980109Y-86600000D01*
X144019891Y-86600000D01*
X144056645Y-86584776D01*
X144084776Y-86556645D01*
X144100000Y-86519891D01*
X144100000Y-86499999D01*
X144353554Y-86499999D01*
X144353554Y-86500001D01*
X144677577Y-86824024D01*
X144677578Y-86824024D01*
X144721175Y-86718775D01*
X144721179Y-86718760D01*
X144749999Y-86573873D01*
X144750000Y-86573871D01*
X144750000Y-86426128D01*
X144749999Y-86426126D01*
X144721179Y-86281240D01*
X144721178Y-86281236D01*
X144677577Y-86175975D01*
X144353554Y-86499999D01*
X144100000Y-86499999D01*
X144100000Y-86480109D01*
X144084776Y-86443355D01*
X144056645Y-86415224D01*
X144019891Y-86400000D01*
X143980109Y-86400000D01*
X143943355Y-86415224D01*
X143915224Y-86443355D01*
X143900000Y-86480109D01*
X143626556Y-86480109D01*
X143322421Y-86175974D01*
X143274190Y-86185568D01*
X143225808Y-86185568D01*
X143177577Y-86175974D01*
X142853554Y-86499999D01*
X142600000Y-86499999D01*
X142600000Y-86480109D01*
X142584776Y-86443355D01*
X142556645Y-86415224D01*
X142519891Y-86400000D01*
X142480109Y-86400000D01*
X142443355Y-86415224D01*
X142415224Y-86443355D01*
X142400000Y-86480109D01*
X142126556Y-86480109D01*
X141822421Y-86175974D01*
X141822420Y-86175974D01*
X141778823Y-86281228D01*
X141778820Y-86281240D01*
X141750000Y-86426126D01*
X140118300Y-86426126D01*
X140118300Y-85677577D01*
X142175974Y-85677577D01*
X142185568Y-85725808D01*
X142185568Y-85774190D01*
X142175974Y-85822421D01*
X142500000Y-86146446D01*
X142500001Y-86146446D01*
X142824024Y-85822422D01*
X142814430Y-85774191D01*
X142814430Y-85765853D01*
X142812540Y-85761050D01*
X142814430Y-85725807D01*
X142824023Y-85677577D01*
X143675974Y-85677577D01*
X143685568Y-85725808D01*
X143685568Y-85774190D01*
X143675974Y-85822421D01*
X144000000Y-86146446D01*
X144000001Y-86146446D01*
X144324024Y-85822422D01*
X144314430Y-85774191D01*
X144314430Y-85725807D01*
X144324023Y-85677576D01*
X144000001Y-85353554D01*
X144000000Y-85353554D01*
X143675974Y-85677577D01*
X142824023Y-85677577D01*
X142824023Y-85677576D01*
X142500001Y-85353554D01*
X142500000Y-85353554D01*
X142175974Y-85677577D01*
X140118300Y-85677577D01*
X140118300Y-85555397D01*
X140137985Y-85488358D01*
X140154619Y-85467716D01*
X140696209Y-84926126D01*
X141750000Y-84926126D01*
X141750000Y-85073873D01*
X141778820Y-85218759D01*
X141778822Y-85218767D01*
X141822421Y-85324024D01*
X142146446Y-85000000D01*
X142146446Y-84999999D01*
X142126556Y-84980109D01*
X142400000Y-84980109D01*
X142400000Y-85019891D01*
X142415224Y-85056645D01*
X142443355Y-85084776D01*
X142480109Y-85100000D01*
X142519891Y-85100000D01*
X142556645Y-85084776D01*
X142584776Y-85056645D01*
X142600000Y-85019891D01*
X142600000Y-84999999D01*
X142853554Y-84999999D01*
X142853554Y-85000001D01*
X143177576Y-85324023D01*
X143225807Y-85314430D01*
X143274191Y-85314430D01*
X143322422Y-85324024D01*
X143646446Y-85000000D01*
X143646446Y-84999999D01*
X143626556Y-84980109D01*
X143900000Y-84980109D01*
X143900000Y-85019891D01*
X143915224Y-85056645D01*
X143943355Y-85084776D01*
X143980109Y-85100000D01*
X144019891Y-85100000D01*
X144056645Y-85084776D01*
X144084776Y-85056645D01*
X144100000Y-85019891D01*
X144100000Y-84999999D01*
X144353554Y-84999999D01*
X144353554Y-85000001D01*
X144677577Y-85324024D01*
X144677578Y-85324024D01*
X144721175Y-85218775D01*
X144721179Y-85218760D01*
X144749999Y-85073873D01*
X144750000Y-85073871D01*
X144750000Y-84926128D01*
X144749999Y-84926126D01*
X144721179Y-84781240D01*
X144721178Y-84781236D01*
X144677577Y-84675975D01*
X144353554Y-84999999D01*
X144100000Y-84999999D01*
X144100000Y-84980109D01*
X144084776Y-84943355D01*
X144056645Y-84915224D01*
X144019891Y-84900000D01*
X143980109Y-84900000D01*
X143943355Y-84915224D01*
X143915224Y-84943355D01*
X143900000Y-84980109D01*
X143626556Y-84980109D01*
X143322421Y-84675974D01*
X143274190Y-84685568D01*
X143225808Y-84685568D01*
X143177577Y-84675974D01*
X142853554Y-84999999D01*
X142600000Y-84999999D01*
X142600000Y-84980109D01*
X142584776Y-84943355D01*
X142556645Y-84915224D01*
X142519891Y-84900000D01*
X142480109Y-84900000D01*
X142443355Y-84915224D01*
X142415224Y-84943355D01*
X142400000Y-84980109D01*
X142126556Y-84980109D01*
X141822421Y-84675974D01*
X141822420Y-84675974D01*
X141778823Y-84781228D01*
X141778820Y-84781240D01*
X141750000Y-84926126D01*
X140696209Y-84926126D01*
X141299915Y-84322420D01*
X142175974Y-84322420D01*
X142175974Y-84322421D01*
X142500000Y-84646446D01*
X142500001Y-84646446D01*
X142824024Y-84322421D01*
X142824022Y-84322420D01*
X143675974Y-84322420D01*
X143675974Y-84322421D01*
X144000000Y-84646446D01*
X144000001Y-84646446D01*
X144324024Y-84322421D01*
X144218767Y-84278822D01*
X144218759Y-84278820D01*
X144073872Y-84250000D01*
X143926128Y-84250000D01*
X143781240Y-84278820D01*
X143781228Y-84278823D01*
X143675974Y-84322420D01*
X142824022Y-84322420D01*
X142718767Y-84278822D01*
X142718759Y-84278820D01*
X142573872Y-84250000D01*
X142426128Y-84250000D01*
X142281240Y-84278820D01*
X142281228Y-84278823D01*
X142175974Y-84322420D01*
X141299915Y-84322420D01*
X141346780Y-84275555D01*
X141765646Y-83856689D01*
X142185362Y-83436972D01*
X142246683Y-83403489D01*
X142248850Y-83403038D01*
X142306785Y-83391513D01*
X142404197Y-83372137D01*
X142549879Y-83311794D01*
X142680989Y-83224189D01*
X142792489Y-83112689D01*
X142880094Y-82981579D01*
X142940437Y-82835897D01*
X142971200Y-82681242D01*
X142971200Y-82523558D01*
X142971200Y-82523555D01*
X142971199Y-82523553D01*
X142957164Y-82452994D01*
X142940437Y-82368903D01*
X142926784Y-82335942D01*
X142880097Y-82223227D01*
X142880090Y-82223214D01*
X142792489Y-82092111D01*
X142792486Y-82092107D01*
X142680992Y-81980613D01*
X142680988Y-81980610D01*
X142549885Y-81893009D01*
X142549872Y-81893002D01*
X142404201Y-81832664D01*
X142404189Y-81832661D01*
X142249545Y-81801900D01*
X142249542Y-81801900D01*
X142091858Y-81801900D01*
X142091855Y-81801900D01*
X141937210Y-81832661D01*
X141937198Y-81832664D01*
X141791527Y-81893002D01*
X141791514Y-81893009D01*
X141660411Y-81980610D01*
X141660407Y-81980613D01*
X141548913Y-82092107D01*
X141548910Y-82092111D01*
X141461309Y-82223214D01*
X141461302Y-82223227D01*
X141400964Y-82368898D01*
X141400961Y-82368908D01*
X141370061Y-82524250D01*
X141337676Y-82586161D01*
X141336125Y-82587739D01*
X139891173Y-84032691D01*
X139829850Y-84066176D01*
X139760158Y-84061192D01*
X139704225Y-84019320D01*
X139679808Y-83953856D01*
X139681875Y-83920818D01*
X139682339Y-83918489D01*
X139707908Y-83789946D01*
X139713100Y-83763844D01*
X139713100Y-83606155D01*
X139713099Y-83606153D01*
X139682338Y-83451510D01*
X139682337Y-83451503D01*
X139662449Y-83403489D01*
X139621997Y-83305827D01*
X139621990Y-83305814D01*
X139534389Y-83174711D01*
X139534386Y-83174707D01*
X139422892Y-83063213D01*
X139422888Y-83063210D01*
X139291785Y-82975609D01*
X139291772Y-82975602D01*
X139146101Y-82915264D01*
X139146089Y-82915261D01*
X138991445Y-82884500D01*
X138991442Y-82884500D01*
X138833758Y-82884500D01*
X138833755Y-82884500D01*
X138679110Y-82915261D01*
X138679098Y-82915264D01*
X138533427Y-82975602D01*
X138533414Y-82975609D01*
X138402311Y-83063210D01*
X138402307Y-83063213D01*
X138290813Y-83174707D01*
X138290810Y-83174711D01*
X138203209Y-83305814D01*
X138203202Y-83305827D01*
X138142864Y-83451498D01*
X138142861Y-83451510D01*
X138112100Y-83606153D01*
X138112100Y-83763846D01*
X138142861Y-83918489D01*
X138142864Y-83918501D01*
X138203202Y-84064172D01*
X138203209Y-84064185D01*
X138291202Y-84195874D01*
X138312080Y-84262551D01*
X138312100Y-84264765D01*
X138312100Y-92317805D01*
X138292415Y-92384844D01*
X138239611Y-92430599D01*
X138212292Y-92439422D01*
X138067308Y-92468261D01*
X138067298Y-92468264D01*
X137921627Y-92528602D01*
X137921614Y-92528609D01*
X137790511Y-92616210D01*
X137790507Y-92616213D01*
X137679013Y-92727707D01*
X137679010Y-92727711D01*
X137591409Y-92858814D01*
X137591402Y-92858827D01*
X137531064Y-93004498D01*
X137531061Y-93004510D01*
X137500300Y-93159153D01*
X137500300Y-93316846D01*
X137531061Y-93471489D01*
X137531064Y-93471501D01*
X137591402Y-93617172D01*
X137591409Y-93617185D01*
X137679402Y-93748874D01*
X137700280Y-93815551D01*
X137700300Y-93817765D01*
X137700300Y-98085702D01*
X137680615Y-98152741D01*
X137663981Y-98173383D01*
X136825939Y-99011425D01*
X136764616Y-99044910D01*
X136762450Y-99045361D01*
X136607108Y-99076261D01*
X136607098Y-99076264D01*
X136459052Y-99137586D01*
X136389582Y-99145055D01*
X136327103Y-99113779D01*
X136291452Y-99053690D01*
X136287600Y-99023025D01*
X136287600Y-98313185D01*
X136307285Y-98246146D01*
X136360089Y-98200391D01*
X136387409Y-98191568D01*
X136522297Y-98164737D01*
X136667979Y-98104394D01*
X136799089Y-98016789D01*
X136910589Y-97905289D01*
X136998194Y-97774179D01*
X137058537Y-97628497D01*
X137089300Y-97473842D01*
X137089300Y-97316158D01*
X137089300Y-97316155D01*
X137089299Y-97316153D01*
X137087556Y-97307390D01*
X137058537Y-97161503D01*
X137043448Y-97125075D01*
X136998197Y-97015827D01*
X136998190Y-97015814D01*
X136910198Y-96884125D01*
X136889320Y-96817447D01*
X136889300Y-96815234D01*
X136889300Y-95318140D01*
X136908985Y-95251101D01*
X136925623Y-95230455D01*
X136932589Y-95223489D01*
X137020194Y-95092379D01*
X137080537Y-94946697D01*
X137111300Y-94792042D01*
X137111300Y-94634358D01*
X137111300Y-94634355D01*
X137111299Y-94634353D01*
X137101235Y-94583758D01*
X137080537Y-94479703D01*
X137080535Y-94479698D01*
X137020197Y-94334027D01*
X137020190Y-94334014D01*
X136932589Y-94202911D01*
X136932586Y-94202907D01*
X136821092Y-94091413D01*
X136821088Y-94091410D01*
X136689985Y-94003809D01*
X136689972Y-94003802D01*
X136544301Y-93943464D01*
X136544291Y-93943461D01*
X136530308Y-93940680D01*
X136468397Y-93908295D01*
X136433823Y-93847579D01*
X136430500Y-93819063D01*
X136430500Y-81052486D01*
X143929500Y-81052486D01*
X143929500Y-81347513D01*
X143955857Y-81547706D01*
X143968007Y-81639993D01*
X144042970Y-81919759D01*
X144044361Y-81924951D01*
X144044364Y-81924961D01*
X144157254Y-82197500D01*
X144157258Y-82197510D01*
X144304761Y-82452993D01*
X144484352Y-82687040D01*
X144484358Y-82687047D01*
X144692952Y-82895641D01*
X144692959Y-82895647D01*
X144927006Y-83075238D01*
X145182489Y-83222741D01*
X145182490Y-83222741D01*
X145182493Y-83222743D01*
X145455048Y-83335639D01*
X145740007Y-83411993D01*
X146032494Y-83450500D01*
X146032501Y-83450500D01*
X146327499Y-83450500D01*
X146327506Y-83450500D01*
X146619993Y-83411993D01*
X146904952Y-83335639D01*
X147177507Y-83222743D01*
X147432994Y-83075238D01*
X147667042Y-82895646D01*
X147875646Y-82687042D01*
X148055238Y-82452994D01*
X148202743Y-82197507D01*
X148315639Y-81924952D01*
X148391993Y-81639993D01*
X148430500Y-81347506D01*
X148430500Y-81052494D01*
X148391993Y-80760007D01*
X148315639Y-80475048D01*
X148202743Y-80202493D01*
X148154911Y-80119646D01*
X148055238Y-79947006D01*
X147875647Y-79712959D01*
X147875641Y-79712952D01*
X147667047Y-79504358D01*
X147667040Y-79504352D01*
X147432993Y-79324761D01*
X147177510Y-79177258D01*
X147177500Y-79177254D01*
X146904961Y-79064364D01*
X146904954Y-79064362D01*
X146904952Y-79064361D01*
X146619993Y-78988007D01*
X146571113Y-78981571D01*
X146327513Y-78949500D01*
X146327506Y-78949500D01*
X146032494Y-78949500D01*
X146032486Y-78949500D01*
X145754085Y-78986153D01*
X145740007Y-78988007D01*
X145455048Y-79064361D01*
X145455038Y-79064364D01*
X145182499Y-79177254D01*
X145182489Y-79177258D01*
X144927006Y-79324761D01*
X144692959Y-79504352D01*
X144692952Y-79504358D01*
X144484358Y-79712952D01*
X144484352Y-79712959D01*
X144304761Y-79947006D01*
X144157258Y-80202489D01*
X144157254Y-80202499D01*
X144044364Y-80475038D01*
X144044361Y-80475048D01*
X143970637Y-80750194D01*
X143968008Y-80760004D01*
X143968006Y-80760015D01*
X143929500Y-81052486D01*
X136430500Y-81052486D01*
X136430500Y-74216745D01*
X136430500Y-74216743D01*
X136395637Y-74086631D01*
X136395637Y-74086630D01*
X136395637Y-74086629D01*
X136389577Y-74064015D01*
X136358558Y-74010289D01*
X136341371Y-73980520D01*
X136310520Y-73927084D01*
X136198716Y-73815280D01*
X136194385Y-73810949D01*
X136194374Y-73810939D01*
X135868774Y-73485339D01*
X135835289Y-73424016D01*
X135834838Y-73421849D01*
X135803938Y-73266510D01*
X135803937Y-73266503D01*
X135785811Y-73222743D01*
X135743597Y-73120827D01*
X135743590Y-73120814D01*
X135655598Y-72989125D01*
X135634720Y-72922447D01*
X135634700Y-72920234D01*
X135634700Y-70825453D01*
X138178000Y-70825453D01*
X138178000Y-70983146D01*
X138208761Y-71137789D01*
X138208764Y-71137801D01*
X138269102Y-71283472D01*
X138269109Y-71283485D01*
X138357102Y-71415174D01*
X138377980Y-71481851D01*
X138378000Y-71484065D01*
X138378000Y-73535234D01*
X138358315Y-73602273D01*
X138357102Y-73604125D01*
X138269109Y-73735814D01*
X138269102Y-73735827D01*
X138208764Y-73881498D01*
X138208761Y-73881510D01*
X138178000Y-74036153D01*
X138178000Y-74193846D01*
X138208761Y-74348489D01*
X138208764Y-74348501D01*
X138269102Y-74494172D01*
X138269109Y-74494185D01*
X138356710Y-74625288D01*
X138356713Y-74625292D01*
X138468207Y-74736786D01*
X138468211Y-74736789D01*
X138599314Y-74824390D01*
X138599327Y-74824397D01*
X138744998Y-74884735D01*
X138745003Y-74884737D01*
X138899653Y-74915499D01*
X138899656Y-74915500D01*
X138899658Y-74915500D01*
X139057344Y-74915500D01*
X139057345Y-74915499D01*
X139211997Y-74884737D01*
X139357679Y-74824394D01*
X139488789Y-74736789D01*
X139600289Y-74625289D01*
X139687894Y-74494179D01*
X139748237Y-74348497D01*
X139779000Y-74193842D01*
X139779000Y-74036158D01*
X139779000Y-74036155D01*
X139778999Y-74036153D01*
X139767933Y-73980520D01*
X139748237Y-73881503D01*
X139747274Y-73879179D01*
X139687897Y-73735827D01*
X139687890Y-73735814D01*
X139599898Y-73604125D01*
X139579020Y-73537447D01*
X139579000Y-73535234D01*
X139579000Y-71484065D01*
X139598685Y-71417026D01*
X139599898Y-71415174D01*
X139687890Y-71283485D01*
X139687890Y-71283484D01*
X139687894Y-71283479D01*
X139748237Y-71137797D01*
X139765207Y-71052486D01*
X143929500Y-71052486D01*
X143929500Y-71347513D01*
X143947187Y-71481851D01*
X143968007Y-71639993D01*
X144044361Y-71924951D01*
X144044364Y-71924961D01*
X144157254Y-72197500D01*
X144157258Y-72197510D01*
X144304761Y-72452993D01*
X144484352Y-72687040D01*
X144484358Y-72687047D01*
X144692952Y-72895641D01*
X144692959Y-72895647D01*
X144927006Y-73075238D01*
X145182489Y-73222741D01*
X145182490Y-73222741D01*
X145182493Y-73222743D01*
X145455048Y-73335639D01*
X145740007Y-73411993D01*
X146032494Y-73450500D01*
X146032501Y-73450500D01*
X146327499Y-73450500D01*
X146327506Y-73450500D01*
X146619993Y-73411993D01*
X146904952Y-73335639D01*
X147177507Y-73222743D01*
X147432994Y-73075238D01*
X147667042Y-72895646D01*
X147875646Y-72687042D01*
X148055238Y-72452994D01*
X148202743Y-72197507D01*
X148315639Y-71924952D01*
X148391993Y-71639993D01*
X148430500Y-71347506D01*
X148430500Y-71052494D01*
X148391993Y-70760007D01*
X148315639Y-70475048D01*
X148202743Y-70202493D01*
X148198364Y-70194909D01*
X148055238Y-69947006D01*
X147875647Y-69712959D01*
X147875641Y-69712952D01*
X147667047Y-69504358D01*
X147667040Y-69504352D01*
X147432993Y-69324761D01*
X147177510Y-69177258D01*
X147177500Y-69177254D01*
X146904961Y-69064364D01*
X146904954Y-69064362D01*
X146904952Y-69064361D01*
X146619993Y-68988007D01*
X146571113Y-68981571D01*
X146327513Y-68949500D01*
X146327506Y-68949500D01*
X146032494Y-68949500D01*
X146032486Y-68949500D01*
X145754085Y-68986153D01*
X145740007Y-68988007D01*
X145455048Y-69064361D01*
X145455038Y-69064364D01*
X145182499Y-69177254D01*
X145182489Y-69177258D01*
X144927006Y-69324761D01*
X144692959Y-69504352D01*
X144692952Y-69504358D01*
X144484358Y-69712952D01*
X144484352Y-69712959D01*
X144304761Y-69947006D01*
X144157258Y-70202489D01*
X144157254Y-70202499D01*
X144044364Y-70475038D01*
X144044361Y-70475048D01*
X144030943Y-70525127D01*
X143968008Y-70760004D01*
X143968006Y-70760015D01*
X143929500Y-71052486D01*
X139765207Y-71052486D01*
X139770825Y-71024243D01*
X139770825Y-71024242D01*
X139778999Y-70983146D01*
X139779000Y-70983144D01*
X139779000Y-70825455D01*
X139778999Y-70825453D01*
X139772281Y-70791679D01*
X139748237Y-70670803D01*
X139724671Y-70613909D01*
X139687897Y-70525127D01*
X139687890Y-70525114D01*
X139600289Y-70394011D01*
X139600286Y-70394007D01*
X139488792Y-70282513D01*
X139488788Y-70282510D01*
X139357685Y-70194909D01*
X139357672Y-70194902D01*
X139212001Y-70134564D01*
X139211989Y-70134561D01*
X139057345Y-70103800D01*
X139057342Y-70103800D01*
X138899658Y-70103800D01*
X138899655Y-70103800D01*
X138745010Y-70134561D01*
X138744998Y-70134564D01*
X138599327Y-70194902D01*
X138599314Y-70194909D01*
X138468211Y-70282510D01*
X138468207Y-70282513D01*
X138356713Y-70394007D01*
X138356710Y-70394011D01*
X138269109Y-70525114D01*
X138269102Y-70525127D01*
X138208764Y-70670798D01*
X138208761Y-70670810D01*
X138178000Y-70825453D01*
X135634700Y-70825453D01*
X135634700Y-70766645D01*
X135634700Y-70766643D01*
X135593777Y-70613916D01*
X135523010Y-70491342D01*
X135514724Y-70476990D01*
X135514721Y-70476986D01*
X135514720Y-70476984D01*
X135402916Y-70365180D01*
X135402915Y-70365179D01*
X135398585Y-70360849D01*
X135398574Y-70360839D01*
X133208432Y-68170697D01*
X133174947Y-68109374D01*
X133179931Y-68039682D01*
X133221803Y-67983749D01*
X133248652Y-67968459D01*
X133379179Y-67914394D01*
X133510289Y-67826789D01*
X133621789Y-67715289D01*
X133709394Y-67584179D01*
X133769737Y-67438497D01*
X133780326Y-67385263D01*
X133782478Y-67374447D01*
X133800499Y-67283846D01*
X133800500Y-67283844D01*
X133800500Y-67126155D01*
X133800499Y-67126153D01*
X133769738Y-66971510D01*
X133769737Y-66971503D01*
X133760830Y-66950000D01*
X133709397Y-66825827D01*
X133709390Y-66825814D01*
X133621398Y-66694125D01*
X133615747Y-66676078D01*
X133605523Y-66660169D01*
X133601071Y-66629207D01*
X133600520Y-66627447D01*
X133600500Y-66625234D01*
X133600500Y-66601504D01*
X135820000Y-66601504D01*
X135820000Y-66950000D01*
X136570000Y-66950000D01*
X136570000Y-67450000D01*
X135820000Y-67450000D01*
X135820000Y-67798495D01*
X135858427Y-67991681D01*
X135858430Y-67991693D01*
X135933807Y-68173671D01*
X135933814Y-68173684D01*
X136043248Y-68337462D01*
X136043251Y-68337466D01*
X136182533Y-68476748D01*
X136182537Y-68476751D01*
X136346315Y-68586185D01*
X136346328Y-68586192D01*
X136528308Y-68661569D01*
X136570000Y-68669862D01*
X136570000Y-67599728D01*
X136608060Y-67691614D01*
X136678386Y-67761940D01*
X136770272Y-67800000D01*
X136869728Y-67800000D01*
X136961614Y-67761940D01*
X137031940Y-67691614D01*
X137070000Y-67599728D01*
X137070000Y-68669862D01*
X137111690Y-68661569D01*
X137111692Y-68661569D01*
X137293671Y-68586192D01*
X137293684Y-68586185D01*
X137457462Y-68476751D01*
X137457466Y-68476748D01*
X137596748Y-68337466D01*
X137596751Y-68337462D01*
X137706185Y-68173684D01*
X137706192Y-68173671D01*
X137781569Y-67991693D01*
X137781572Y-67991681D01*
X137819999Y-67798495D01*
X137820000Y-67798492D01*
X137820000Y-67450000D01*
X137070000Y-67450000D01*
X137070000Y-66950000D01*
X137820000Y-66950000D01*
X137820000Y-66601508D01*
X137819999Y-66601504D01*
X137781572Y-66408318D01*
X137781569Y-66408306D01*
X137706192Y-66226328D01*
X137706185Y-66226315D01*
X137596751Y-66062537D01*
X137596748Y-66062533D01*
X137457466Y-65923251D01*
X137457462Y-65923248D01*
X137293684Y-65813814D01*
X137293671Y-65813807D01*
X137111691Y-65738429D01*
X137111683Y-65738427D01*
X137070000Y-65730135D01*
X137070000Y-66800272D01*
X137031940Y-66708386D01*
X136961614Y-66638060D01*
X136869728Y-66600000D01*
X136770272Y-66600000D01*
X136678386Y-66638060D01*
X136608060Y-66708386D01*
X136570000Y-66800272D01*
X136570000Y-65730136D01*
X136569999Y-65730135D01*
X136528316Y-65738427D01*
X136528308Y-65738429D01*
X136346328Y-65813807D01*
X136346315Y-65813814D01*
X136182537Y-65923248D01*
X136182533Y-65923251D01*
X136043251Y-66062533D01*
X136043248Y-66062537D01*
X135933814Y-66226315D01*
X135933807Y-66226328D01*
X135858430Y-66408306D01*
X135858427Y-66408318D01*
X135820000Y-66601504D01*
X133600500Y-66601504D01*
X133600500Y-65979765D01*
X133620185Y-65912726D01*
X133621398Y-65910874D01*
X133709390Y-65779185D01*
X133709390Y-65779184D01*
X133709394Y-65779179D01*
X133769737Y-65633497D01*
X133800500Y-65478842D01*
X133800500Y-65321158D01*
X133800500Y-65321155D01*
X133800499Y-65321153D01*
X133769738Y-65166510D01*
X133769737Y-65166503D01*
X133741854Y-65099186D01*
X133709397Y-65020827D01*
X133709390Y-65020814D01*
X133621789Y-64889711D01*
X133621786Y-64889707D01*
X133510292Y-64778213D01*
X133510288Y-64778210D01*
X133379185Y-64690609D01*
X133379172Y-64690602D01*
X133233501Y-64630264D01*
X133233489Y-64630261D01*
X133078845Y-64599500D01*
X133078842Y-64599500D01*
X132921158Y-64599500D01*
X132921155Y-64599500D01*
X132766510Y-64630261D01*
X132766498Y-64630264D01*
X132620827Y-64690602D01*
X132620814Y-64690609D01*
X132489711Y-64778210D01*
X132489707Y-64778213D01*
X132378213Y-64889707D01*
X132378210Y-64889711D01*
X132361248Y-64915097D01*
X132307635Y-64959902D01*
X132238310Y-64968609D01*
X132175283Y-64938454D01*
X132155044Y-64915097D01*
X132138081Y-64889711D01*
X132138078Y-64889707D01*
X132026584Y-64778213D01*
X132026580Y-64778210D01*
X131895477Y-64690609D01*
X131895464Y-64690602D01*
X131749793Y-64630264D01*
X131749781Y-64630261D01*
X131595137Y-64599500D01*
X131595134Y-64599500D01*
X131437450Y-64599500D01*
X131437447Y-64599500D01*
X131282802Y-64630261D01*
X131282790Y-64630264D01*
X131137119Y-64690602D01*
X131137106Y-64690609D01*
X131006003Y-64778210D01*
X131005999Y-64778213D01*
X130894505Y-64889707D01*
X130894502Y-64889711D01*
X130806901Y-65020814D01*
X130806894Y-65020827D01*
X130746556Y-65166498D01*
X130746553Y-65166510D01*
X130715792Y-65321153D01*
X130715792Y-65378695D01*
X130696107Y-65445734D01*
X130643303Y-65491489D01*
X130574145Y-65501433D01*
X130510589Y-65472408D01*
X130504111Y-65466376D01*
X129203438Y-64165703D01*
X129169953Y-64104380D01*
X129169502Y-64053829D01*
X129180500Y-63998543D01*
X135819499Y-63998543D01*
X135857947Y-64191829D01*
X135857950Y-64191839D01*
X135933364Y-64373907D01*
X135933371Y-64373920D01*
X136042860Y-64537781D01*
X136042863Y-64537785D01*
X136182214Y-64677136D01*
X136182218Y-64677139D01*
X136346079Y-64786628D01*
X136346092Y-64786635D01*
X136528160Y-64862049D01*
X136528165Y-64862051D01*
X136528169Y-64862051D01*
X136528170Y-64862052D01*
X136721456Y-64900500D01*
X136721459Y-64900500D01*
X136918543Y-64900500D01*
X137048582Y-64874632D01*
X137111835Y-64862051D01*
X137293914Y-64786632D01*
X137457782Y-64677139D01*
X137597139Y-64537782D01*
X137706632Y-64373914D01*
X137782051Y-64191835D01*
X137799447Y-64104380D01*
X137820500Y-63998543D01*
X137820500Y-62801456D01*
X137782052Y-62608170D01*
X137782051Y-62608169D01*
X137782051Y-62608165D01*
X137717778Y-62452994D01*
X137706635Y-62426092D01*
X137706628Y-62426079D01*
X137597139Y-62262218D01*
X137597136Y-62262214D01*
X137457785Y-62122863D01*
X137457781Y-62122860D01*
X137293920Y-62013371D01*
X137293907Y-62013364D01*
X137111839Y-61937950D01*
X137111829Y-61937947D01*
X136918543Y-61899500D01*
X136918541Y-61899500D01*
X136721459Y-61899500D01*
X136721457Y-61899500D01*
X136528170Y-61937947D01*
X136528160Y-61937950D01*
X136346092Y-62013364D01*
X136346079Y-62013371D01*
X136182218Y-62122860D01*
X136182214Y-62122863D01*
X136042863Y-62262214D01*
X136042860Y-62262218D01*
X135933371Y-62426079D01*
X135933364Y-62426092D01*
X135857950Y-62608160D01*
X135857947Y-62608170D01*
X135819500Y-62801456D01*
X135819500Y-62801459D01*
X135819500Y-63998541D01*
X135819500Y-63998543D01*
X135819499Y-63998543D01*
X129180500Y-63998543D01*
X129180500Y-63998542D01*
X129180500Y-62801456D01*
X129142052Y-62608170D01*
X129142051Y-62608169D01*
X129142051Y-62608165D01*
X129077778Y-62452994D01*
X129066635Y-62426092D01*
X129066628Y-62426079D01*
X128957139Y-62262218D01*
X128957136Y-62262214D01*
X128817785Y-62122863D01*
X128817781Y-62122860D01*
X128653920Y-62013371D01*
X128653907Y-62013364D01*
X128471839Y-61937950D01*
X128471829Y-61937947D01*
X128278543Y-61899500D01*
X128278541Y-61899500D01*
X128081459Y-61899500D01*
X128081457Y-61899500D01*
X127888170Y-61937947D01*
X127888160Y-61937950D01*
X127706092Y-62013364D01*
X127706074Y-62013374D01*
X127541736Y-62123181D01*
X127475059Y-62144059D01*
X127407679Y-62125574D01*
X127369744Y-62088970D01*
X127289589Y-61969011D01*
X127289586Y-61969007D01*
X127178092Y-61857513D01*
X127178088Y-61857510D01*
X127046985Y-61769909D01*
X127046972Y-61769902D01*
X126901301Y-61709564D01*
X126901289Y-61709561D01*
X126746645Y-61678800D01*
X126746642Y-61678800D01*
X126588958Y-61678800D01*
X126588955Y-61678800D01*
X126434310Y-61709561D01*
X126434298Y-61709564D01*
X126288627Y-61769902D01*
X126288614Y-61769909D01*
X126157511Y-61857510D01*
X126157507Y-61857513D01*
X126046013Y-61969007D01*
X126046010Y-61969011D01*
X125958409Y-62100114D01*
X125958402Y-62100127D01*
X125898064Y-62245798D01*
X125898061Y-62245810D01*
X125867300Y-62400453D01*
X125867300Y-62558146D01*
X125898061Y-62712789D01*
X125898064Y-62712801D01*
X125958402Y-62858472D01*
X125958409Y-62858485D01*
X126046010Y-62989588D01*
X126046013Y-62989592D01*
X126157507Y-63101086D01*
X126157511Y-63101089D01*
X126288614Y-63188690D01*
X126288627Y-63188697D01*
X126434298Y-63249035D01*
X126434303Y-63249037D01*
X126498947Y-63261895D01*
X126589649Y-63279938D01*
X126651560Y-63312323D01*
X126653139Y-63313874D01*
X127143181Y-63803916D01*
X127176666Y-63865239D01*
X127179500Y-63891597D01*
X127179500Y-63998541D01*
X127179500Y-63998543D01*
X127179499Y-63998543D01*
X127217947Y-64191829D01*
X127217950Y-64191839D01*
X127293364Y-64373907D01*
X127293371Y-64373920D01*
X127402860Y-64537781D01*
X127402863Y-64537785D01*
X127542214Y-64677136D01*
X127542218Y-64677139D01*
X127706079Y-64786628D01*
X127706092Y-64786635D01*
X127888160Y-64862049D01*
X127888165Y-64862051D01*
X127888169Y-64862051D01*
X127888170Y-64862052D01*
X128081456Y-64900500D01*
X128081459Y-64900500D01*
X128188403Y-64900500D01*
X128255442Y-64920185D01*
X128276084Y-64936819D01*
X134397381Y-71058116D01*
X134430866Y-71119439D01*
X134433700Y-71145797D01*
X134433700Y-72920234D01*
X134414015Y-72987273D01*
X134412802Y-72989125D01*
X134324809Y-73120814D01*
X134324802Y-73120827D01*
X134264464Y-73266498D01*
X134264461Y-73266510D01*
X134233700Y-73421153D01*
X134233700Y-73578846D01*
X134264461Y-73733489D01*
X134264464Y-73733501D01*
X134324802Y-73879172D01*
X134324809Y-73879185D01*
X134412410Y-74010288D01*
X134412413Y-74010292D01*
X134523907Y-74121786D01*
X134523911Y-74121789D01*
X134655014Y-74209390D01*
X134655027Y-74209397D01*
X134747918Y-74247873D01*
X134800703Y-74269737D01*
X134865347Y-74282595D01*
X134956049Y-74300638D01*
X134972805Y-74309402D01*
X134991285Y-74313423D01*
X135016323Y-74332167D01*
X135017960Y-74333023D01*
X135019539Y-74334574D01*
X135193181Y-74508216D01*
X135226666Y-74569539D01*
X135229500Y-74595897D01*
X135229500Y-80041958D01*
X135209815Y-80108997D01*
X135157011Y-80154752D01*
X135129073Y-80162309D01*
X135129332Y-80163611D01*
X134968710Y-80195561D01*
X134968698Y-80195564D01*
X134823027Y-80255902D01*
X134823014Y-80255909D01*
X134691911Y-80343510D01*
X134691907Y-80343513D01*
X134580413Y-80455007D01*
X134580410Y-80455011D01*
X134492809Y-80586114D01*
X134492802Y-80586127D01*
X134432464Y-80731798D01*
X134432461Y-80731810D01*
X134401700Y-80886453D01*
X134401700Y-81044146D01*
X134432461Y-81198789D01*
X134432464Y-81198801D01*
X134492802Y-81344472D01*
X134492809Y-81344485D01*
X134580802Y-81476174D01*
X134601680Y-81542851D01*
X134601700Y-81545065D01*
X134601700Y-82502003D01*
X134582015Y-82569042D01*
X134529211Y-82614797D01*
X134460053Y-82624741D01*
X134396497Y-82595716D01*
X134390019Y-82589684D01*
X133889090Y-82088755D01*
X133889088Y-82088752D01*
X133770217Y-81969881D01*
X133770216Y-81969880D01*
X133683404Y-81919760D01*
X133683404Y-81919759D01*
X133683400Y-81919758D01*
X133633285Y-81890823D01*
X133480557Y-81849899D01*
X133322443Y-81849899D01*
X133314847Y-81849899D01*
X133314831Y-81849900D01*
X132729940Y-81849900D01*
X132689019Y-81860864D01*
X132689019Y-81860865D01*
X132651751Y-81870851D01*
X132577214Y-81890823D01*
X132577209Y-81890826D01*
X132440290Y-81969875D01*
X132440282Y-81969881D01*
X127022879Y-87387284D01*
X126997631Y-87431015D01*
X126986960Y-87449500D01*
X126943823Y-87524215D01*
X126902899Y-87676943D01*
X126902899Y-87676945D01*
X126902899Y-87845046D01*
X126902900Y-87845059D01*
X126902900Y-103254902D01*
X126883215Y-103321941D01*
X126866581Y-103342583D01*
X125497781Y-104711382D01*
X125497780Y-104711384D01*
X125452799Y-104789294D01*
X125418723Y-104848315D01*
X125377799Y-105001043D01*
X125377799Y-105001045D01*
X125377799Y-105169146D01*
X125377800Y-105169159D01*
X125377800Y-106515430D01*
X125377799Y-106515448D01*
X125377799Y-106681154D01*
X125377798Y-106681154D01*
X125418723Y-106833886D01*
X125418724Y-106833887D01*
X125435081Y-106862218D01*
X125497781Y-106970817D01*
X125616649Y-107089685D01*
X125616655Y-107089690D01*
X126118352Y-107591387D01*
X126151837Y-107652710D01*
X126146853Y-107722402D01*
X126118356Y-107766745D01*
X126099899Y-107785202D01*
X126099892Y-107785211D01*
X125974951Y-107957179D01*
X125878444Y-108146585D01*
X125812753Y-108348760D01*
X125785982Y-108517790D01*
X125779500Y-108558713D01*
X125779500Y-108771287D01*
X125789534Y-108834644D01*
X125812753Y-108981239D01*
X125878444Y-109183414D01*
X125974951Y-109372820D01*
X126099890Y-109544786D01*
X126250213Y-109695109D01*
X126422179Y-109820048D01*
X126422181Y-109820049D01*
X126422184Y-109820051D01*
X126611588Y-109916557D01*
X126813757Y-109982246D01*
X127023713Y-110015500D01*
X127023714Y-110015500D01*
X127236286Y-110015500D01*
X127236287Y-110015500D01*
X127446243Y-109982246D01*
X127648412Y-109916557D01*
X127837816Y-109820051D01*
X127897246Y-109776873D01*
X128009786Y-109695109D01*
X128009788Y-109695106D01*
X128009792Y-109695104D01*
X128160104Y-109544792D01*
X128160106Y-109544788D01*
X128160109Y-109544786D01*
X128285048Y-109372820D01*
X128285050Y-109372817D01*
X128285051Y-109372816D01*
X128289514Y-109364054D01*
X128337488Y-109313259D01*
X128405308Y-109296463D01*
X128471444Y-109318999D01*
X128510486Y-109364056D01*
X128514951Y-109372820D01*
X128639890Y-109544786D01*
X128790213Y-109695109D01*
X128962184Y-109820051D01*
X128962184Y-109820052D01*
X129001793Y-109840233D01*
X129052590Y-109888206D01*
X129069500Y-109950718D01*
X129069500Y-111470234D01*
X129049815Y-111537273D01*
X129048602Y-111539125D01*
X128960609Y-111670814D01*
X128960602Y-111670827D01*
X128900264Y-111816498D01*
X128900261Y-111816510D01*
X128869500Y-111971153D01*
X128869500Y-112128846D01*
X128900261Y-112283489D01*
X128900264Y-112283501D01*
X128960602Y-112429172D01*
X128960609Y-112429185D01*
X129048210Y-112560288D01*
X129048213Y-112560292D01*
X129159707Y-112671786D01*
X129159711Y-112671789D01*
X129265384Y-112742398D01*
X129310189Y-112796010D01*
X129318896Y-112865335D01*
X129288742Y-112928363D01*
X129229298Y-112965082D01*
X129196493Y-112969500D01*
X118108676Y-112969500D01*
X118041637Y-112949815D01*
X118020995Y-112933181D01*
X108386819Y-103299005D01*
X108353334Y-103237682D01*
X108350500Y-103211324D01*
X108350500Y-77052135D01*
X113999500Y-77052135D01*
X113999500Y-78947870D01*
X113999501Y-78947876D01*
X114005908Y-79007483D01*
X114056202Y-79142328D01*
X114056206Y-79142335D01*
X114142452Y-79257544D01*
X114142455Y-79257547D01*
X114257664Y-79343793D01*
X114257671Y-79343797D01*
X114392517Y-79394091D01*
X114392516Y-79394091D01*
X114399444Y-79394835D01*
X114452127Y-79400500D01*
X115349787Y-79400499D01*
X115361302Y-79403880D01*
X115373250Y-79402739D01*
X115394204Y-79413540D01*
X115416826Y-79420183D01*
X115426238Y-79430053D01*
X115435354Y-79434753D01*
X115457165Y-79462488D01*
X115457172Y-79462495D01*
X115463903Y-79474153D01*
X115497049Y-79531564D01*
X115519479Y-79570414D01*
X115519481Y-79570417D01*
X115638349Y-79689285D01*
X115638355Y-79689290D01*
X117036884Y-81087819D01*
X117070369Y-81149142D01*
X117065385Y-81218834D01*
X117023513Y-81274767D01*
X116958049Y-81299184D01*
X116949203Y-81299500D01*
X114452129Y-81299500D01*
X114452123Y-81299501D01*
X114392516Y-81305908D01*
X114257671Y-81356202D01*
X114257664Y-81356206D01*
X114142455Y-81442452D01*
X114142452Y-81442455D01*
X114056206Y-81557664D01*
X114056202Y-81557671D01*
X114005908Y-81692517D01*
X113999501Y-81752116D01*
X113999500Y-81752135D01*
X113999500Y-83647870D01*
X113999501Y-83647876D01*
X114005908Y-83707483D01*
X114056202Y-83842328D01*
X114056206Y-83842335D01*
X114142452Y-83957544D01*
X114142455Y-83957547D01*
X114257664Y-84043793D01*
X114257671Y-84043797D01*
X114392517Y-84094091D01*
X114392516Y-84094091D01*
X114399444Y-84094835D01*
X114452127Y-84100500D01*
X115349787Y-84100499D01*
X115416826Y-84120183D01*
X115457174Y-84162499D01*
X115519477Y-84270412D01*
X115519481Y-84270417D01*
X115638349Y-84389285D01*
X115638355Y-84389290D01*
X118148081Y-86899016D01*
X118181566Y-86960339D01*
X118184400Y-86986697D01*
X118184400Y-97694687D01*
X118164715Y-97761726D01*
X118111911Y-97807481D01*
X118042753Y-97817425D01*
X117979197Y-97788400D01*
X117970193Y-97779768D01*
X117960254Y-97769230D01*
X117949720Y-97750984D01*
X117837916Y-97639180D01*
X117837913Y-97639178D01*
X117258116Y-97059381D01*
X117224631Y-96998058D01*
X117229615Y-96928366D01*
X117245476Y-96898818D01*
X117345217Y-96761538D01*
X117449048Y-96557758D01*
X117519722Y-96340245D01*
X117555500Y-96114354D01*
X117555500Y-95885646D01*
X117519722Y-95659755D01*
X117519721Y-95659751D01*
X117519721Y-95659750D01*
X117449049Y-95442244D01*
X117391734Y-95329757D01*
X117345217Y-95238462D01*
X117212472Y-95055755D01*
X117188994Y-94989953D01*
X117204819Y-94921899D01*
X117254925Y-94873204D01*
X117269455Y-94866692D01*
X117297331Y-94856296D01*
X117412546Y-94770046D01*
X117498796Y-94654831D01*
X117549091Y-94519983D01*
X117555500Y-94460373D01*
X117555499Y-92459628D01*
X117549091Y-92400017D01*
X117532889Y-92356578D01*
X117498797Y-92265171D01*
X117498793Y-92265164D01*
X117412547Y-92149955D01*
X117412544Y-92149952D01*
X117297335Y-92063706D01*
X117297328Y-92063702D01*
X117162482Y-92013408D01*
X117162483Y-92013408D01*
X117102883Y-92007001D01*
X117102881Y-92007000D01*
X117102873Y-92007000D01*
X117102864Y-92007000D01*
X115007129Y-92007000D01*
X115007123Y-92007001D01*
X114947516Y-92013408D01*
X114812671Y-92063702D01*
X114812664Y-92063706D01*
X114697455Y-92149952D01*
X114697452Y-92149955D01*
X114611206Y-92265164D01*
X114611202Y-92265171D01*
X114560908Y-92400017D01*
X114556879Y-92437500D01*
X114554501Y-92459623D01*
X114554500Y-92459635D01*
X114554500Y-94460370D01*
X114554501Y-94460376D01*
X114560908Y-94519983D01*
X114611202Y-94654828D01*
X114611206Y-94654835D01*
X114697452Y-94770044D01*
X114697455Y-94770047D01*
X114812664Y-94856293D01*
X114812669Y-94856296D01*
X114840539Y-94866690D01*
X114896473Y-94908561D01*
X114920891Y-94974024D01*
X114906040Y-95042298D01*
X114897525Y-95055759D01*
X114764783Y-95238461D01*
X114660950Y-95442244D01*
X114590278Y-95659750D01*
X114590278Y-95659753D01*
X114554500Y-95885646D01*
X114554500Y-96114353D01*
X114590278Y-96340246D01*
X114590278Y-96340249D01*
X114660950Y-96557755D01*
X114721275Y-96676149D01*
X114764783Y-96761538D01*
X114899214Y-96946566D01*
X115060934Y-97108286D01*
X115130130Y-97158560D01*
X115145438Y-97169682D01*
X115188103Y-97225013D01*
X115194082Y-97294626D01*
X115161476Y-97356421D01*
X115145438Y-97370318D01*
X115060932Y-97431715D01*
X114899216Y-97593431D01*
X114899216Y-97593432D01*
X114899214Y-97593434D01*
X114865979Y-97639178D01*
X114764783Y-97778461D01*
X114660950Y-97982244D01*
X114590278Y-98199750D01*
X114590278Y-98199753D01*
X114554500Y-98425646D01*
X114554500Y-98654353D01*
X114590278Y-98880246D01*
X114590278Y-98880249D01*
X114660950Y-99097755D01*
X114707078Y-99188286D01*
X114764783Y-99301538D01*
X114899214Y-99486566D01*
X115060934Y-99648286D01*
X115245962Y-99782717D01*
X115398934Y-99860660D01*
X115449744Y-99886549D01*
X115667251Y-99957221D01*
X115667252Y-99957221D01*
X115667255Y-99957222D01*
X115893146Y-99993000D01*
X115893147Y-99993000D01*
X116216853Y-99993000D01*
X116216854Y-99993000D01*
X116442745Y-99957222D01*
X116442748Y-99957221D01*
X116442749Y-99957221D01*
X116607949Y-99903544D01*
X116660258Y-99886548D01*
X116688404Y-99872207D01*
X116757073Y-99859310D01*
X116821814Y-99885585D01*
X116862071Y-99942691D01*
X116868700Y-99982691D01*
X116868700Y-109709834D01*
X116849015Y-109776873D01*
X116847802Y-109778725D01*
X116759809Y-109910414D01*
X116759802Y-109910427D01*
X116699464Y-110056098D01*
X116699461Y-110056110D01*
X116668700Y-110210753D01*
X116668700Y-110368446D01*
X116699461Y-110523089D01*
X116699464Y-110523101D01*
X116759802Y-110668772D01*
X116759809Y-110668785D01*
X116847410Y-110799888D01*
X116847413Y-110799892D01*
X116958907Y-110911386D01*
X116958911Y-110911389D01*
X117090014Y-110998990D01*
X117090027Y-110998997D01*
X117235698Y-111059335D01*
X117235703Y-111059337D01*
X117390353Y-111090099D01*
X117390356Y-111090100D01*
X117390358Y-111090100D01*
X117548044Y-111090100D01*
X117548045Y-111090099D01*
X117702697Y-111059337D01*
X117848379Y-110998994D01*
X117979489Y-110911389D01*
X118090989Y-110799889D01*
X118178594Y-110668779D01*
X118238937Y-110523097D01*
X118269700Y-110368442D01*
X118269700Y-110210758D01*
X118269700Y-110210755D01*
X118269699Y-110210753D01*
X118264659Y-110185416D01*
X118238937Y-110056103D01*
X118209916Y-109986039D01*
X118178597Y-109910427D01*
X118178590Y-109910414D01*
X118090598Y-109778725D01*
X118069720Y-109712047D01*
X118069700Y-109709834D01*
X118069700Y-108618108D01*
X118089385Y-108551069D01*
X118142189Y-108505314D01*
X118211347Y-108495370D01*
X118266586Y-108517790D01*
X118342499Y-108572944D01*
X118518439Y-108662591D01*
X118643637Y-108703270D01*
X118706236Y-108723610D01*
X118901264Y-108754500D01*
X118901269Y-108754500D01*
X119098736Y-108754500D01*
X119293763Y-108723610D01*
X119298838Y-108721961D01*
X119481561Y-108662591D01*
X119657501Y-108572944D01*
X119764273Y-108495370D01*
X119817246Y-108456884D01*
X119817248Y-108456881D01*
X119817252Y-108456879D01*
X119956879Y-108317252D01*
X119956881Y-108317248D01*
X119956884Y-108317246D01*
X120072941Y-108157505D01*
X120072940Y-108157505D01*
X120072944Y-108157501D01*
X120151294Y-108003730D01*
X120174095Y-107972350D01*
X120517037Y-107629408D01*
X120534075Y-107692993D01*
X120599901Y-107807007D01*
X120692993Y-107900099D01*
X120807007Y-107965925D01*
X120870590Y-107982962D01*
X120307009Y-108546541D01*
X120307010Y-108546542D01*
X120342755Y-108572512D01*
X120342768Y-108572520D01*
X120518626Y-108662126D01*
X120706353Y-108723123D01*
X120901303Y-108754000D01*
X121098697Y-108754000D01*
X121293646Y-108723123D01*
X121481373Y-108662126D01*
X121657241Y-108572516D01*
X121692988Y-108546543D01*
X121692988Y-108546541D01*
X121129410Y-107982962D01*
X121192993Y-107965925D01*
X121307007Y-107900099D01*
X121400099Y-107807007D01*
X121465925Y-107692993D01*
X121482962Y-107629409D01*
X122046541Y-108192988D01*
X122046543Y-108192988D01*
X122072516Y-108157241D01*
X122162126Y-107981373D01*
X122223123Y-107793646D01*
X122254000Y-107598697D01*
X122254000Y-107401302D01*
X122223123Y-107206353D01*
X122162126Y-107018626D01*
X122072520Y-106842768D01*
X122072512Y-106842755D01*
X122046542Y-106807010D01*
X122046541Y-106807009D01*
X121482962Y-107370589D01*
X121465925Y-107307007D01*
X121400099Y-107192993D01*
X121307007Y-107099901D01*
X121192993Y-107034075D01*
X121129409Y-107017037D01*
X121692989Y-106453457D01*
X121657239Y-106427483D01*
X121481373Y-106337873D01*
X121293646Y-106276876D01*
X121098697Y-106246000D01*
X120901303Y-106246000D01*
X120706353Y-106276876D01*
X120518626Y-106337873D01*
X120342762Y-106427482D01*
X120342760Y-106427483D01*
X120307010Y-106453456D01*
X120307010Y-106453457D01*
X120870591Y-107017037D01*
X120807007Y-107034075D01*
X120692993Y-107099901D01*
X120599901Y-107192993D01*
X120534075Y-107307007D01*
X120517037Y-107370590D01*
X120174095Y-107027648D01*
X120151291Y-106996262D01*
X120138326Y-106970817D01*
X120072944Y-106842499D01*
X120065486Y-106832234D01*
X119956884Y-106682753D01*
X119817246Y-106543115D01*
X119657504Y-106427058D01*
X119657503Y-106427057D01*
X119657501Y-106427056D01*
X119481561Y-106337409D01*
X119471077Y-106334002D01*
X119413404Y-106294564D01*
X119386208Y-106230204D01*
X119385400Y-106216073D01*
X119385400Y-102281985D01*
X119405085Y-102214946D01*
X119457889Y-102169191D01*
X119485209Y-102160368D01*
X119567312Y-102144035D01*
X119639197Y-102129737D01*
X119784879Y-102069394D01*
X119915989Y-101981789D01*
X120027489Y-101870289D01*
X120115094Y-101739179D01*
X120175437Y-101593497D01*
X120206200Y-101438842D01*
X120206200Y-101281158D01*
X120206200Y-101281155D01*
X120206199Y-101281153D01*
X120194269Y-101221178D01*
X120175437Y-101126503D01*
X120159065Y-101086976D01*
X120115097Y-100980827D01*
X120115090Y-100980814D01*
X120027098Y-100849125D01*
X120006220Y-100782447D01*
X120006200Y-100780234D01*
X120006200Y-82528345D01*
X120006200Y-82528343D01*
X119986010Y-82452994D01*
X119965277Y-82375615D01*
X119918314Y-82294273D01*
X119886220Y-82238684D01*
X119825789Y-82178253D01*
X123741900Y-82178253D01*
X123741900Y-82335946D01*
X123772661Y-82490589D01*
X123772664Y-82490601D01*
X123833002Y-82636272D01*
X123833009Y-82636285D01*
X123921002Y-82767974D01*
X123941880Y-82834651D01*
X123941900Y-82836865D01*
X123941900Y-90725434D01*
X123922215Y-90792473D01*
X123921002Y-90794325D01*
X123833009Y-90926014D01*
X123833002Y-90926027D01*
X123772664Y-91071698D01*
X123772661Y-91071710D01*
X123741900Y-91226353D01*
X123741900Y-91384046D01*
X123772661Y-91538689D01*
X123772664Y-91538701D01*
X123833002Y-91684372D01*
X123833009Y-91684385D01*
X123920610Y-91815488D01*
X123920613Y-91815492D01*
X124032107Y-91926986D01*
X124032111Y-91926989D01*
X124163214Y-92014590D01*
X124163227Y-92014597D01*
X124308898Y-92074935D01*
X124308903Y-92074937D01*
X124399601Y-92092978D01*
X124463553Y-92105699D01*
X124463556Y-92105700D01*
X124463558Y-92105700D01*
X124621244Y-92105700D01*
X124737508Y-92082573D01*
X124807100Y-92088800D01*
X124862277Y-92131663D01*
X124885522Y-92197552D01*
X124885700Y-92204190D01*
X124885700Y-99244934D01*
X124866015Y-99311973D01*
X124864802Y-99313825D01*
X124776809Y-99445514D01*
X124776802Y-99445527D01*
X124716464Y-99591198D01*
X124716461Y-99591210D01*
X124685700Y-99745853D01*
X124685700Y-99903546D01*
X124716461Y-100058189D01*
X124716464Y-100058201D01*
X124776802Y-100203872D01*
X124776809Y-100203885D01*
X124864410Y-100334988D01*
X124864413Y-100334992D01*
X124975907Y-100446486D01*
X124975911Y-100446489D01*
X125107014Y-100534090D01*
X125107027Y-100534097D01*
X125221868Y-100581665D01*
X125252703Y-100594437D01*
X125404397Y-100624611D01*
X125407353Y-100625199D01*
X125407356Y-100625200D01*
X125407358Y-100625200D01*
X125565044Y-100625200D01*
X125565045Y-100625199D01*
X125719697Y-100594437D01*
X125865379Y-100534094D01*
X125996489Y-100446489D01*
X126107989Y-100334989D01*
X126195594Y-100203879D01*
X126255937Y-100058197D01*
X126286700Y-99903542D01*
X126286700Y-99745858D01*
X126286700Y-99745855D01*
X126286699Y-99745853D01*
X126267356Y-99648609D01*
X126255937Y-99591203D01*
X126227727Y-99523097D01*
X126195597Y-99445527D01*
X126195590Y-99445514D01*
X126107598Y-99313825D01*
X126086720Y-99247147D01*
X126086700Y-99244934D01*
X126086700Y-86218797D01*
X126106385Y-86151758D01*
X126123019Y-86131116D01*
X128647982Y-83606153D01*
X131378762Y-80875372D01*
X131440083Y-80841889D01*
X131442250Y-80841438D01*
X131500185Y-80829913D01*
X131597597Y-80810537D01*
X131743279Y-80750194D01*
X131874389Y-80662589D01*
X131985889Y-80551089D01*
X132073494Y-80419979D01*
X132133837Y-80274297D01*
X132164600Y-80119642D01*
X132164600Y-79961958D01*
X132164600Y-79961955D01*
X132164599Y-79961953D01*
X132156674Y-79922114D01*
X132133837Y-79807303D01*
X132094759Y-79712959D01*
X132073497Y-79661627D01*
X132073490Y-79661614D01*
X131985889Y-79530511D01*
X131985886Y-79530507D01*
X131874392Y-79419013D01*
X131874388Y-79419010D01*
X131743285Y-79331409D01*
X131743272Y-79331402D01*
X131597601Y-79271064D01*
X131597589Y-79271061D01*
X131442945Y-79240300D01*
X131442942Y-79240300D01*
X131285258Y-79240300D01*
X131285255Y-79240300D01*
X131130610Y-79271061D01*
X131130598Y-79271064D01*
X130984927Y-79331402D01*
X130984914Y-79331409D01*
X130853811Y-79419010D01*
X130853807Y-79419013D01*
X130742313Y-79530507D01*
X130742310Y-79530511D01*
X130654709Y-79661614D01*
X130654702Y-79661627D01*
X130594364Y-79807298D01*
X130594361Y-79807308D01*
X130563461Y-79962650D01*
X130531076Y-80024561D01*
X130529525Y-80026139D01*
X125354581Y-85201084D01*
X125293258Y-85234569D01*
X125223566Y-85229585D01*
X125167633Y-85187713D01*
X125143216Y-85122249D01*
X125142900Y-85113403D01*
X125142900Y-82836865D01*
X125162585Y-82769826D01*
X125163798Y-82767974D01*
X125251790Y-82636285D01*
X125251790Y-82636284D01*
X125251794Y-82636279D01*
X125312137Y-82490597D01*
X125342900Y-82335942D01*
X125342900Y-82178258D01*
X125342900Y-82178255D01*
X125342899Y-82178253D01*
X125325763Y-82092107D01*
X125312137Y-82023603D01*
X125289885Y-81969881D01*
X125251797Y-81877927D01*
X125251790Y-81877914D01*
X125164189Y-81746811D01*
X125164186Y-81746807D01*
X125052692Y-81635313D01*
X125052688Y-81635310D01*
X124921585Y-81547709D01*
X124921572Y-81547702D01*
X124775901Y-81487364D01*
X124775889Y-81487361D01*
X124621245Y-81456600D01*
X124621242Y-81456600D01*
X124463558Y-81456600D01*
X124463555Y-81456600D01*
X124308910Y-81487361D01*
X124308898Y-81487364D01*
X124163227Y-81547702D01*
X124163214Y-81547709D01*
X124032111Y-81635310D01*
X124032107Y-81635313D01*
X123920613Y-81746807D01*
X123920610Y-81746811D01*
X123833009Y-81877914D01*
X123833002Y-81877927D01*
X123772664Y-82023598D01*
X123772661Y-82023610D01*
X123741900Y-82178253D01*
X119825789Y-82178253D01*
X119774416Y-82126880D01*
X119774415Y-82126879D01*
X119770085Y-82122549D01*
X119770074Y-82122539D01*
X117259715Y-79612180D01*
X117226230Y-79550857D01*
X117231214Y-79481165D01*
X117273086Y-79425232D01*
X117338550Y-79400815D01*
X117347396Y-79400499D01*
X117547871Y-79400499D01*
X117547872Y-79400499D01*
X117607483Y-79394091D01*
X117742331Y-79343796D01*
X117857546Y-79257546D01*
X117943796Y-79142331D01*
X117994091Y-79007483D01*
X118000500Y-78947873D01*
X118000499Y-77052128D01*
X117994091Y-76992517D01*
X117946964Y-76866164D01*
X117943797Y-76857671D01*
X117943793Y-76857664D01*
X117857547Y-76742455D01*
X117857544Y-76742452D01*
X117742335Y-76656206D01*
X117742328Y-76656202D01*
X117607482Y-76605908D01*
X117607483Y-76605908D01*
X117547883Y-76599501D01*
X117547881Y-76599500D01*
X117547873Y-76599500D01*
X117547864Y-76599500D01*
X114452129Y-76599500D01*
X114452123Y-76599501D01*
X114392516Y-76605908D01*
X114257671Y-76656202D01*
X114257664Y-76656206D01*
X114142455Y-76742452D01*
X114142452Y-76742455D01*
X114056206Y-76857664D01*
X114056202Y-76857671D01*
X114005908Y-76992517D01*
X113999501Y-77052116D01*
X113999501Y-77052123D01*
X113999500Y-77052135D01*
X108350500Y-77052135D01*
X108350500Y-72352135D01*
X113999500Y-72352135D01*
X113999500Y-74247870D01*
X113999501Y-74247876D01*
X114005908Y-74307483D01*
X114056202Y-74442328D01*
X114056206Y-74442335D01*
X114142452Y-74557544D01*
X114142455Y-74557547D01*
X114257664Y-74643793D01*
X114257671Y-74643797D01*
X114392517Y-74694091D01*
X114392516Y-74694091D01*
X114399444Y-74694835D01*
X114452127Y-74700500D01*
X117547872Y-74700499D01*
X117607483Y-74694091D01*
X117742331Y-74643796D01*
X117857546Y-74557546D01*
X117943796Y-74442331D01*
X117994091Y-74307483D01*
X118000500Y-74247873D01*
X118000499Y-72896153D01*
X129157300Y-72896153D01*
X129157300Y-73053846D01*
X129188061Y-73208489D01*
X129188064Y-73208501D01*
X129248402Y-73354172D01*
X129248409Y-73354185D01*
X129336010Y-73485288D01*
X129336013Y-73485292D01*
X129447507Y-73596786D01*
X129447511Y-73596789D01*
X129578614Y-73684390D01*
X129578627Y-73684397D01*
X129702792Y-73735827D01*
X129724303Y-73744737D01*
X129858985Y-73771527D01*
X129878953Y-73775499D01*
X129878956Y-73775500D01*
X129878958Y-73775500D01*
X130036644Y-73775500D01*
X130036645Y-73775499D01*
X130191297Y-73744737D01*
X130336979Y-73684394D01*
X130468089Y-73596789D01*
X130579589Y-73485289D01*
X130667194Y-73354179D01*
X130674874Y-73335639D01*
X130722168Y-73221458D01*
X130727537Y-73208497D01*
X130754044Y-73075238D01*
X130758438Y-73053150D01*
X130790823Y-72991239D01*
X130792324Y-72989711D01*
X131358506Y-72423527D01*
X131358511Y-72423524D01*
X131368714Y-72413320D01*
X131368716Y-72413320D01*
X131480520Y-72301516D01*
X131559577Y-72164584D01*
X131600500Y-72011857D01*
X131600500Y-70067265D01*
X131620185Y-70000226D01*
X131621398Y-69998374D01*
X131709390Y-69866685D01*
X131709390Y-69866684D01*
X131709394Y-69866679D01*
X131769737Y-69720997D01*
X131800500Y-69566342D01*
X131800500Y-69408658D01*
X131800500Y-69408655D01*
X131800499Y-69408653D01*
X131769738Y-69254010D01*
X131769737Y-69254003D01*
X131769735Y-69253998D01*
X131709397Y-69108327D01*
X131709390Y-69108314D01*
X131621789Y-68977211D01*
X131621786Y-68977207D01*
X131510292Y-68865713D01*
X131510288Y-68865710D01*
X131379185Y-68778109D01*
X131379172Y-68778102D01*
X131233501Y-68717764D01*
X131233489Y-68717761D01*
X131078845Y-68687000D01*
X131078842Y-68687000D01*
X130921158Y-68687000D01*
X130921155Y-68687000D01*
X130766510Y-68717761D01*
X130766498Y-68717764D01*
X130620827Y-68778102D01*
X130620814Y-68778109D01*
X130489711Y-68865710D01*
X130489707Y-68865713D01*
X130378213Y-68977207D01*
X130378210Y-68977211D01*
X130290609Y-69108314D01*
X130290602Y-69108327D01*
X130230264Y-69253998D01*
X130230261Y-69254010D01*
X130199500Y-69408653D01*
X130199500Y-69566346D01*
X130230261Y-69720989D01*
X130230264Y-69721001D01*
X130290602Y-69866672D01*
X130290609Y-69866685D01*
X130378602Y-69998374D01*
X130399480Y-70065051D01*
X130399500Y-70067265D01*
X130399500Y-71632703D01*
X130379815Y-71699742D01*
X130363181Y-71720384D01*
X129943139Y-72140425D01*
X129881816Y-72173910D01*
X129879650Y-72174361D01*
X129724308Y-72205261D01*
X129724298Y-72205264D01*
X129578627Y-72265602D01*
X129578614Y-72265609D01*
X129447511Y-72353210D01*
X129447507Y-72353213D01*
X129336013Y-72464707D01*
X129336010Y-72464711D01*
X129248409Y-72595814D01*
X129248402Y-72595827D01*
X129188064Y-72741498D01*
X129188061Y-72741510D01*
X129157300Y-72896153D01*
X118000499Y-72896153D01*
X118000499Y-72352128D01*
X117994091Y-72292517D01*
X117984052Y-72265602D01*
X117943797Y-72157671D01*
X117943793Y-72157664D01*
X117857547Y-72042455D01*
X117857544Y-72042452D01*
X117742335Y-71956206D01*
X117742328Y-71956202D01*
X117607482Y-71905908D01*
X117607483Y-71905908D01*
X117547883Y-71899501D01*
X117547881Y-71899500D01*
X117547873Y-71899500D01*
X117547864Y-71899500D01*
X114452129Y-71899500D01*
X114452123Y-71899501D01*
X114392516Y-71905908D01*
X114257671Y-71956202D01*
X114257664Y-71956206D01*
X114142455Y-72042452D01*
X114142452Y-72042455D01*
X114056206Y-72157664D01*
X114056202Y-72157671D01*
X114005908Y-72292517D01*
X113999501Y-72352116D01*
X113999501Y-72352123D01*
X113999500Y-72352135D01*
X108350500Y-72352135D01*
X108350500Y-67798543D01*
X127179499Y-67798543D01*
X127217947Y-67991829D01*
X127217950Y-67991839D01*
X127293364Y-68173907D01*
X127293371Y-68173920D01*
X127402860Y-68337781D01*
X127402863Y-68337785D01*
X127542214Y-68477136D01*
X127542218Y-68477139D01*
X127706079Y-68586628D01*
X127706092Y-68586635D01*
X127887001Y-68661569D01*
X127888165Y-68662051D01*
X127888169Y-68662051D01*
X127888170Y-68662052D01*
X128081456Y-68700500D01*
X128081459Y-68700500D01*
X128278543Y-68700500D01*
X128443305Y-68667726D01*
X128471835Y-68662051D01*
X128653914Y-68586632D01*
X128817782Y-68477139D01*
X128957139Y-68337782D01*
X129066632Y-68173914D01*
X129142051Y-67991835D01*
X129180500Y-67798541D01*
X129180500Y-66601459D01*
X129180500Y-66601456D01*
X129142052Y-66408170D01*
X129142051Y-66408169D01*
X129142051Y-66408165D01*
X129093726Y-66291497D01*
X129066635Y-66226092D01*
X129066628Y-66226079D01*
X128957139Y-66062218D01*
X128957136Y-66062214D01*
X128817785Y-65922863D01*
X128817781Y-65922860D01*
X128653920Y-65813371D01*
X128653907Y-65813364D01*
X128471839Y-65737950D01*
X128471829Y-65737947D01*
X128278543Y-65699500D01*
X128278541Y-65699500D01*
X128081459Y-65699500D01*
X128081457Y-65699500D01*
X127888170Y-65737947D01*
X127888160Y-65737950D01*
X127706092Y-65813364D01*
X127706079Y-65813371D01*
X127542218Y-65922860D01*
X127542214Y-65922863D01*
X127402863Y-66062214D01*
X127402860Y-66062218D01*
X127293371Y-66226079D01*
X127293364Y-66226092D01*
X127217950Y-66408160D01*
X127217947Y-66408170D01*
X127179500Y-66601456D01*
X127179500Y-66601459D01*
X127179500Y-67798541D01*
X127179500Y-67798543D01*
X127179499Y-67798543D01*
X108350500Y-67798543D01*
X108350500Y-61052486D01*
X143929500Y-61052486D01*
X143929500Y-61347513D01*
X143955593Y-61545700D01*
X143968007Y-61639993D01*
X144026291Y-61857513D01*
X144044361Y-61924951D01*
X144044364Y-61924961D01*
X144157254Y-62197500D01*
X144157258Y-62197510D01*
X144304761Y-62452993D01*
X144484352Y-62687040D01*
X144484358Y-62687047D01*
X144692952Y-62895641D01*
X144692959Y-62895647D01*
X144927006Y-63075238D01*
X145182489Y-63222741D01*
X145182490Y-63222741D01*
X145182493Y-63222743D01*
X145455048Y-63335639D01*
X145740007Y-63411993D01*
X146032494Y-63450500D01*
X146032501Y-63450500D01*
X146327499Y-63450500D01*
X146327506Y-63450500D01*
X146619993Y-63411993D01*
X146904952Y-63335639D01*
X147177507Y-63222743D01*
X147432994Y-63075238D01*
X147667042Y-62895646D01*
X147875646Y-62687042D01*
X148055238Y-62452994D01*
X148202743Y-62197507D01*
X148315639Y-61924952D01*
X148391993Y-61639993D01*
X148430500Y-61347506D01*
X148430500Y-61052494D01*
X148391993Y-60760007D01*
X148315639Y-60475048D01*
X148202743Y-60202493D01*
X148055238Y-59947006D01*
X147875646Y-59712958D01*
X147875641Y-59712952D01*
X147667047Y-59504358D01*
X147667040Y-59504352D01*
X147432993Y-59324761D01*
X147177510Y-59177258D01*
X147177500Y-59177254D01*
X146904961Y-59064364D01*
X146904954Y-59064362D01*
X146904952Y-59064361D01*
X146619993Y-58988007D01*
X146571113Y-58981571D01*
X146327513Y-58949500D01*
X146327506Y-58949500D01*
X146032494Y-58949500D01*
X146032486Y-58949500D01*
X145754085Y-58986153D01*
X145740007Y-58988007D01*
X145455048Y-59064361D01*
X145455038Y-59064364D01*
X145182499Y-59177254D01*
X145182489Y-59177258D01*
X144927006Y-59324761D01*
X144692959Y-59504352D01*
X144692952Y-59504358D01*
X144484358Y-59712952D01*
X144484352Y-59712959D01*
X144304761Y-59947006D01*
X144157258Y-60202489D01*
X144157254Y-60202499D01*
X144044364Y-60475038D01*
X144044361Y-60475048D01*
X143968008Y-60760004D01*
X143968006Y-60760015D01*
X143929500Y-61052486D01*
X108350500Y-61052486D01*
X108350500Y-58624500D01*
X108370185Y-58557461D01*
X108422989Y-58511706D01*
X108474500Y-58500500D01*
X184525500Y-58500500D01*
X184592539Y-58520185D01*
G37*
%TD.AperFunction*%
%TA.AperFunction,Conductor*%
G36*
X169066534Y-107906914D02*
G01*
X169122467Y-107948786D01*
X169146884Y-108014250D01*
X169147200Y-108023096D01*
X169147200Y-111470234D01*
X169127515Y-111537273D01*
X169126302Y-111539125D01*
X169038309Y-111670814D01*
X169038302Y-111670827D01*
X168977964Y-111816498D01*
X168977961Y-111816510D01*
X168947200Y-111971153D01*
X168947200Y-112128846D01*
X168977961Y-112283489D01*
X168977964Y-112283501D01*
X169038302Y-112429172D01*
X169038309Y-112429185D01*
X169125910Y-112560288D01*
X169125913Y-112560292D01*
X169237407Y-112671786D01*
X169237411Y-112671789D01*
X169343084Y-112742398D01*
X169387889Y-112796010D01*
X169396596Y-112865335D01*
X169366442Y-112928363D01*
X169306998Y-112965082D01*
X169274193Y-112969500D01*
X130143507Y-112969500D01*
X130076468Y-112949815D01*
X130030713Y-112897011D01*
X130020769Y-112827853D01*
X130049794Y-112764297D01*
X130074616Y-112742398D01*
X130118748Y-112712909D01*
X130180289Y-112671789D01*
X130291789Y-112560289D01*
X130379394Y-112429179D01*
X130439737Y-112283497D01*
X130470500Y-112128842D01*
X130470500Y-111971158D01*
X130470500Y-111971155D01*
X130470499Y-111971153D01*
X130439738Y-111816510D01*
X130439737Y-111816503D01*
X130439735Y-111816498D01*
X130379397Y-111670827D01*
X130379390Y-111670814D01*
X130291398Y-111539125D01*
X130270520Y-111472447D01*
X130270500Y-111470234D01*
X130270500Y-109950718D01*
X130290185Y-109883679D01*
X130338207Y-109840233D01*
X130377815Y-109820052D01*
X130377815Y-109820051D01*
X130377816Y-109820051D01*
X130528199Y-109710792D01*
X130548661Y-109695926D01*
X130614467Y-109672446D01*
X130682521Y-109688272D01*
X130709227Y-109708563D01*
X131016164Y-110015500D01*
X131364184Y-110363520D01*
X131364186Y-110363521D01*
X131364190Y-110363524D01*
X131479638Y-110430177D01*
X131501116Y-110442577D01*
X131653843Y-110483501D01*
X131653845Y-110483501D01*
X131819554Y-110483501D01*
X131819570Y-110483500D01*
X132581531Y-110483500D01*
X132581547Y-110483501D01*
X132589143Y-110483501D01*
X132747254Y-110483501D01*
X132747257Y-110483501D01*
X132899985Y-110442577D01*
X132950104Y-110413639D01*
X133036916Y-110363520D01*
X133148720Y-110251716D01*
X133148720Y-110251714D01*
X133158928Y-110241507D01*
X133158930Y-110241504D01*
X133700231Y-109700202D01*
X133761552Y-109666719D01*
X133831244Y-109671703D01*
X133866227Y-109692294D01*
X133866266Y-109692241D01*
X133866820Y-109692644D01*
X133868455Y-109693606D01*
X133870204Y-109695100D01*
X133870208Y-109695104D01*
X133870212Y-109695107D01*
X133870218Y-109695112D01*
X134042179Y-109820048D01*
X134042181Y-109820049D01*
X134042184Y-109820051D01*
X134231588Y-109916557D01*
X134433757Y-109982246D01*
X134643713Y-110015500D01*
X134643714Y-110015500D01*
X134856286Y-110015500D01*
X134856287Y-110015500D01*
X135066243Y-109982246D01*
X135268412Y-109916557D01*
X135286804Y-109907185D01*
X135289509Y-109906677D01*
X135291589Y-109904876D01*
X135323640Y-109900267D01*
X135355472Y-109894289D01*
X135358021Y-109895323D01*
X135360747Y-109894932D01*
X135390211Y-109908387D01*
X135420213Y-109920564D01*
X135421798Y-109922813D01*
X135424303Y-109923957D01*
X135441815Y-109951206D01*
X135460471Y-109977670D01*
X135461044Y-109981127D01*
X135462077Y-109982735D01*
X135467100Y-110017670D01*
X135467100Y-110110034D01*
X135447415Y-110177073D01*
X135446202Y-110178925D01*
X135358209Y-110310614D01*
X135358202Y-110310627D01*
X135297864Y-110456298D01*
X135297861Y-110456310D01*
X135267100Y-110610953D01*
X135267100Y-110768646D01*
X135297861Y-110923289D01*
X135297864Y-110923301D01*
X135358202Y-111068972D01*
X135358209Y-111068985D01*
X135445810Y-111200088D01*
X135445813Y-111200092D01*
X135557307Y-111311586D01*
X135557311Y-111311589D01*
X135688414Y-111399190D01*
X135688427Y-111399197D01*
X135834098Y-111459535D01*
X135834103Y-111459537D01*
X135988753Y-111490299D01*
X135988756Y-111490300D01*
X135988758Y-111490300D01*
X136146444Y-111490300D01*
X136146445Y-111490299D01*
X136301097Y-111459537D01*
X136446779Y-111399194D01*
X136577889Y-111311589D01*
X136689389Y-111200089D01*
X136776994Y-111068979D01*
X136837337Y-110923297D01*
X136868100Y-110768642D01*
X136868100Y-110610958D01*
X136868100Y-110610955D01*
X136868099Y-110610953D01*
X136850623Y-110523097D01*
X136837337Y-110456303D01*
X136821140Y-110417199D01*
X136776997Y-110310627D01*
X136776990Y-110310614D01*
X136688998Y-110178925D01*
X136683347Y-110160878D01*
X136673123Y-110144969D01*
X136668671Y-110114007D01*
X136668120Y-110112247D01*
X136668100Y-110110034D01*
X136668100Y-110053078D01*
X136687785Y-109986039D01*
X136740589Y-109940284D01*
X136809747Y-109930340D01*
X136830418Y-109935147D01*
X136973871Y-109981757D01*
X137040000Y-109992231D01*
X137040000Y-109098012D01*
X137097007Y-109130925D01*
X137224174Y-109165000D01*
X137355826Y-109165000D01*
X137482993Y-109130925D01*
X137540000Y-109098012D01*
X137540000Y-109992230D01*
X137606126Y-109981757D01*
X137606129Y-109981757D01*
X137808217Y-109916095D01*
X137997557Y-109819620D01*
X138169459Y-109694727D01*
X138169464Y-109694723D01*
X138319723Y-109544464D01*
X138319727Y-109544459D01*
X138444620Y-109372558D01*
X138449232Y-109363507D01*
X138497205Y-109312709D01*
X138565025Y-109295912D01*
X138631161Y-109318447D01*
X138670204Y-109363504D01*
X138674949Y-109372817D01*
X138799890Y-109544786D01*
X138950213Y-109695109D01*
X139122179Y-109820048D01*
X139122181Y-109820049D01*
X139122184Y-109820051D01*
X139311588Y-109916557D01*
X139513757Y-109982246D01*
X139723713Y-110015500D01*
X139723714Y-110015500D01*
X139936286Y-110015500D01*
X139936287Y-110015500D01*
X140146243Y-109982246D01*
X140348412Y-109916557D01*
X140537816Y-109820051D01*
X140623192Y-109758022D01*
X140706461Y-109697525D01*
X140772267Y-109674045D01*
X140840321Y-109689871D01*
X140867027Y-109710162D01*
X141391839Y-110234974D01*
X141391849Y-110234985D01*
X141396179Y-110239315D01*
X141396180Y-110239316D01*
X141507984Y-110351120D01*
X141594795Y-110401239D01*
X141594797Y-110401241D01*
X141644913Y-110430176D01*
X141644915Y-110430177D01*
X141797642Y-110471100D01*
X141797643Y-110471100D01*
X147820031Y-110471100D01*
X147820047Y-110471101D01*
X147827643Y-110471101D01*
X147985754Y-110471101D01*
X147985757Y-110471101D01*
X148138485Y-110430177D01*
X148188604Y-110401239D01*
X148275416Y-110351120D01*
X148387220Y-110239316D01*
X148387220Y-110239314D01*
X148397428Y-110229107D01*
X148397430Y-110229104D01*
X148933138Y-109693396D01*
X148994461Y-109659911D01*
X149064153Y-109664895D01*
X149106417Y-109692057D01*
X149106512Y-109691947D01*
X149107321Y-109692638D01*
X149108500Y-109693396D01*
X149110213Y-109695109D01*
X149282179Y-109820048D01*
X149282181Y-109820049D01*
X149282184Y-109820051D01*
X149471588Y-109916557D01*
X149673757Y-109982246D01*
X149883713Y-110015500D01*
X149883714Y-110015500D01*
X150096286Y-110015500D01*
X150096287Y-110015500D01*
X150306243Y-109982246D01*
X150508412Y-109916557D01*
X150697816Y-109820051D01*
X150757246Y-109776873D01*
X150869786Y-109695109D01*
X150869788Y-109695106D01*
X150869792Y-109695104D01*
X151020104Y-109544792D01*
X151020106Y-109544788D01*
X151020109Y-109544786D01*
X151145048Y-109372820D01*
X151145050Y-109372817D01*
X151145051Y-109372816D01*
X151149514Y-109364054D01*
X151197488Y-109313259D01*
X151265308Y-109296463D01*
X151331444Y-109318999D01*
X151370486Y-109364056D01*
X151374951Y-109372820D01*
X151499890Y-109544786D01*
X151650213Y-109695109D01*
X151822179Y-109820048D01*
X151822181Y-109820049D01*
X151822184Y-109820051D01*
X152011588Y-109916557D01*
X152213757Y-109982246D01*
X152423713Y-110015500D01*
X152423714Y-110015500D01*
X152636286Y-110015500D01*
X152636287Y-110015500D01*
X152846243Y-109982246D01*
X153048412Y-109916557D01*
X153237816Y-109820051D01*
X153297246Y-109776873D01*
X153409786Y-109695109D01*
X153409788Y-109695106D01*
X153409792Y-109695104D01*
X153560104Y-109544792D01*
X153560106Y-109544788D01*
X153560109Y-109544786D01*
X153685048Y-109372820D01*
X153685050Y-109372817D01*
X153685051Y-109372816D01*
X153689514Y-109364054D01*
X153737488Y-109313259D01*
X153805308Y-109296463D01*
X153871444Y-109318999D01*
X153910486Y-109364056D01*
X153914951Y-109372820D01*
X154039890Y-109544786D01*
X154190213Y-109695109D01*
X154362179Y-109820048D01*
X154362181Y-109820049D01*
X154362184Y-109820051D01*
X154551588Y-109916557D01*
X154753757Y-109982246D01*
X154963713Y-110015500D01*
X154963714Y-110015500D01*
X155176286Y-110015500D01*
X155176287Y-110015500D01*
X155386243Y-109982246D01*
X155588412Y-109916557D01*
X155777816Y-109820051D01*
X155949792Y-109695104D01*
X155955343Y-109689552D01*
X156016658Y-109656064D01*
X156086351Y-109661040D01*
X156130711Y-109689546D01*
X156670678Y-110229513D01*
X156670680Y-110229516D01*
X156782484Y-110341320D01*
X156829834Y-110368657D01*
X156890198Y-110403508D01*
X156919409Y-110420374D01*
X156919410Y-110420375D01*
X156919412Y-110420375D01*
X156919415Y-110420377D01*
X157072143Y-110461301D01*
X157072146Y-110461301D01*
X157237853Y-110461301D01*
X157237869Y-110461300D01*
X158027931Y-110461300D01*
X158027947Y-110461301D01*
X158035543Y-110461301D01*
X158193654Y-110461301D01*
X158193657Y-110461301D01*
X158346385Y-110420377D01*
X158435966Y-110368657D01*
X158483316Y-110341320D01*
X158595120Y-110229516D01*
X158595120Y-110229514D01*
X158605324Y-110219311D01*
X158605328Y-110219306D01*
X159113843Y-109710790D01*
X159175164Y-109677307D01*
X159244856Y-109682291D01*
X159274407Y-109698155D01*
X159291801Y-109710792D01*
X159442184Y-109820051D01*
X159631588Y-109916557D01*
X159833757Y-109982246D01*
X160043713Y-110015500D01*
X160043714Y-110015500D01*
X160256286Y-110015500D01*
X160256287Y-110015500D01*
X160466243Y-109982246D01*
X160668412Y-109916557D01*
X160857816Y-109820051D01*
X161029792Y-109695104D01*
X161029801Y-109695094D01*
X161031490Y-109693653D01*
X161032274Y-109693301D01*
X161033734Y-109692241D01*
X161033956Y-109692547D01*
X161095248Y-109665074D01*
X161164335Y-109675501D01*
X161199716Y-109700251D01*
X161680539Y-110181074D01*
X161680549Y-110181085D01*
X161684879Y-110185415D01*
X161684880Y-110185416D01*
X161796684Y-110297220D01*
X161873068Y-110341320D01*
X161933615Y-110376277D01*
X162086342Y-110417200D01*
X162086343Y-110417200D01*
X166118331Y-110417200D01*
X166118347Y-110417201D01*
X166125943Y-110417201D01*
X166284054Y-110417201D01*
X166284057Y-110417201D01*
X166436785Y-110376277D01*
X166497332Y-110341320D01*
X166573716Y-110297220D01*
X166685520Y-110185416D01*
X166685520Y-110185414D01*
X166695724Y-110175211D01*
X166695727Y-110175206D01*
X168935521Y-107935413D01*
X168996842Y-107901930D01*
X169066534Y-107906914D01*
G37*
%TD.AperFunction*%
%TD*%
M02*
